<svg xmlns="http://www.w3.org/2000/svg" viewBox="0 0 1024 265"><title>impression-thesis</title><g id="Layer_1" data-name="Layer 1"><path d="M107.46,157.87V115.76H60.88v42.11H48.42V66.46H60.88v38.73h46.58V66.46h12.46v91.41Z"/><path d="M178.83,157.87a83.65,83.65,0,0,1,.67-13.4h-.27c-3.25,8.26-11.78,14.62-22.89,14.62s-18.68-6-18.68-16.66c0-14.76,15-24.1,40.49-24.1v-5c0-9.35-3.66-14.36-14.76-14.36a42.47,42.47,0,0,0-20.32,5.56l-1.22-10.43a61.77,61.77,0,0,1,23.57-4.88c19.36,0,24.92,9.08,24.92,22.48v36.7c3.25.54,7.85,1.09,11.78,1.36v7.17A145.65,145.65,0,0,1,178.83,157.87Zm-.68-31c-23.43,0-28.58,7.18-28.58,13.27,0,5.69,4.07,9.35,10.3,9.35,11,0,18.28-10.84,18.28-21.4Z"/><path d="M303.27,157.87v-43.2c0-9.34-2.16-15.3-11-15.3-9.62,0-18.83,10.16-18.83,26.41v32.09H261.43V114.54c0-8.4-1.76-15.17-11-15.17-10.29,0-18.82,11-18.82,26.41v32.09H219.45V100.05c-3.25-.54-7.86-1.09-11.78-1.36V91.52a147.68,147.68,0,0,1,23.56-1,83.55,83.55,0,0,1-1.08,14.08l.27.14a24.7,24.7,0,0,1,23.43-15.58c14.22,0,18,9.89,18.55,15.31a24.86,24.86,0,0,1,23-15.31c12.73,0,20,6.91,20,22.08v46.58Z"/><path d="M351.62,91.65a73.72,73.72,0,0,1-1.09,12.6l.14.13c3.66-9.48,12.05-15,22.21-15,16,0,24.92,11.1,24.92,31.69,0,23.56-13.41,37.78-35.21,37.78a85.49,85.49,0,0,1-23.16-2.71V68.49c-3.25-.54-7.85-1.08-11.78-1.35V60a153.26,153.26,0,0,1,24-1ZM370,99.37c-12.19,0-18.42,14.22-18.42,25.87v22.34a40,40,0,0,0,12.05,1.63c12.73,0,21.26-7.72,21.26-27.09C384.93,107.63,380.33,99.37,370,99.37Z"/><path d="M461.31,157.87a99.61,99.61,0,0,1,1.08-14.08l-.27-.14c-3.93,9.35-12.19,15.58-23.7,15.58-15.44,0-20.18-9.62-20.18-21.54V100.05c-3.25-.54-7.85-1.09-11.78-1.36V91.52a152.58,152.58,0,0,1,23.84-1V134c0,9.48,2.7,15,11.51,15,11.1,0,19.23-11.24,19.23-26.14V90.57h12v57.82c3.25.54,7.85,1.09,11.78,1.36v7.17A147.73,147.73,0,0,1,461.31,157.87Z"/><path d="M512.49,106.55h.27c2.85-9.35,9.75-18.69,23.16-17.2l-.54,11.92c-14.22-2.44-21,8-21,29.52v27.08H502.2V100.05c-3.25-.54-7.85-1.09-11.78-1.36V91.52a147.73,147.73,0,0,1,23.56-1A89.21,89.21,0,0,1,512.49,106.55Z"/><path d="M567.61,192.4a73.92,73.92,0,0,1-19.5-2.57l.95-11.92a55.42,55.42,0,0,0,19.63,3.8c14.09,0,21.94-5.15,21.94-20.45V156a64.29,64.29,0,0,1,.81-11.79h-.27a23.17,23.17,0,0,1-21.8,14.9c-16,0-25-10.83-25-31.69,0-23.56,13.27-37.92,35.61-37.92a150.47,150.47,0,0,1,22.75,1.9V163C602.68,175.75,596.72,192.4,567.61,192.4Zm22.89-91.81a51.07,51.07,0,0,0-11.92-1.36c-12.87,0-21.4,7.72-21.4,27.09,0,14.49,4.74,22.75,14.9,22.75,12.19,0,18.42-14.22,18.42-26.14Z"/><path d="M675.92,123.48h-44c-.55,18,6.9,25.73,21.26,25.73A48,48,0,0,0,672.8,145l1.09,9.88a59.76,59.76,0,0,1-22.75,4.2c-20.72,0-31.83-10.83-31.83-34.53,0-20.18,11-35.21,30.07-35.21s26.94,12.86,26.94,28.3A50.72,50.72,0,0,1,675.92,123.48ZM648.83,98.29c-8.8,0-15,6.63-16.38,16.52h31.42C664.14,104.92,658.31,98.29,648.83,98.29Z"/><path d="M733.2,69.58a30.6,30.6,0,0,0-9.89-1.49c-9.61,0-13.81,5.41-13.81,17.33v5.15h18.69v9.48H709.5v57.82H697.31V100.05H683.5V90.57h13.81v-5c0-18.56,9.08-27.36,25.87-27.36a50.82,50.82,0,0,1,11.1,1.22Z"/><path d="M763,159.09c-18.28,0-30.2-10.56-30.2-34.26,0-19.77,12.46-35.48,32.77-35.48,17.2,0,30.34,9.48,30.34,33.72C795.89,143.38,782.89,159.09,763,159.09Zm1.49-59.58c-9.75,0-19,7.44-19,24.1,0,16.25,6.64,25.19,19,25.19,10,0,18.69-7.86,18.69-25.05C783.16,108.44,776.93,99.51,764.47,99.51Z"/><path d="M827,104.65l.27.14c3.93-9.35,12.19-15.58,23.7-15.58,15.44,0,20.32,9.62,20.32,21.54v47.12H859.13V114.4c0-9.48-2.57-15-11.51-15-11.11,0-19.1,11.24-19.1,26.14v32.36H816.34V100.05c-3.25-.54-7.86-1.09-11.79-1.36V91.52a147.86,147.86,0,0,1,23.57-1A81.54,81.54,0,0,1,827,104.65Z"/><path d="M913.57,159c-13.82,0-18-5.69-18-20.18V100.05H881.74V90.57h13.81V68.76l12.19-3.38V90.57h18.83v9.48H907.74v34.39c0,11.11,2,14.09,9.62,14.09a39.71,39.71,0,0,0,9.21-1.22V157.6A66.28,66.28,0,0,1,913.57,159Z"/><path d="M953.65,159.09a77.53,77.53,0,0,1-14.22-1.22l.4-10.83a50.53,50.53,0,0,0,14.77,2.3c8.93,0,15-4.06,15-10.29,0-15-31.29-5.82-31.29-29.52,0-11.38,9.35-20.18,26.95-20.18a69.35,69.35,0,0,1,12.87,1.35l-.27,10.16a45.82,45.82,0,0,0-13.54-2.17c-8.94,0-13.41,3.79-13.41,9.62,0,14.76,31.42,6.77,31.42,29.38C982.36,149.88,971.52,159.09,953.65,159.09Z"/></g></svg>