<svg id="Layer_1" data-name="Layer 1" xmlns="http://www.w3.org/2000/svg" viewBox="0 0 1024 265"><title>impression-lexicon</title><path d="M169.8,71.34l-6.77.81a9.45,9.45,0,0,0-3.25.81c-.95.54-1.35,1.49-1.62,3.79l-8.8,70.83a7.56,7.56,0,0,0-.14,1.63c0,1.76.95,2.43,3.93,2.7l6.36.68-.68,5.28H117.67l.67-5.28,7.32-1c3.25-.4,3.92-1.08,4.33-4.47l4.06-32.9H94.51l-4.2,33.31c0,.54-.13.95-.13,1.49,0,1.63.81,2.3,3.25,2.57l6.9,1-.67,5.28H58.76l.68-5.28,7-1c3.38-.4,3.92-1.08,4.33-4.19l8.94-70.83V75c0-1.76-.68-2.43-3.12-2.7l-7.17-1,.67-5.28H111.3l-.68,5.28-6.77.81c-3.52.41-4.19,1.08-4.6,4.47l-3.66,29.52H135l3.79-29.66a5.86,5.86,0,0,0,.14-1.49c0-1.49-.68-2.3-2.57-2.57l-7.86-1.08.68-5.28h41.3Z"/><path d="M214.9,160.17c-3.93,0-6-3.52-6-10.15a79.4,79.4,0,0,1,.81-9.08c.41-2.7.81-4.6,2.17-10.56H210.7C204.47,148.26,193.63,160,183.34,160c-8.12,0-12.73-6.91-12.73-19.37,0-27.89,18.69-51.73,40.63-51.73A52.19,52.19,0,0,1,226,91.38l7-7.85h4.47l-10,38.32c-2.17,8.26-3.25,14.36-3.25,18.55,0,2.31.81,3.66,2.3,3.66,1.9,0,3.66-2,9.35-10l3,1.62C229,152.05,221,160.17,214.9,160.17Zm-8.26-62.29c-4.2,0-8.4,3.52-11.24,9.62-3.93,8.26-6.64,19.63-6.64,27.76,0,6,1.9,9.07,5.42,9.07,5.82,0,12.46-8.94,15.57-21.26L215.44,101C212.05,98.69,209.48,97.88,206.64,97.88Z"/><path d="M326.21,159.9c-5,0-8.4-4.33-8.4-10.83,0-4.47,1.36-10,4.34-19l6.5-19.09A17.76,17.76,0,0,0,330,105.6c0-2-1.62-3.25-4.33-3.25a16.89,16.89,0,0,0-10.16,3.79,18.06,18.06,0,0,0-4.87,5.28,47,47,0,0,0-5,13.27l-8,34.94c-10.57-.13-16.25-3.79-16.25-10.56,0-2.17.27-3.66,1.62-8.26l9.75-32a12.1,12.1,0,0,0,.68-3.25c0-2.17-1.36-3.39-4.06-3.39a17.59,17.59,0,0,0-9.48,3.39c-5,3.79-8,9.61-11,22.61l-7.32,31.42c-10.42-.27-16.11-4.06-16.11-10.83,0-2.3.41-4.61,2-9.62l9.35-29c1.21-3.65,1.48-4.74,1.48-5.82a2.1,2.1,0,0,0-2.3-2.17c-2.3,0-5,2.44-9.75,9.21l-3-1.62a102.77,102.77,0,0,1,7.59-11c6.09-7.86,12.46-12,17.74-12,3.11,0,4.74,2,4.74,6.09s-1.49,10.56-4.88,21.53h1.36c3.11-7,6.22-11.92,10.29-16.25,6.23-6.63,14.49-11,20.72-11,4.74,0,7.44,2.85,7.44,7.86,0,4.33-1.35,10.42-4.19,19.77l1.49-.14c6.23-16.11,19.09-26.81,32.23-26.81,6.9,0,11,3.79,11,10.29,0,3.39-.95,7.45-4.07,17.2l-6.09,18.82c-1.35,4.34-1.49,5.15-1.49,6.91s.81,3,1.9,3c1.89,0,4.87-3.25,10.15-10.56l2.85,1.89C341.51,151.64,332.71,159.9,326.21,159.9Z"/><path d="M378.89,160.17c-11.38,0-17.74-5.82-17.74-16,0-3.52.54-7.44,1.89-13.67l14.49-67.58a22.76,22.76,0,0,0,.27-2.57c0-2.17-.94-2.71-4.47-2.85l-7.17-.27,1.22-4.47,33-5L380,114h1.35c6.1-15.71,16.8-25.73,27.36-25.73,8.4,0,13.14,6.5,13.14,18C421.82,135.12,401.77,160.17,378.89,160.17Zm17.87-58.5c-3.79,0-8.39,4.06-11.24,10-2.16,4.61-4.06,11-5.41,19.37a65,65,0,0,0-.95,9.88c0,5.15,2.3,8.13,6.5,8.13a9.31,9.31,0,0,0,7-3.66c5.42-6.36,9.62-20,10.16-32.9,0-.28.13-.55.13-1C403,105.19,400.69,101.67,396.76,101.67Z"/><path d="M494.53,147.45c-6.77,8.39-12.45,12.59-16.79,12.59-3.79,0-5.82-3.25-5.82-9.34,0-4.88.81-9.35,3.66-20.18l-1.36.13c-8.12,18.28-20.31,29.52-32.09,29.52-6,0-9.89-5.14-9.89-13,0-5.14,1.22-10.29,4.47-20.72L442.4,108l1.49-4.34a5.24,5.24,0,0,0,.27-1.22,1.41,1.41,0,0,0-1.49-1.48c-1.76,0-4.61,2.57-10.29,9.2L429.53,108c10.84-14,19.91-20.86,27.49-20.86,4.2,0,6.77,2.57,6.77,6.37,0,2.57-.54,4.6-2.57,11.24l-8.8,28.44c-1.49,4.6-1.9,6.63-1.9,8.66a3.55,3.55,0,0,0,3.79,3.79c2.85,0,6.64-1.89,9.62-4.87,5.15-5,8.4-11.78,11.37-23.43l5-19.91c.95-3.65,1.09-4.33,2-5.68C484,89.35,487,88.4,492,88.4c5.82,0,8.26,1.35,8.26,4.6a10.05,10.05,0,0,1-.4,2.71l-1.9,6-8.4,28c-.94,3.39-1.62,5.56-1.89,6.78a14.71,14.71,0,0,0-.54,4.19c0,1.9.94,3.25,2.3,3.25,2.3,0,5.14-2.7,10.7-10l2.84,1.76A109.37,109.37,0,0,1,494.53,147.45Z"/><path d="M559.94,97.61c-2.3,4.6-3.79,6.91-9.61,14.49-1.09-3.66-3.12-5.69-5.83-5.69-4.87,0-7.85,4.74-9.88,14.9l-7.45,38.32c-4.88-.4-5.28-.4-7.86-1.08-5.28-1.22-8.8-5.15-8.8-10,0-1.49.27-2.57,1.22-6.5l8.4-32.91a27.77,27.77,0,0,0,.94-4.74,2,2,0,0,0-1.89-2.17c-1.9,0-3.79,2-9.35,9.21l-3-2c9.07-14,18.68-22.61,25.18-22.61,2.44,0,4.07,2,4.07,5.14v.27a38.38,38.38,0,0,1-.82,6.5c-.94,4.88-1.62,7.72-3.92,16.52h1.35c.41-1.35.81-2.3,1.08-3a60.62,60.62,0,0,1,9.08-15.7c4.87-5.69,10.29-9.08,14.49-9.08a3.84,3.84,0,0,1,4.06,4.07A18.27,18.27,0,0,1,559.94,97.61Z"/><path d="M623.59,101.94l-12.46-4.06A23.25,23.25,0,0,1,614,109.53c0,13.81-7.45,27.49-17.87,33-3.66,1.9-6.5,2.71-12.33,3.39-3.52,2.3-4.6,3.52-4.6,5.55,0,2.57,2.3,4.33,8.8,6.36l9.07,2.85c6.37,2,11.65,4.33,14.5,6.23a9.93,9.93,0,0,1,4.46,8.26c0,13.54-17.6,24.37-39.54,24.37-17.6,0-30.47-6.5-30.47-15.16,0-7.45,8.67-13.95,23.84-17.61-4.88-2.57-6.23-4.33-6.23-7.31s1.62-5.28,4.87-7.59c3.25-2.16,4.74-3,11.38-6.09a20.2,20.2,0,0,1-6.37-1.49c-7-2.84-10.83-9.89-10.83-20,0-20,14.35-36.7,31.82-36.7a18.14,18.14,0,0,1,12,3.93H626.7Zm-33.45,73-5.82-2c-.82-.27-2.85-.94-6-2.16L574,169l-1.35-.55c-6.64,2.71-9.89,6.23-9.89,11.24,0,6.5,8.4,11.52,19.23,11.52,10,0,18.56-4.34,18.56-9.35C600.57,179.27,598,177.64,590.14,174.94Zm8.12-67.72c0-7.31-2.3-11.64-6.23-11.64-6.63,0-12.59,15-12.59,31.82,0,7.72,1.9,11.65,6,11.65,6.5,0,12.86-14.36,12.86-31.15Z"/><path d="M641.73,123.88c-.13,1.76-.13,2.44-.13,3.52,0,11.38,4.33,18.15,11.78,18.15a16.94,16.94,0,0,0,10.29-3.93,31,31,0,0,0,6.5-6.77l3.52,2.44C663.4,151.91,651.89,160,641.05,160s-17.6-8.67-17.6-23.16c0-27.08,18.82-49.83,41-49.83C673,87.05,678,90.84,678,97.34,678,108.85,663.8,119.28,641.73,123.88Zm16-27.49c-3.38,0-7.31,3-10.29,7.58-2.84,4.34-4.06,8-5.42,15.17a36,36,0,0,0,9.48-3.79c6.37-3.79,10.7-9.62,10.7-14.35A4.46,4.46,0,0,0,657.71,96.39Z"/><path d="M742.75,69.31c-3.65-6.37-9.34-10.57-14.89-10.57A10.75,10.75,0,0,0,720,62.13c-3.79,4.2-6.36,10.56-8.12,24.92l-.54,4.47h14.89l-1,8.39H710.12l-4.88,35.21c-.81,6.23-1.62,11.38-2.44,15.3-2.7,14.49-6.09,24.11-11.64,32.5-6.64,10-17.74,16.66-27.9,16.66-7.58,0-12.46-4.06-12.46-10.29,0-3.25,1-5.69,3.93-10q7.11,9.34,15,9.34c7.86,0,10.29-5.82,15.17-36.56l8.26-52.14H682.76l.81-4.87,10.84-3.8c2.57-13.13,4.47-18.68,8.94-25.32a38,38,0,0,1,32.5-17.2c9.21,0,14.62,3.12,14.62,8.4C750.47,61.05,748.31,64.57,742.75,69.31Z"/><path d="M744.38,160c-13.28,0-21.54-8.94-21.54-23.43,0-26.27,18.42-49.7,39.14-49.7,12.87,0,21.26,9.07,21.26,22.89C783.24,136.34,764.83,160,744.38,160Zm13.67-63.51c-3.52,0-7.17,3.25-9.61,8.8a82.14,82.14,0,0,0-6.77,31.28c0,8.53,2.57,13.41,7.31,13.41,8,0,14.76-17.06,15.57-39.82a5.35,5.35,0,0,0,.14-1.49C764.69,100.72,762.39,96.53,758.05,96.53Z"/><path d="M836.46,159.9c-4.87,0-7.72-4.19-7.72-11.24,0-4.87,1.22-9.88,5.28-21.8l5.28-15.57c1.22-3.79,1.49-4.74,1.49-6,0-2.17-1.62-3.52-4.46-3.52a17.11,17.11,0,0,0-10.7,4.33,20.3,20.3,0,0,0-4.61,5.55c-1.76,3-3,6.23-4.6,13.27l-8.13,34.54c-10.29-.54-16.11-4.2-16.11-10.43,0-2.44.4-4.47,2-9.61l8.53-27.77c1.9-6,2-6.36,2-7.31a2.17,2.17,0,0,0-2.16-2.3c-2.58,0-5,2.44-9.48,9.34l-3-1.62c7.31-13.68,17.6-23,25.32-23,2.71,0,4.47,2.16,4.47,5.82a40.9,40.9,0,0,1-1.22,8c-1,4.06-1.62,6.23-3.79,13.68h1.35c3.25-7.59,5.56-11.24,9.89-15.71,6.63-7,14.76-11,22.61-11,6.64,0,10.84,3.93,10.84,10.15,0,3.39-1.22,8.67-4.06,17.61L849.87,133c-1.49,4.46-1.9,6.36-1.9,8.26,0,1.62.81,2.84,1.9,2.84,1.76,0,4.2-2.57,10.15-10.29l3,1.89C852.71,151.51,843.5,159.9,836.46,159.9Z"/><path d="M916.63,100.45H900.24l-6.9,28.17a57.59,57.59,0,0,0-2,11.78c0,2.71,1.36,4.2,3.53,4.2,3,0,6.36-3,12.59-11l3.25,2c-9.89,15.44-20.45,24.51-28.57,24.51-6,0-9.89-4.87-9.89-12.32,0-6,1.49-13.27,5.28-26.41l6.09-21h-11.1l1.63-5.14,13.13-4.07,14-19.63h6.23l-4.88,19.77h16.25Z"/><path d="M956.58,108c-2.44-7-7.18-11.92-11.65-11.92a5.29,5.29,0,0,0-5.42,5.15,7.49,7.49,0,0,0,1.63,4.46l2.71,3.8,7,9.88,3.52,4.88a17.64,17.64,0,0,1,3.11,10.29c0,13.95-11.91,25.46-26.27,25.46-10.16,0-17.47-5.42-17.47-12.87,0-3.52,1.36-6.63,4.34-10.29,3.92,6.64,12,12.19,18,12.19,3.52,0,6-2.3,6-5.42,0-2.16-.94-4.19-4.06-8.8l-5.55-8.12L928.81,121c-3-5-4.33-8.94-4.33-12.73,0-11.65,11.65-21.67,25.46-21.67,9.21,0,15.3,3.93,15.3,9.75C965.24,100.59,963.21,103.3,956.58,108Z"/></svg>