<svg id="Layer_1" data-name="Layer 1" xmlns="http://www.w3.org/2000/svg" viewBox="0 0 1024 265"><title>impression-polo</title><path d="M905.38,152.44c6.4,3.9,9.18,5,14.47,6.13a45.87,45.87,0,0,0,8.63.83c14.89,0,24.91-8.76,24.91-21.57,0-5.84-2.22-11-6-13.92a25.26,25.26,0,0,0-6.82-3.75c-1.67-.42-4.87-1.4-9.6-2.79-5.71-1.53-8.35-2.5-10.3-3.76a7,7,0,0,1-3.07-5.7c0-5,4.74-7.94,13-7.94a32.23,32.23,0,0,1,12,2.23,57,57,0,0,1,5.84,2.92l2.79-10c-5.57-3.2-8.08-4.17-13.09-5a46.3,46.3,0,0,0-7.51-.55c-15.59,0-25.05,7.51-25.05,19.76,0,5.43,2.08,10.16,5.56,12.94s5.71,3.76,16.84,6.82c10.72,2.93,13.5,5,13.5,10,0,6.13-5,9.61-13.36,9.61a31.7,31.7,0,0,1-13.91-3.07c-1.67-.83-3.07-1.67-6.13-3.47Zm-49.69-51.63H867.1v37.44c0,14.33,4.6,20.6,15.31,20.6,4.74,0,7.8-.7,14.9-3.62v-10c-5,1.95-7.38,2.64-10.3,2.64-5.43,0-7.38-2.92-7.38-11V100.81H898V91.62H879.63l.42-18.09-12.67,2.23-.28,15.86H855.69Zm-68.05,57.06H800.3V112.78c6.12-6.26,8.91-8.35,13.36-10a21.9,21.9,0,0,1,8.49-1.67c7.52,0,9.33,2.78,9.33,14v42.73h12.8v-44.4c0-10-.56-13.63-2.78-17.39-2.65-4.32-7.66-6.82-13.64-6.82-7.66,0-16.29,3.2-22.83,8.63a52.09,52.09,0,0,0-4.17,3.62l-.56,1.67-1-.28,1-1.81v-11l-12.66,2.23Zm-62.21-33.82c0-15.17,7.09-24.91,18-24.91,10.44,0,17.4,10.16,17.4,25.61,0,14.89-7,24.63-17.68,24.63s-17.67-9.88-17.67-25.33m-13.23.14c0,20.88,12.53,35.21,30.62,35.21S774,144.79,774,124.47c0-21.16-12.25-35.35-30.34-35.35-18.51,0-31.46,14.33-31.46,35.07m-35.35,33.68h12.67V100.81h17.54V91.62H689.52V90.23c0-10.16.42-13.08,2.64-15.59,1.67-1.94,4-2.78,7.24-2.78a32.23,32.23,0,0,1,7.1.84l1.81-9.33c-4.87-1.53-7-1.95-10.44-1.95-14.34,0-21,8.77-21,27.42v2.78H665.16v9.19h11.69Zm-31.59-40.22h-33c.55-5.15,1-7.38,2.5-10.3a18.92,18.92,0,0,1,2.65-3.62,16.24,16.24,0,0,1,12.11-4.87c5.28,0,9.74,2,12.24,5.57s3.07,6.26,3.48,13.22M651.94,142c-6,3.34-8.63,4.45-12.94,5.28a35.39,35.39,0,0,1-6.54.56c-8.49,0-14.89-3.62-18.09-10.3-1.26-2.78-1.67-5-2.09-10.3h45.93v-2.92c0-9.46-.56-13.5-2.65-18.79a27.52,27.52,0,0,0-5.43-8.77c-4.73-5.15-11.13-7.51-19.62-7.51-19.21,0-31.45,13.5-31.45,34.79s12.8,35.21,32,35.21a44.16,44.16,0,0,0,17.25-3.75,58.05,58.05,0,0,0,7-3.9ZM540.33,114c0-9,6.26-14.75,16-14.75s15.59,5.57,15.59,14.75c0,8.63-6.26,14.2-15.73,14.2s-15.86-5.71-15.86-14.2m52.74-23.38c-1.53-.14-3.06-.28-4.31-.28-4.46,0-7.1,1.53-11.69,6.54-4.6-4.17-7-5.29-12.11-6.4a46.89,46.89,0,0,0-8.91-.83c-17.26,0-28.53,9.6-28.53,24.21,0,6.13,2,11.55,5.57,15.17a59.86,59.86,0,0,0,5,4c-2.51,2.23-4.46,3.76-5.85,4.87-4.17,3.2-5.84,5.43-5.84,7.52,0,2.5,2.22,6.95,5.15,9.88,1.67,1.81,3.75,2.08,12.8,2.08h20.46c7.38,0,10.44,2.23,10.44,7.66,0,7.24-7.1,11.27-19.76,11.27s-19.77-4.17-19.77-11.69a11.65,11.65,0,0,1,.84-3.62l1.25-.14v-.69H525.57a18.84,18.84,0,0,0-1.25,6.26c0,12.39,11.41,19.49,31.18,19.49,20.73,0,32.56-7.8,32.56-21.58,0-4.87-1.67-9.6-4.31-12.24-3.48-3.48-7.93-4.6-17.54-4.6l-14.19.14c-2.65,0-5,0-7.52-.14a8.92,8.92,0,0,1-4.31-1,3.17,3.17,0,0,1-1.4-2.65c0-2.22,1.4-3.89,6.27-7.65a51.59,51.59,0,0,0,11.13,1.11c17.4,0,28.25-8.63,28.25-22.82,0-4.59-.55-6.82-3.06-12,2.51-1.11,3.76-1.53,5.15-1.53a13.75,13.75,0,0,1,3.76.69l2.78.84ZM482.43,157.87h12.94V111.94c6-7.09,9.88-9.32,17.12-9.32a32.59,32.59,0,0,1,6.54.83v.7h.56l1.67-13.36a23.65,23.65,0,0,0-6.27-1c-7.09,0-13.08,3.48-19.06,11.28l-.56,1.39-.7-.14.7-1.67V89.81l-12.94,2.37Zm-29.37,0h11.42a81.14,81.14,0,0,1-.84-11.83V89.81l-12.53,2.37V136c-4.45,6.54-6.95,8.77-12.1,10.86a19.24,19.24,0,0,1-6.82,1.25c-3.62,0-6.41-1.39-7.94-3.62-1.53-2.5-1.95-5-1.95-11.13V89.81l-12.66,2.37v41.34c0,10.57,1.11,15.58,4.45,19.62s8.08,6,14.34,6c8.63,0,14.89-3.06,22.68-11.27l.42-1.81h.7l-.56,2.37ZM349,137.55V112.78c4-6.12,6.26-8.35,10.44-10.44a19.36,19.36,0,0,1,7.79-1.81c9.61,0,15.45,8.91,15.45,23.8,0,14.61-6.54,23.66-17,23.66a18.85,18.85,0,0,1-13.22-5.57,51.52,51.52,0,0,1-3.48-4.87m-2.09,20.32,1.26-8.07-.42-2h1l.28,2c4.18,4.87,6.26,6.54,10.86,8.07a25.07,25.07,0,0,0,8.49,1.39c16.28,0,27.41-14.19,27.41-35.21s-10-34.65-25.47-34.65A24.35,24.35,0,0,0,358,92.6c-3.34,1.81-5,3.2-8.49,7.24l-.56,1.8-.83-.27.83-2V60.87l-12.53,2.36v82a91,91,0,0,1-.69,12.66Zm-123.86,0h12.66V113.06c5.57-6.13,8.35-8.35,12.8-10.3a18.22,18.22,0,0,1,7.8-1.81c3.34,0,5.84,1.39,6.82,3.48s1.11,4,1.11,10.3v43.14h12.67V112.64c5.15-5.85,7.65-7.79,12.8-9.88a20.07,20.07,0,0,1,7.79-1.67,7.18,7.18,0,0,1,7.1,4.59c.7,2.23,1,4,1,9.46v42.73h12.8V111.39c0-9.19-.56-12.39-2.64-15.87-2.65-4.31-6.82-6.26-13.09-6.26a32.66,32.66,0,0,0-14.47,3.62c-4.73,2.36-7.1,4.17-12,9.46l-.56,1.39h-.55l.55-2c-.55-5-1.53-7.09-3.75-9.18-2.51-2.37-5.71-3.34-10-3.34a29.47,29.47,0,0,0-13.78,3.62c-4.46,2.22-6.68,4-11.69,8.9l-.56,1.4h-.7l.56-1.4V90.09L223,92.32Zm-30.07-30.48v11c-4.59,5.15-6.82,6.82-11.55,8.49a21.29,21.29,0,0,1-7.65,1.39c-6.27,0-9.75-3.9-9.75-10.86,0-8.21,4.46-11.41,15.45-11.41a59.48,59.48,0,0,1,13.5,1.39m1.95,30.48h11.27c-.27-2.5-.55-4.31-.55-5.56-.14-1-.14-3.48-.14-7.38V113.47c0-9.88-1.11-14.19-4.87-18-4-4.17-10.16-6.26-18.51-6.26a54.86,54.86,0,0,0-18.79,3.2c-1.53.7-3.9,1.67-7.1,3.2l2.78,9.6c6.55-2.92,9.33-3.75,14.06-4.45a35.39,35.39,0,0,1,6.54-.56c10.3,0,13.36,3.06,13.36,13.5v4.46a57.67,57.67,0,0,0-15-1.81c-17.81,0-26.44,7.1-26.44,22,0,13.22,6.54,20.46,18.79,20.46a31,31,0,0,0,17.12-5c1.53-1.12,3.34-2.65,5.56-4.6l.7-1.67h.69l-.69,2Zm-124.28,0H84.25V115H122.8v42.86h13.5V64.76H122.8v38.55H84.25V64.76H70.61Z"/></svg>