<svg xmlns="http://www.w3.org/2000/svg" viewBox="0 0 850 265"><title>Kerning-01</title><g id="Layer_1" data-name="Layer 1"><path d="M53.27,70.39c5.95,0,8.93.41,14.49.41,3.11,0,10.15-.41,11.37-.41,2.57,0,3.39.68,3.39,1.62s-.82,1.76-3.66,2.58c-4.6,1.22-5,3.11-4.2,5.41,2.71,6.64,17.34,41.17,26.54,60.94a.64.64,0,0,0,1.09.14c1.08-1.76,7.18-14,11.64-24a2.35,2.35,0,0,0-.13-1.9c-5.15-12.32-11.38-26.27-13-29.79-3.93-8.26-4.74-9.34-10-10.83-2.44-.68-3.39-1.63-3.39-2.44,0-1.08,1.9-1.49,3.93-1.49,1.76,0,6.77.14,11.1.14,6.23,0,11.51-.41,12.87-.41,1.76,0,3.38.54,3.38,1.49,0,1.22-1.08,2.17-3.25,2.57-5.82,1.09-6.09,2.17-4.19,6.5,1.21,3.12,4.74,11.11,9.75,22.21.13.41.81.27,1.08,0,3.25-6.63,5.82-12.32,8.53-18.55,3.39-7.45,1.36-9.07-4.2-10.43-1.62-.41-2.84-1.49-2.84-2,0-1,.81-1.63,3.93-1.63,2.43,0,5,.28,9.48.28,4.06,0,8.8-.28,11.1-.28,1.76,0,3,.41,3,1.36,0,1.35-1.08,1.89-3.79,2.57-4.88,1.22-6.77,3-10.56,9.75-1.36,2.3-5,8.67-12.87,24.11a4.34,4.34,0,0,0,.41,2.3c4.87,11.51,11,24.78,13.54,29.52.27.81.81,1.22,1.49,0,5.82-12.46,16.79-37.1,24.78-55.25,2.57-6.23,1.9-8.8-4.33-10.56-1.76-.55-3.12-1.36-3.12-2.17,0-1.22,1.22-1.63,3.52-1.63,3.12,0,6.64.28,9.21.28,4.06,0,8.67-.41,12.87-.41,2.3,0,3.52.54,3.52,1.49s-1,1.89-3.39,2.44c-5.28,1.08-7.85,3-11.64,10.29-1.63,3.25-10.57,19.91-19.5,40.08-9.21,21-10,22.89-13.68,32-.54,1.36-2.3,3.12-3.52,3.12-.54,0-1.36-.27-2-2.58-2-7.44-9.62-23.15-14.49-34.53-.28-.4-.82-.67-1.09-.27-4.2,8.8-12.19,24.78-15.71,35.08-.54,1.49-2.3,3.11-3.11,3.11-1.09,0-1.63-.54-2.44-2.57-1.35-3.79-3.11-9.08-8.4-21.53C81.7,124.29,69,94.77,64.1,85.29c-3.52-6.5-3.93-9.48-10.83-11-1.63-.27-3.53-1.22-3.53-2.44C49.74,71.2,51.1,70.39,53.27,70.39Z"/><path d="M228.09,108.44a15.2,15.2,0,0,1,4.74,11.38,2.75,2.75,0,0,1-2.57,2.3c-1.49,0-24.65,0-30.88-.13-.4,0-.95.67-1.08,1.08a17.22,17.22,0,0,0-.68,4.74,27.74,27.74,0,0,0,5.15,15.44,19.23,19.23,0,0,0,15.17,7.44c5.95,0,10-1.48,12.32-4.87.54-.81,1.22-1.63,1.76-1.63.81,0,1.08.95,1.08,1.63a7.62,7.62,0,0,1-.95,3.25,23.08,23.08,0,0,1-19.63,10.16c-14.63,0-24.38-11.11-24.38-26.95,0-10.84,5.69-21.67,16.25-26.55a28.64,28.64,0,0,1,10.3-2.43C219.43,103.3,224.71,105.06,228.09,108.44Zm-28.44,8.4c-.27.68.27,1.49.55,1.49,3.52.13,10.69.13,17.46,0,3.26,0,4.61-.68,4.61-3.39,0-3.79-4.06-8.12-8.94-8.12C207.24,106.82,202.09,110.61,199.65,116.84Z"/><path d="M244.21,66.6c6.23-2.17,10.29-3,13.94-5.28.41-.28,1.22.81,1.22,1.35-.4,3.39-1.22,18.69-1.22,36.83,0,19.78-.27,45.64.41,49.3.54,2.71,1.08,4.33,6.91,6,2,.54,3.11,1.22,3.11,2s-1.89,1.49-3.52,1.49c-3.25,0-9.07-.41-11.51-.41-3.11,0-9.07.41-11.92.41s-3.79-.41-3.79-1.49,1.49-1.63,3-1.9c6.23-1.35,6.5-3.79,6.91-10.56.27-5.15.94-19.77.94-41.17,0-10-.4-24.24-.4-28.3,0-1.09-.14-1.9-3.25-3.79-2.3-1.63-2.71-2-2.71-2.58S242.72,67,244.21,66.6Z"/><path d="M308.67,104.52c.13,0,1.48.67,1.48,1.08a46.35,46.35,0,0,1,.41,5.15c0,1.21-2.57,1.48-3.52,1.48H292.28a1.35,1.35,0,0,0-1.22,1c-.14,2.71-.27,22.62-.27,29.12,0,3.38.81,5.14,2.3,6.63,2.57,2.31,5.42,2.58,8.26,2.58a15,15,0,0,0,6.64-2c1.22-.68,1.49-.82,2-.82.13,0,.81.27.81,1.49a5.79,5.79,0,0,1-1.89,3.39,20.33,20.33,0,0,1-14.49,6c-5.56,0-10.3-3.39-11.92-6.37-1.49-2.3-1.76-5.14-1.76-8.94,0-5,.54-25.32.54-30.06,0-.95-2.44-1.9-5.15-2.71-1.08-.4-1.89-1.08-1.89-1.49a2.35,2.35,0,0,1,.81-1.49c4.74-3.79,8.94-7,10.83-9.34,1.63-1.9,2.58-3,3.12-3a3.13,3.13,0,0,1,1.89,1.49V104a1.3,1.3,0,0,0,1.09,1.09C295,105.06,308.12,104.52,308.67,104.52Z"/><path d="M343.47,150.83a8.42,8.42,0,0,1-8.4,8.67,8.21,8.21,0,0,1-8.4-8.67c0-6.23,5.83-8.53,8.54-8.53C341.3,142.3,343.47,147.71,343.47,150.83Zm-.82-64.6c-.27,3.8-4.33,38.06-4.6,40.63-.14,1.76-1.22,4.88-2.71,4.88-1.22,0-2.57-2.31-2.71-5.42-.27-3.66-3.79-29.25-4.6-40.36-.54-8.26,4.87-11,7.31-11C340.62,75,342.79,81.22,342.65,86.23Z"/></g></svg>