<svg xmlns="http://www.w3.org/2000/svg" viewBox="0 0 850 265"><title>Kerning-05</title><g id="Layer_1" data-name="Layer 1"><path d="M416.33,70.39c6,0,8.94.41,14.49.41,3.12,0,10.16-.41,11.38-.41,2.57,0,3.38.68,3.38,1.62s-.81,1.76-3.66,2.58c-4.6,1.22-5,3.11-4.19,5.41,2.71,6.64,17.33,41.17,26.54,60.94a.63.63,0,0,0,1.08.14c1.09-1.76,7.18-14,11.65-24a2.41,2.41,0,0,0-.14-1.9c-5.14-12.32-11.37-26.27-13-29.79-3.92-8.26-4.74-9.34-10-10.83-2.44-.68-3.38-1.63-3.38-2.44,0-1.08,1.89-1.49,3.92-1.49,1.76,0,6.77.14,11.11.14,6.23,0,11.51-.41,12.86-.41,1.76,0,3.39.54,3.39,1.49,0,1.22-1.08,2.17-3.25,2.57-5.82,1.09-6.1,2.17-4.2,6.5,1.22,3.12,4.74,11.11,9.75,22.21.14.41.81.27,1.08,0,3.26-6.63,5.83-12.32,8.54-18.55,3.38-7.45,1.35-9.07-4.2-10.43-1.63-.41-2.85-1.49-2.85-2,0-1,.82-1.63,3.93-1.63,2.44,0,5,.28,9.48.28,4.06,0,8.8-.28,11.1-.28,1.77,0,3,.41,3,1.36,0,1.35-1.08,1.89-3.79,2.57-4.87,1.22-6.77,3-10.56,9.75-1.35,2.3-5,8.67-12.87,24.11a4.44,4.44,0,0,0,.41,2.3c4.88,11.51,11,24.78,13.54,29.52.27.81.82,1.22,1.49,0,5.83-12.46,16.8-37.1,24.79-55.25,2.57-6.23,1.89-8.8-4.34-10.56-1.76-.55-3.11-1.36-3.11-2.17,0-1.22,1.22-1.63,3.52-1.63,3.11,0,6.63.28,9.21.28,4.06,0,8.66-.41,12.86-.41,2.3,0,3.52.54,3.52,1.49s-.95,1.89-3.38,2.44c-5.28,1.08-7.86,3-11.65,10.29-1.62,3.25-10.56,19.91-19.5,40.08-9.21,21-10,22.89-13.68,32-.54,1.36-2.3,3.12-3.52,3.12-.54,0-1.35-.27-2-2.58-2-7.44-9.61-23.15-14.49-34.53-.27-.4-.81-.67-1.08-.27-4.2,8.8-12.19,24.78-15.71,35.08-.54,1.49-2.3,3.11-3.12,3.11-1.08,0-1.62-.54-2.43-2.57-1.36-3.79-3.12-9.08-8.4-21.53-5-12.19-17.74-41.71-22.62-51.19-3.52-6.5-3.92-9.48-10.83-11-1.62-.27-3.52-1.22-3.52-2.44C412.81,71.2,414.16,70.39,416.33,70.39Z"/><path d="M595.36,70.8c4.47,0,10.43-.14,12.46-.41.4-.14,1.08.81,1.22,1.49,0,6.23.27,10.16.27,12.86,0,1.9-.82,3.52-2,3.52s-1.89-1.89-2.16-3.25c-1.76-7.17-4.74-8.53-9.08-9.2a137.64,137.64,0,0,0-19.23-.55c-.27,0-1.76.68-2,3.8-.27,3.38-.67,28.84-.4,30.87.13.54.27,1.36.94,1.36h8.81c12.73,0,13.27-.54,15.71-6.77.81-2,1.62-2.85,2.43-2.85s1.22,1.9,1.09,3c-.27,3.79-.41,6.5-.41,9.75,0,3.66.27,5.55.41,8.26.13,2.44-.55,3.93-1.49,3.93s-1.9-1.49-2.31-3c-1.89-6.23-2.43-6.64-10.69-7-4.34-.27-9.75-.27-13.41-.27-.54,0-1.22,1-1.22,1.22-.54,2.84-.4,15.43-.4,21.26,0,3.93.54,9.07,1.35,11.24a4.47,4.47,0,0,0,2.57,3,77.47,77.47,0,0,0,12.33.94c1.62,0,9.88-.13,12.86-.94,4.33-1.09,8-3.66,11.24-10,1.49-3,2.3-3.8,3.11-3.8s1.36,2.17,1.09,3.66c-.14,1.08-3.93,13.27-4.88,14.49-.4.54-1.62,1.63-2.3,1.63-1.49,0-21.94-1.09-44-1.09-7.18,0-10.16.68-15.3.68-2.58,0-4.07-.27-4.07-1.76,0-.95,1.63-1.63,3.8-2.17,6.77-1.62,9.34-2.57,9.88-9.88.41-5.69,1.08-21.67,1.08-38.46,0-16.12.14-19-.13-22.89-.27-6-1.63-7.58-7.58-8.94-2.85-.68-3.93-1.22-3.93-2.3s1.89-1.9,3.79-1.9c6.37,0,11.65.55,20.72.55Z"/><path d="M632.32,70.52c3.66,0,6.1.28,10,.28,5.28,0,14.48-.41,17.74-.41,2.43,0,3.38.54,3.38,1.49s-1.08,1.76-3.11,2.3c-7.86,1.76-8.81,3.25-9.08,5.28-.81,6.1-.81,19.77-.81,39.82,0,10.56.41,23.56.95,28,.27,1.9,3.52,5,4.6,5.15a95.87,95.87,0,0,0,13,.67,88.52,88.52,0,0,0,9.62-.4c1.08-.14,2.71-.14,5.41-2.58a57.62,57.62,0,0,0,7.72-9.07c1.49-2.44,2.71-3,3.39-3s1.08,1.49.54,3.66a122.31,122.31,0,0,0-4.2,14.62c-.13,1.49-2.71,2.3-3.25,2.3-1.62,0-14-.81-41.44-.81-9.2,0-15.57.68-17.47.68-2.57,0-3.92-.27-3.92-1.49,0-.95,1.08-2,3.25-2.44,7.45-1.49,9.34-4.06,10-9.34.27-3.39.68-24.92.68-44.56,0-5.41,0-14.76-.14-19.23-.14-3-.81-5.55-7.18-6.77-2.71-.54-3.79-1.62-3.79-2.57S629.34,70.52,632.32,70.52Z"/><path d="M763.82,70.66c4.87-.27,7.31-1.08,9.21-2.44.94-.54,1.35-.81,1.89-.81s1.22,1.22.54,3.11a76.79,76.79,0,0,0-3,15.44c-.13,1.22-1.21,2.58-2.3,2.58s-1.49-1-1.89-4.34c-.82-7-2.58-7.72-11-8.12-2.3-.14-17.34-.14-19,.27-.68.13-1.22,1.49-1.22,1.76v33.18c0,15.71,0,28.57.54,33.58.68,6.09,1.36,7.72,9.75,9.62,1.76.4,3.66,1.49,3.66,2.43,0,1.49-2.44,1.63-3.79,1.63-1.09,0-9.48-.68-15.44-.68-6.77,0-13.68.95-15.44.95-2.71,0-4.06-.81-4.06-1.63s1.35-2,2.57-2.3c9.48-2.16,9.75-4.47,10.16-14.62.27-8,.95-35.62.95-46.05V78.11c0-1.09-.68-1.76-1.09-1.76-2.71-.41-14.62-.68-16.79-.68-5.15,0-8,.81-10,3.12-.54.4-2.17,2.57-4.47,7-1.22,2.84-2,2.71-2.57,2.71-.82,0-1.36-1.76-1.36-3.12,0-2.57,2.57-9.88,2.57-17.87a2.6,2.6,0,0,1,2-2.17c.67,0,.67,1,2.16,2.17.41.4,2.58,2.43,4.61,2.57,3.52.4,14.35.81,31.69.81C739.85,70.93,758.27,70.8,763.82,70.66Z"/><path d="M53.27,70.39c5.95,0,8.93.41,14.49.41,3.11,0,10.15-.41,11.37-.41,2.57,0,3.39.68,3.39,1.62s-.82,1.76-3.66,2.58c-4.6,1.22-5,3.11-4.2,5.41,2.71,6.64,17.34,41.17,26.55,60.94a.63.63,0,0,0,1.08.14c1.08-1.76,7.18-14,11.64-24a2.35,2.35,0,0,0-.13-1.9c-5.15-12.32-11.38-26.27-13-29.79-3.93-8.26-4.74-9.34-10-10.83-2.44-.68-3.39-1.63-3.39-2.44,0-1.08,1.9-1.49,3.93-1.49,1.76,0,6.77.14,11.1.14,6.23,0,11.51-.41,12.87-.41,1.76,0,3.38.54,3.38,1.49,0,1.22-1.08,2.17-3.25,2.57-5.82,1.09-6.09,2.17-4.19,6.5,1.22,3.12,4.74,11.11,9.75,22.21.13.41.81.27,1.08,0,3.25-6.63,5.82-12.32,8.53-18.55,3.39-7.45,1.36-9.07-4.2-10.43-1.62-.41-2.84-1.49-2.84-2,0-1,.81-1.63,3.93-1.63,2.43,0,5,.28,9.48.28,4.06,0,8.8-.28,11.1-.28,1.76,0,3,.41,3,1.36,0,1.35-1.08,1.89-3.79,2.57-4.88,1.22-6.77,3-10.56,9.75-1.36,2.3-5,8.67-12.87,24.11a4.44,4.44,0,0,0,.41,2.3c4.87,11.51,11,24.78,13.54,29.52.27.81.81,1.22,1.49,0,5.82-12.46,16.79-37.1,24.78-55.25,2.57-6.23,1.9-8.8-4.33-10.56-1.76-.55-3.12-1.36-3.12-2.17,0-1.22,1.22-1.63,3.52-1.63,3.12,0,6.64.28,9.21.28,4.06,0,8.67-.41,12.87-.41,2.3,0,3.52.54,3.52,1.49s-1,1.89-3.39,2.44c-5.28,1.08-7.85,3-11.64,10.29-1.63,3.25-10.57,19.91-19.5,40.08-9.21,21-10,22.89-13.68,32-.54,1.36-2.3,3.12-3.52,3.12-.54,0-1.36-.27-2-2.58-2-7.44-9.62-23.15-14.49-34.53-.28-.4-.82-.67-1.09-.27-4.2,8.8-12.19,24.78-15.71,35.08-.54,1.49-2.3,3.11-3.11,3.11-1.09,0-1.63-.54-2.44-2.57-1.35-3.79-3.11-9.08-8.4-21.53C81.7,124.29,69,94.77,64.1,85.29c-3.52-6.5-3.93-9.48-10.83-11-1.63-.27-3.53-1.22-3.53-2.44C49.74,71.2,51.1,70.39,53.27,70.39Z"/><path d="M211.71,108.44a15.2,15.2,0,0,1,4.74,11.38,2.75,2.75,0,0,1-2.57,2.3c-1.49,0-24.65,0-30.88-.13-.41,0-.95.67-1.08,1.08a17.22,17.22,0,0,0-.68,4.74,27.81,27.81,0,0,0,5.14,15.44,19.23,19.23,0,0,0,15.17,7.44c6,0,10-1.48,12.33-4.87.54-.81,1.21-1.63,1.76-1.63.81,0,1.08.95,1.08,1.63a7.62,7.62,0,0,1-.95,3.25,23.11,23.11,0,0,1-19.64,10.16c-14.62,0-24.37-11.11-24.37-26.95,0-10.84,5.69-21.67,16.25-26.55a28.64,28.64,0,0,1,10.29-2.43C203,103.3,208.32,105.06,211.71,108.44Zm-28.44,8.4c-.27.68.27,1.49.54,1.49,3.52.13,10.7.13,17.47,0,3.25,0,4.61-.68,4.61-3.39,0-3.79-4.07-8.12-8.94-8.12C190.85,106.82,185.71,110.61,183.27,116.84Z"/><path d="M227.82,66.6c6.23-2.17,10.3-3,14-5.28.41-.28,1.22.81,1.22,1.35-.41,3.39-1.22,18.69-1.22,36.83,0,19.78-.27,45.64.41,49.3.54,2.71,1.08,4.33,6.9,6,2,.54,3.12,1.22,3.12,2s-1.9,1.49-3.52,1.49c-3.25,0-9.08-.41-11.51-.41-3.12,0-9.08.41-11.92.41s-3.79-.41-3.79-1.49,1.49-1.63,3-1.9c6.23-1.35,6.5-3.79,6.9-10.56.28-5.15.95-19.77.95-41.17,0-10-.41-24.24-.41-28.3,0-1.09-.13-1.9-3.25-3.79-2.3-1.63-2.7-2-2.7-2.58S226.33,67,227.82,66.6Z"/><path d="M291.74,104.52c.14,0,1.49.67,1.49,1.08a46.35,46.35,0,0,1,.41,5.15c0,1.21-2.58,1.48-3.52,1.48H275.35a1.36,1.36,0,0,0-1.22,1c-.13,2.71-.27,22.62-.27,29.12,0,3.38.82,5.14,2.31,6.63,2.57,2.31,5.41,2.58,8.26,2.58a15,15,0,0,0,6.63-2c1.22-.68,1.49-.82,2-.82.14,0,.82.27.82,1.49a5.76,5.76,0,0,1-1.9,3.39,20.31,20.31,0,0,1-14.49,6c-5.55,0-10.29-3.39-11.92-6.37-1.49-2.3-1.76-5.14-1.76-8.94,0-5,.54-25.32.54-30.06,0-.95-2.43-1.9-5.14-2.71-1.08-.4-1.9-1.08-1.9-1.49a2.36,2.36,0,0,1,.82-1.49c4.73-3.79,8.93-7,10.83-9.34,1.62-1.9,2.57-3,3.11-3a3.16,3.16,0,0,1,1.9,1.49V104a1.29,1.29,0,0,0,1.08,1.09C278.06,105.06,291.2,104.52,291.74,104.52Z"/><path d="M329.38,150.83A8.41,8.41,0,0,1,321,159.5a8.21,8.21,0,0,1-8.4-8.67c0-6.23,5.83-8.53,8.53-8.53C327.22,142.3,329.38,147.71,329.38,150.83Zm-.81-64.6c-.27,3.8-4.33,38.06-4.6,40.63-.14,1.76-1.22,4.88-2.71,4.88-1.22,0-2.57-2.31-2.71-5.42-.27-3.66-3.79-29.25-4.6-40.36-.55-8.26,4.87-11,7.31-11C326.54,75,328.71,81.22,328.57,86.23Z"/></g></svg>