<svg xmlns="http://www.w3.org/2000/svg" viewBox="0 0 341 125"><title>Kerning-Class-03</title><g id="Layer_1" data-name="Layer 1"><path d="M58.94,33.76H37.73V93.87H23.48V33.76H2.16V21.07H58.94Zm-36.61,71a6,6,0,0,1,2-4.78,7.43,7.43,0,0,1,5.05-1.77,7.83,7.83,0,0,1,5.92,2.39,9.38,9.38,0,0,1,2.29,6.76,14.88,14.88,0,0,1-1.14,6,15.86,15.86,0,0,1-2.81,4.42,15.26,15.26,0,0,1-3.53,2.92,16.08,16.08,0,0,1-3.23,1.5l-3.53-5.61a13.49,13.49,0,0,0,2.91-2A5.14,5.14,0,0,0,28,111.14a5.26,5.26,0,0,1-3.85-1.51A6.23,6.23,0,0,1,22.33,104.79Z"/><path d="M120.09,33.76H98.88V93.87H84.63V33.76H63.31V21.07h56.78ZM96.17,17.22H86.4L73.19,7.45V3.39H84.11l5.51,4.68,2,3.12,2.18-3,5.83-4.79H110V7.55Z"/><path d="M181.24,33.76H160V93.87H145.78V33.76H124.46V21.07h56.78Z"/><path d="M193.93,71.1l1.87,8.11h.63L197.78,71l7.9-29.12h13.94L203.81,88.78q-2,5.82-3.79,10.66a48.8,48.8,0,0,1-4,8.37,19.06,19.06,0,0,1-4.83,5.46,10.46,10.46,0,0,1-6.3,1.92,18,18,0,0,1-8.63-1.77l2.5-10.81a8.46,8.46,0,0,0,3.12.62,6.86,6.86,0,0,0,4.63-2c1.49-1.35,2.61-3.79,3.38-7.33l-21.74-52h16.22Z"/><path d="M247.91,71.1l1.87,8.11h.62L251.75,71l7.91-29.12h13.93l-15.8,46.91q-2,5.82-3.8,10.66a48.8,48.8,0,0,1-4,8.37,19.08,19.08,0,0,1-4.84,5.46,10.45,10.45,0,0,1-6.29,1.92,17.92,17.92,0,0,1-8.63-1.77l2.49-10.81a8.46,8.46,0,0,0,3.12.62,6.82,6.82,0,0,0,4.63-2q2.24-2,3.38-7.33l-21.74-52h16.23ZM249.47,19h13.72v3.12L251.65,35H244Z"/><path d="M301.88,71.1l1.87,8.11h.63L305.73,71l7.9-29.12h13.94L311.76,88.78q-2,5.82-3.8,10.66a48.07,48.07,0,0,1-4,8.37,19.08,19.08,0,0,1-4.84,5.46,10.41,10.41,0,0,1-6.29,1.92,18,18,0,0,1-8.63-1.77l2.5-10.81a8.46,8.46,0,0,0,3.12.62,6.82,6.82,0,0,0,4.62-2q2.24-2,3.38-7.33l-21.73-52h16.22Zm-18-44.93a7.05,7.05,0,0,1,2-5.31,7.35,7.35,0,0,1,5.35-2,7,7,0,0,1,5.25,2,7.27,7.27,0,0,1,1.93,5.31,6.72,6.72,0,0,1-7.18,7.07,7.32,7.32,0,0,1-5.35-2A6.75,6.75,0,0,1,283.89,26.17Zm22.77,0a7.27,7.27,0,0,1,1.93-5.31,7,7,0,0,1,5.25-2,7.39,7.39,0,0,1,5.36,2,7.08,7.08,0,0,1,2,5.31,6.78,6.78,0,0,1-2,5.09,7.36,7.36,0,0,1-5.36,2,6.72,6.72,0,0,1-7.18-7.07Z"/></g></svg>