<svg xmlns="http://www.w3.org/2000/svg" viewBox="0 0 98 125"><defs><style>.cls-1{fill:#ff0;}</style></defs><title>Kerning-Class-02</title><g id="bg"><rect class="cls-1" x="45" y="17" width="15" height="101"/></g><g id="Layer_1" data-name="Layer 1"><path d="M58.94,33.76H37.73V93.87H23.48V33.76H2.16V21.07H58.94Z"/><path d="M71.63,71.1l1.87,8.11h.63L75.48,71l7.9-29.12H97.32L81.51,88.78q-2,5.82-3.79,10.66a48.8,48.8,0,0,1-4,8.37,19.06,19.06,0,0,1-4.83,5.46,10.46,10.46,0,0,1-6.3,1.92A18,18,0,0,1,54,113.42l2.5-10.81a8.46,8.46,0,0,0,3.12.62,6.86,6.86,0,0,0,4.63-2c1.49-1.35,2.61-3.79,3.38-7.33l-21.74-52H62.06Z"/></g></svg>