<svg xmlns="http://www.w3.org/2000/svg" viewBox="0 0 805 125"><title>Kerning-Class-04</title><g id="Layer_1" data-name="Layer 1"><path d="M51.45,67.87q0-13.2,6.45-20.33T76,40.42a27.29,27.29,0,0,1,10.82,2A20.16,20.16,0,0,1,94.4,48a23.66,23.66,0,0,1,4.52,8.68,39.31,39.31,0,0,1,1.51,11.23q0,13.22-6.39,20.33T76,95.33a27.06,27.06,0,0,1-10.81-2,20.59,20.59,0,0,1-7.65-5.56A23.35,23.35,0,0,1,53,79.1,39.26,39.26,0,0,1,51.45,67.87Zm13.93,0A30,30,0,0,0,66,74.22a17.48,17.48,0,0,0,1.87,5.09,8.89,8.89,0,0,0,3.28,3.38A9.31,9.31,0,0,0,76,83.89c3.54,0,6.17-1.28,7.91-3.85s2.6-6.62,2.6-12.17q0-7.17-2.4-11.59T76,51.86a9.18,9.18,0,0,0-7.8,3.74Q65.38,59.35,65.38,67.87Z"/><path d="M107.29,67.87q0-13.2,6.45-20.33t18.1-7.12a27.24,27.24,0,0,1,10.81,2,20.27,20.27,0,0,1,7.6,5.57,23.82,23.82,0,0,1,4.52,8.68,39.67,39.67,0,0,1,1.51,11.23q0,13.22-6.4,20.33t-18,7.13a27.11,27.11,0,0,1-10.82-2,20.55,20.55,0,0,1-7.64-5.56,23.36,23.36,0,0,1-4.58-8.69A39.62,39.62,0,0,1,107.29,67.87Zm35.05-4.05q-.83-6.24-3.48-9.1a9.11,9.11,0,0,0-7-2.86,11.09,11.09,0,0,0-3.75.62,8.43,8.43,0,0,0-3.17,2,11.83,11.83,0,0,0-2.39,3.69,18.68,18.68,0,0,0-1.3,5.62Zm-21.11,8.52c.42,3.75,1.59,6.61,3.54,8.58a9.52,9.52,0,0,0,7.07,3,10.26,10.26,0,0,0,6.91-2.55q3-2.55,3.59-9Z"/><path d="M163.14,67.87q0-13.2,6.45-20.33t18.09-7.12a27.29,27.29,0,0,1,10.82,2A20.16,20.16,0,0,1,206.09,48a23.83,23.83,0,0,1,4.53,8.68,39.68,39.68,0,0,1,1.5,11.23q0,13.22-6.39,20.33t-18,7.13a27.06,27.06,0,0,1-10.81-2,20.67,20.67,0,0,1-7.65-5.56,23.35,23.35,0,0,1-4.57-8.69A39.26,39.26,0,0,1,163.14,67.87Zm31-32.86h-7.49l-12.89-12.9V19h14.14Zm-17,32.86a30.74,30.74,0,0,0,.62,6.35,17.77,17.77,0,0,0,1.87,5.09,9,9,0,0,0,3.28,3.38,9.31,9.31,0,0,0,4.83,1.2c3.54,0,6.17-1.28,7.91-3.85s2.6-6.62,2.6-12.17q0-7.17-2.39-11.59t-8.12-4.42a9.21,9.21,0,0,0-7.8,3.74Q177.08,59.35,177.08,67.87Z"/><path d="M219,67.87q0-13.2,6.45-20.33t18.09-7.12a27.29,27.29,0,0,1,10.82,2A20.16,20.16,0,0,1,261.94,48a23.66,23.66,0,0,1,4.52,8.68A39.31,39.31,0,0,1,268,67.87q0,13.22-6.39,20.33t-18,7.13a27.06,27.06,0,0,1-10.81-2,20.59,20.59,0,0,1-7.65-5.56,23.35,23.35,0,0,1-4.57-8.69A39.26,39.26,0,0,1,219,67.87Zm13.93,0a30,30,0,0,0,.63,6.35,17.48,17.48,0,0,0,1.87,5.09,8.89,8.89,0,0,0,3.28,3.38,9.31,9.31,0,0,0,4.83,1.2c3.54,0,6.17-1.28,7.91-3.85s2.6-6.62,2.6-12.17q0-7.17-2.4-11.59t-8.11-4.42a9.18,9.18,0,0,0-7.8,3.74Q232.93,59.35,232.92,67.87ZM244.16,19h13.72v3.12L246.34,35h-7.7Z"/><path d="M274.83,67.87q0-13.2,6.45-20.33t18.1-7.12a27.24,27.24,0,0,1,10.81,2,20.27,20.27,0,0,1,7.6,5.57,23.82,23.82,0,0,1,4.52,8.68,39.67,39.67,0,0,1,1.51,11.23q0,13.22-6.4,20.33t-18,7.13a27.11,27.11,0,0,1-10.82-2,20.55,20.55,0,0,1-7.64-5.56,23.36,23.36,0,0,1-4.58-8.69A39.62,39.62,0,0,1,274.83,67.87Zm20.6-50.13h8.94l11.54,18.93H305.2l-4.05-6.86-1.77-5.1-1.77,5.1-4.68,6.86h-10.3Zm-6.66,50.13a30.74,30.74,0,0,0,.62,6.35,17.48,17.48,0,0,0,1.88,5.09,8.94,8.94,0,0,0,3.27,3.38,9.34,9.34,0,0,0,4.84,1.2c3.53,0,6.17-1.28,7.9-3.85s2.6-6.62,2.6-12.17q0-7.17-2.39-11.59t-8.11-4.42a9.18,9.18,0,0,0-7.8,3.74Q288.77,59.35,288.77,67.87Z"/><path d="M330.68,67.87q0-13.2,6.45-20.33t18.09-7.12a27.29,27.29,0,0,1,10.82,2A20.16,20.16,0,0,1,373.63,48a23.83,23.83,0,0,1,4.53,8.68,39.67,39.67,0,0,1,1.51,11.23q0,13.22-6.4,20.33t-18,7.13a27.06,27.06,0,0,1-10.81-2,20.67,20.67,0,0,1-7.65-5.56,23.35,23.35,0,0,1-4.57-8.69A39.26,39.26,0,0,1,330.68,67.87Zm7.38-42.43a21.64,21.64,0,0,1,6-5.3,11.3,11.3,0,0,1,5.26-1.46,11.12,11.12,0,0,1,4,.73c1.28.48,2.55,1,3.8,1.56s2.46,1.07,3.64,1.56a9.57,9.57,0,0,0,3.64.73,7.65,7.65,0,0,0,3-.63,10.81,10.81,0,0,0,3.17-2.18l2.08,7.28A19.59,19.59,0,0,1,367,32.3a11.12,11.12,0,0,1-4.94,1.25,12.48,12.48,0,0,1-4.06-.67c-1.32-.45-2.6-1-3.85-1.51s-2.49-1.06-3.74-1.51a11,11,0,0,0-3.74-.68,8.6,8.6,0,0,0-3.23.68A11.39,11.39,0,0,0,340,32.2Zm6.56,42.43a30.74,30.74,0,0,0,.62,6.35,17.77,17.77,0,0,0,1.87,5.09,9,9,0,0,0,3.28,3.38,9.31,9.31,0,0,0,4.83,1.2c3.54,0,6.17-1.28,7.91-3.85s2.6-6.62,2.6-12.17q0-7.17-2.39-11.59t-8.12-4.42a9.21,9.21,0,0,0-7.8,3.74Q344.62,59.35,344.62,67.87Z"/><path d="M386.53,67.87q0-13.2,6.45-20.33t18.09-7.12a27.29,27.29,0,0,1,10.82,2A20.16,20.16,0,0,1,429.48,48,23.66,23.66,0,0,1,434,56.64a39.31,39.31,0,0,1,1.51,11.23q0,13.22-6.39,20.33t-18.05,7.13a27.06,27.06,0,0,1-10.81-2,20.59,20.59,0,0,1-7.65-5.56A23.35,23.35,0,0,1,388,79.1,39.26,39.26,0,0,1,386.53,67.87Zm5.93-41.7a7.08,7.08,0,0,1,2-5.31,7.39,7.39,0,0,1,5.36-2,7,7,0,0,1,5.25,2A7.31,7.31,0,0,1,407,26.17a6.72,6.72,0,0,1-7.18,7.07,7.36,7.36,0,0,1-5.36-2A6.78,6.78,0,0,1,392.46,26.17Zm8,41.7a30,30,0,0,0,.63,6.35A17.48,17.48,0,0,0,403,79.31a8.89,8.89,0,0,0,3.28,3.38,9.31,9.31,0,0,0,4.83,1.2c3.54,0,6.17-1.28,7.91-3.85s2.6-6.62,2.6-12.17q0-7.17-2.4-11.59t-8.11-4.42a9.18,9.18,0,0,0-7.8,3.74Q400.47,59.35,400.46,67.87Zm14.77-41.7a7.27,7.27,0,0,1,1.93-5.31,7,7,0,0,1,5.25-2,7.35,7.35,0,0,1,5.35,2,7.05,7.05,0,0,1,2,5.31,6.75,6.75,0,0,1-2,5.09,7.32,7.32,0,0,1-5.35,2,6.72,6.72,0,0,1-7.18-7.07Z"/><path d="M442.37,67.87q0-13.2,6.4-20.33t18-7.12A30.89,30.89,0,0,1,473,41a22.5,22.5,0,0,1,5.2,1.71l2.5-3.53L489,45.3l-2.81,4A24.38,24.38,0,0,1,490,57.52a40.68,40.68,0,0,1,1.24,10.35q0,13.22-6.39,20.33t-18.05,7.13a29.34,29.34,0,0,1-6.5-.68,27.77,27.77,0,0,1-5.46-1.82l-2.6,3.54-8.63-6.24,3.23-4.47a24.35,24.35,0,0,1-3.38-8A41.74,41.74,0,0,1,442.37,67.87Zm13.94,0a34.93,34.93,0,0,0,.62,6.76l15.29-21.21a10,10,0,0,0-13.15,2.18Q456.31,59.35,456.31,67.87Zm21,0a32.42,32.42,0,0,0-.83-7.38L461,82a8.93,8.93,0,0,0,5.82,1.87c3.54,0,6.17-1.28,7.91-3.85S477.32,73.42,477.32,67.87Z"/><path d="M498.12,67.87q0-13.2,6.45-20.33t18.09-7.12a27.29,27.29,0,0,1,10.82,2A20.16,20.16,0,0,1,541.07,48a23.66,23.66,0,0,1,4.52,8.68,39.31,39.31,0,0,1,1.51,11.23q0,13.22-6.39,20.33t-18.05,7.13a27.06,27.06,0,0,1-10.81-2,20.59,20.59,0,0,1-7.65-5.56,23.35,23.35,0,0,1-4.57-8.69A39.26,39.26,0,0,1,498.12,67.87Zm15.29-46.8h12.37v1.67l-7.9,11.75h-8.11Zm-1.36,46.8a30,30,0,0,0,.63,6.35,17.48,17.48,0,0,0,1.87,5.09,8.89,8.89,0,0,0,3.28,3.38,9.31,9.31,0,0,0,4.83,1.2c3.54,0,6.17-1.28,7.91-3.85s2.6-6.62,2.6-12.17q0-7.17-2.4-11.59t-8.11-4.42a9.18,9.18,0,0,0-7.8,3.74Q512.06,59.35,512.05,67.87Zm19.87-46.8H545v1.67L532.75,34.49h-8.42Z"/><path d="M554,67.87q0-13.2,6.45-20.33t18.1-7.12a27.24,27.24,0,0,1,10.81,2,20.27,20.27,0,0,1,7.6,5.57,23.82,23.82,0,0,1,4.52,8.68A39.67,39.67,0,0,1,603,67.87q0,13.22-6.4,20.33t-18,7.13a27.11,27.11,0,0,1-10.82-2,20.55,20.55,0,0,1-7.64-5.56,23.36,23.36,0,0,1-4.58-8.69A39.62,39.62,0,0,1,554,67.87ZM559.68,28a7.05,7.05,0,0,1,2-5.3,7.34,7.34,0,0,1,5.36-2,7,7,0,0,1,5.25,2,7.26,7.26,0,0,1,1.92,5.3,6.69,6.69,0,0,1-7.17,7.07,7.38,7.38,0,0,1-5.36-2A6.82,6.82,0,0,1,559.68,28Zm8.22,39.83a30.74,30.74,0,0,0,.62,6.35,17.48,17.48,0,0,0,1.88,5.09,8.94,8.94,0,0,0,3.27,3.38,9.34,9.34,0,0,0,4.84,1.2c3.53,0,6.17-1.28,7.9-3.85s2.6-6.62,2.6-12.17q0-7.17-2.39-11.59t-8.11-4.42a9.18,9.18,0,0,0-7.8,3.74Q567.91,59.35,567.9,67.87ZM582.46,28a7.26,7.26,0,0,1,1.92-5.3,7,7,0,0,1,5.26-2,7.33,7.33,0,0,1,5.35,2,7.05,7.05,0,0,1,2,5.3,6.82,6.82,0,0,1-2,5.1,7.37,7.37,0,0,1-5.35,2A6.69,6.69,0,0,1,582.46,28Z"/><path d="M609.81,67.87q0-13.2,6.45-20.33t18.09-7.12a27.29,27.29,0,0,1,10.82,2A20.16,20.16,0,0,1,652.76,48a23.83,23.83,0,0,1,4.53,8.68,39.68,39.68,0,0,1,1.5,11.23q0,13.22-6.39,20.33t-18,7.13a27.09,27.09,0,0,1-10.81-2,20.67,20.67,0,0,1-7.65-5.56,23.35,23.35,0,0,1-4.57-8.69A39.26,39.26,0,0,1,609.81,67.87ZM615.74,28a7.05,7.05,0,0,1,2-5.3,7.32,7.32,0,0,1,5.35-2,7,7,0,0,1,5.26,2A7.26,7.26,0,0,1,630.3,28a6.69,6.69,0,0,1-7.18,7.07,7.35,7.35,0,0,1-5.35-2A6.82,6.82,0,0,1,615.74,28Zm29.12,35.78q-.84-6.24-3.48-9.1a9.12,9.12,0,0,0-7-2.86,11.08,11.08,0,0,0-3.74.62,8.43,8.43,0,0,0-3.17,2,11.66,11.66,0,0,0-2.39,3.69,18.68,18.68,0,0,0-1.3,5.62Zm-21.11,8.52q.62,5.63,3.53,8.58a9.53,9.53,0,0,0,7.07,3,10.28,10.28,0,0,0,6.92-2.55q3-2.55,3.59-9ZM638.51,28a7.27,7.27,0,0,1,1.93-5.3,7,7,0,0,1,5.25-2,7.34,7.34,0,0,1,5.36,2,7.05,7.05,0,0,1,2,5.3,6.82,6.82,0,0,1-2,5.1,7.38,7.38,0,0,1-5.36,2A6.71,6.71,0,0,1,638.51,28Z"/><path d="M707.05,87.63a19.52,19.52,0,0,1-6.71,5.57,21.86,21.86,0,0,1-10.14,2.13,27.06,27.06,0,0,1-10.81-2,20.59,20.59,0,0,1-7.65-5.56,23.35,23.35,0,0,1-4.57-8.69,39.26,39.26,0,0,1-1.51-11.23q0-13.2,6.45-20.33t18.09-7.12q6.87,0,11,2.34a24,24,0,0,1,6.55,5.14,20.48,20.48,0,0,1,6.6-5.25,23.13,23.13,0,0,1,10.87-2.23,28.43,28.43,0,0,1,7.7,1,17.79,17.79,0,0,1,6.65,3.43,16.84,16.84,0,0,1,4.68,6.45,25.21,25.21,0,0,1,1.77,10.08,46.14,46.14,0,0,1-.26,4.68c-.17,1.67-.43,3.4-.78,5.2h-31.3q.3,6.56,3.43,9.88t10,3.33a22.1,22.1,0,0,0,12.79-4l4.48,8.84a26.49,26.49,0,0,1-8.48,4.21,36.94,36.94,0,0,1-11.39,1.72Q713,95.33,707.05,87.63ZM679.59,67.87a30,30,0,0,0,.63,6.35,17.48,17.48,0,0,0,1.87,5.09,8.89,8.89,0,0,0,3.28,3.38,9.31,9.31,0,0,0,4.83,1.2c3.54,0,6.17-1.28,7.91-3.85s2.6-6.62,2.6-12.17q0-7.17-2.4-11.59t-8.11-4.42a9.18,9.18,0,0,0-7.8,3.74Q679.6,59.35,679.59,67.87ZM725,51.23q-5.29,0-7.85,3.17a15.72,15.72,0,0,0-3.07,8.48h19.35a5.78,5.78,0,0,1,0-.83,7.86,7.86,0,0,0,.05-.83q0-4.78-2.13-7.39C730,52.1,727.88,51.23,725,51.23Z"/></g></svg>