<svg xmlns="http://www.w3.org/2000/svg" viewBox="0 0 465.76 246.74"><defs><style>.cls-1{fill:#1ba9d5;}.cls-2{fill:#222;}</style></defs><title>Spaces-Cast-02</title><g id="bg"><rect class="cls-1" x="63.08" y="94.2" width="11.25" height="45"/><rect class="cls-1" x="97.58" y="94.2" width="12" height="45"/><rect class="cls-1" x="156.83" y="94.2" width="11.25" height="45"/></g><g id="Layer_1" data-name="Layer 1"><path class="cls-2" d="M21,117.67l9-14.8-.09,14.8Zm-4.55,3.69H29.9v7.34h4.37v-7.34h3.6l.4-3.69h-4V98.77H28.33L16.49,118.12Z"/><path class="cls-2" d="M51.05,125.59c-3.55,0-5.67-4-5.67-11.88s2.12-11.83,5.67-11.83,5.67,4,5.67,11.83S54.61,125.59,51.05,125.59Zm0,3.56c5.54,0,10.08-4.1,10.08-15.44S56.59,98.32,51.05,98.32,41,102.42,41,113.71,45.52,129.15,51.05,129.15Z"/><polygon class="cls-2" points="76.29 123.52 79.03 126.27 86.1 119.2 93.16 126.27 95.91 123.52 88.84 116.46 95.91 109.39 93.16 106.65 86.1 113.71 79.03 106.65 76.29 109.39 83.35 116.46 76.29 123.52"/><path class="cls-2" d="M111.84,128.7h17.77L130,125H117.33l5.71-6.39c5-5.63,6.39-8.46,6.39-11.93,0-5.35-4.41-8.37-9.4-8.37a19.58,19.58,0,0,0-7.61,1.8l.41,3.78a16.73,16.73,0,0,1,6.79-1.89c2.88,0,5.4,1.53,5.4,4.82s-2.65,6.39-6.25,10.48l-6.93,8Z"/><path class="cls-2" d="M144.73,125.59c-3.55,0-5.67-4-5.67-11.88s2.12-11.83,5.67-11.83,5.67,4,5.67,11.83S148.29,125.59,144.73,125.59Zm0,3.56c5.54,0,10.08-4.1,10.08-15.44s-4.54-15.39-10.08-15.39-10.08,4.1-10.08,15.39S139.2,129.15,144.73,129.15Z"/><polygon class="cls-2" points="171.36 128.7 175.73 128.7 175.73 116.59 184.14 128.7 189.68 128.7 180.18 115.87 188.19 105.88 182.93 105.88 175.73 115.65 175.73 96.93 171.36 96.93 171.36 128.7"/><path class="cls-2" d="M204.57,123.43a7.54,7.54,0,0,1-4.54,1.71c-2.79,0-4.82-2.7-4.82-7.2,0-6.75,2.93-9,6.57-9a11.76,11.76,0,0,1,2.79.31Zm-12,13.41a29.88,29.88,0,0,0,7.38,1c5.76,0,9-3.46,9-8.19V106.51a27.41,27.41,0,0,0-7-1.08c-5.54,0-11.12,2.75-11.12,12.56,0,7.2,4.1,10.71,8.24,10.71,2,0,3.42-.59,5.53-2v2.74c0,2.34-1.26,4.68-5.31,4.68A21.93,21.93,0,0,1,193,133Z"/><path class="cls-2" d="M240.36,128.32a8.77,8.77,0,0,0,2.93.56c2.76,0,4.11-1.5,4.11-3.58,0-4-5.39-3.44-5.39-5.8,0-1.08.92-1.78,2.47-1.78a5.19,5.19,0,0,1,2.07.43l.16-1.58a7.83,7.83,0,0,0-2.32-.38c-2.81,0-4.19,1.4-4.19,3.49,0,3.73,5.38,3.08,5.38,5.8,0,1.08-.9,1.87-2.4,1.87a6.57,6.57,0,0,1-2.66-.63Z"/><path class="cls-2" d="M251.18,121.86a2.66,2.66,0,0,1,1.89-1c1,0,1.85,1,1.85,3.09,0,2.36-.85,3.44-1.93,3.44a3,3,0,0,1-1.81-.65Zm-1.75,10.31h1.75v-4.08a3.7,3.7,0,0,0,2.12.79c1.66,0,3.38-1.33,3.38-4.92,0-3.34-1.89-4.57-3.15-4.57a3.31,3.31,0,0,0-2.48,1.23l-.27-1.05h-1.35Z"/><path class="cls-2" d="M263.85,128.7h1.37v-6.45c0-1.87-1.28-2.86-3.35-2.86a11.36,11.36,0,0,0-3,.42l.16,1.53a7.75,7.75,0,0,1,2.58-.47c1.44,0,1.85.61,1.85,1.53v.68s-.48,0-1.2,0c-1.89.06-3.93.72-3.93,3a2.76,2.76,0,0,0,2.79,2.83,3.26,3.26,0,0,0,2.47-1.23Zm-.4-2.29a2.5,2.5,0,0,1-1.89,1,1.39,1.39,0,0,1-1.47-1.42c0-1.06.88-1.62,2.26-1.66.65,0,1.1,0,1.1,0Z"/><path class="cls-2" d="M273.08,126.84a3.62,3.62,0,0,1-1.89.56c-1.4,0-2.28-1.06-2.28-3.27s.84-3.26,2.37-3.26a4,4,0,0,1,1.69.39l.17-1.53a6.53,6.53,0,0,0-2-.34c-2.26,0-4,1.26-4,4.74s1.77,4.75,3.94,4.75a4.9,4.9,0,0,0,2.16-.51Z"/><path class="cls-2" d="M276.29,123.33c.14-1.69.88-2.52,2.07-2.52,1,0,1.67.74,1.62,2.52Zm4.93,3.51a6.46,6.46,0,0,1-2.5.56c-1.53,0-2.38-.92-2.45-2.79h5.42c.32-3.65-1-5.22-3.32-5.22s-3.88,1.26-3.88,4.74,1.71,4.75,3.9,4.75a8.51,8.51,0,0,0,3-.51Z"/></g></svg>