<svg xmlns="http://www.w3.org/2000/svg" xmlns:xlink="http://www.w3.org/1999/xlink" viewBox="0 0 498.8 264.81"><defs><style>.cls-1{fill:none;}.cls-2{fill:#1ba9d5;}.cls-3{clip-path:url(#clip-path);}.cls-4{clip-path:url(#clip-path-2);}.cls-5{clip-path:url(#clip-path-3);}.cls-6{clip-path:url(#clip-path-4);}.cls-7{clip-path:url(#clip-path-5);}.cls-8{clip-path:url(#clip-path-6);}.cls-9{clip-path:url(#clip-path-7);}.cls-10{clip-path:url(#clip-path-8);}.cls-11{clip-path:url(#clip-path-9);}.cls-12{clip-path:url(#clip-path-10);}.cls-13{fill:#ccc;}.cls-14{clip-path:url(#clip-path-11);}.cls-15{clip-path:url(#clip-path-12);}.cls-16{clip-path:url(#clip-path-13);}.cls-17{clip-path:url(#clip-path-14);}</style><clipPath id="clip-path"><rect id="SVGID" class="cls-1" x="191.19" y="35.19" width="32" height="43"/></clipPath><clipPath id="clip-path-2"><rect id="SVGID-2" data-name="SVGID" class="cls-1" x="191.19" y="70.19" width="32" height="43"/></clipPath><clipPath id="clip-path-3"><rect id="SVGID-3" data-name="SVGID" class="cls-1" x="188.19" y="105.19" width="32" height="43"/></clipPath><clipPath id="clip-path-4"><rect id="SVGID-4" data-name="SVGID" class="cls-1" x="188.19" y="139.19" width="32" height="43"/></clipPath><clipPath id="clip-path-5"><rect id="SVGID-5" data-name="SVGID" class="cls-1" x="186.19" y="174.19" width="33" height="43"/></clipPath><clipPath id="clip-path-6"><rect id="SVGID-6" data-name="SVGID" class="cls-1" x="191.19" y="209.19" width="33" height="43"/></clipPath><clipPath id="clip-path-7"><rect id="SVGID-7" data-name="SVGID" class="cls-1" x="378.81" y="35.39" width="33" height="43"/></clipPath><clipPath id="clip-path-8"><rect id="SVGID-8" data-name="SVGID" class="cls-1" x="378.81" y="70.39" width="33" height="43"/></clipPath><clipPath id="clip-path-9"><rect id="SVGID-9" data-name="SVGID" class="cls-1" x="378.81" y="104.39" width="33" height="43"/></clipPath><clipPath id="clip-path-10"><rect id="SVGID-10" data-name="SVGID" class="cls-1" x="378.81" y="139.39" width="33" height="43"/></clipPath><clipPath id="clip-path-11"><rect id="SVGID-11" data-name="SVGID" class="cls-1" x="358.81" y="174.39" width="24" height="43"/></clipPath><clipPath id="clip-path-12"><rect id="SVGID-12" data-name="SVGID" class="cls-1" x="378.81" y="174.39" width="25" height="43"/></clipPath><clipPath id="clip-path-13"><rect id="SVGID-13" data-name="SVGID" class="cls-1" x="365.81" y="209.39" width="17" height="43"/></clipPath><clipPath id="clip-path-14"><rect id="SVGID-14" data-name="SVGID" class="cls-1" x="378.81" y="209.39" width="17" height="43"/></clipPath></defs><title>Spaces</title><g id="bg"><rect class="cls-2" x="190.05" y="39.78" width="6.24" height="34"/><rect class="cls-2" x="190.05" y="74.58" width="6.24" height="34"/><rect class="cls-2" x="190.05" y="109.38" width="3.34" height="34"/><rect class="cls-2" x="190.05" y="144.18" width="3.34" height="34"/><rect class="cls-2" x="190.05" y="178.98" width="1.68" height="34"/><rect class="cls-2" x="190.05" y="213.78" width="6.66" height="34"/><rect class="cls-2" x="377.67" y="39.78" width="6.66" height="34"/><rect class="cls-2" x="377.67" y="74.58" width="6.66" height="34"/><rect class="cls-2" x="377.67" y="109.38" width="6.66" height="34"/><rect class="cls-2" x="377.67" y="144.18" width="6.66" height="34"/><rect class="cls-2" x="377.67" y="178.98" width="6.66" height="34"/><rect class="cls-2" x="377.67" y="213.78" width="6.66" height="34"/><rect class="cls-2" x="115.8" y="41.64" width="6" height="32.24"/><rect class="cls-2" x="115.8" y="76.14" width="6" height="32.24"/><rect class="cls-2" x="115.8" y="110.63" width="4.5" height="32.24"/><rect class="cls-2" x="115.8" y="145.12" width="3" height="32.24"/><rect class="cls-2" x="115.8" y="179.62" width="1.5" height="32.24"/><rect class="cls-2" x="115.8" y="214.11" width="3.75" height="32.24"/><rect class="cls-2" x="303.41" y="39.8" width="6" height="32.24"/><rect class="cls-2" x="303.41" y="74.3" width="7.5" height="32.24"/><rect class="cls-2" x="303.41" y="108.79" width="12" height="32.24"/><rect class="cls-2" x="303.41" y="143.28" width="24" height="32.24"/><rect class="cls-2" x="303.41" y="177.78" width="13.5" height="32.24"/><rect class="cls-2" x="303.41" y="212.27" width="6" height="32.24"/></g><g id="Layer_1" data-name="Layer 1"><path d="M66.12,64.64a1.05,1.05,0,0,1-.41.88,1.77,1.77,0,0,1-1.11.32,2.77,2.77,0,0,1-1.17-.2v-.48a2.38,2.38,0,0,0,.57.18,3.26,3.26,0,0,0,.62.06,1.22,1.22,0,0,0,.75-.19.63.63,0,0,0,.25-.52.7.7,0,0,0-.09-.37.88.88,0,0,0-.3-.26,3.94,3.94,0,0,0-.64-.27,1.93,1.93,0,0,1-.85-.51,1.11,1.11,0,0,1-.26-.76,1,1,0,0,1,.37-.79,1.53,1.53,0,0,1,1-.29,2.81,2.81,0,0,1,1.17.23l-.15.43a2.85,2.85,0,0,0-1-.22,1,1,0,0,0-.62.17.55.55,0,0,0-.22.47.7.7,0,0,0,.08.37.75.75,0,0,0,.27.26,3,3,0,0,0,.6.26,2.3,2.3,0,0,1,.93.52A1,1,0,0,1,66.12,64.64Z"/><path d="M68.42,65.84a1.32,1.32,0,0,1-.57-.12,1,1,0,0,1-.44-.35h0a5,5,0,0,1,0,.53v1.32h-.49V62.57h.4l.07.44h0a1.12,1.12,0,0,1,.44-.38,1.26,1.26,0,0,1,.57-.12,1.19,1.19,0,0,1,1,.44,1.87,1.87,0,0,1,.35,1.22,1.94,1.94,0,0,1-.35,1.23A1.2,1.2,0,0,1,68.42,65.84Zm-.07-2.92a.85.85,0,0,0-.71.28,1.34,1.34,0,0,0-.23.86v.11a1.61,1.61,0,0,0,.23,1,.86.86,0,0,0,.72.29A.75.75,0,0,0,69,65.1a1.6,1.6,0,0,0,.24-.93,1.56,1.56,0,0,0-.24-.93A.79.79,0,0,0,68.35,62.92Z"/><path d="M72.58,65.78l-.1-.46h0a1.25,1.25,0,0,1-.48.41,1.5,1.5,0,0,1-.6.11,1,1,0,0,1-.75-.25.88.88,0,0,1-.27-.7c0-.65.52-1,1.56-1h.54v-.2a.81.81,0,0,0-.16-.56.67.67,0,0,0-.52-.18,2.17,2.17,0,0,0-.91.24l-.15-.37a2.67,2.67,0,0,1,.52-.2,2.22,2.22,0,0,1,.57-.07,1.23,1.23,0,0,1,.85.25,1.08,1.08,0,0,1,.28.82v2.19Zm-1.1-.34a1,1,0,0,0,.71-.25.94.94,0,0,0,.26-.7V64.2l-.49,0a1.93,1.93,0,0,0-.83.18.55.55,0,0,0-.26.5.49.49,0,0,0,.16.4A.69.69,0,0,0,71.48,65.44Z"/><path d="M75.22,65.84a1.37,1.37,0,0,1-1.08-.43,1.79,1.79,0,0,1-.38-1.21A1.82,1.82,0,0,1,74.15,63a1.39,1.39,0,0,1,1.1-.44,2.5,2.5,0,0,1,.47.05,1.26,1.26,0,0,1,.36.12l-.15.41a2.89,2.89,0,0,0-.35-.11,2.38,2.38,0,0,0-.34,0c-.65,0-1,.42-1,1.25a1.49,1.49,0,0,0,.24.91.84.84,0,0,0,.71.31,2,2,0,0,0,.82-.17v.43A1.74,1.74,0,0,1,75.22,65.84Z"/><path d="M78.15,65.84A1.46,1.46,0,0,1,77,65.41a1.66,1.66,0,0,1-.41-1.21A1.81,1.81,0,0,1,77,63a1.24,1.24,0,0,1,1-.46,1.19,1.19,0,0,1,1,.4A1.53,1.53,0,0,1,79.33,64v.3H77.12a1.27,1.27,0,0,0,.28.86,1,1,0,0,0,.77.29,2.62,2.62,0,0,0,1-.21v.43a2.08,2.08,0,0,1-.48.16A3,3,0,0,1,78.15,65.84ZM78,62.92a.8.8,0,0,0-.62.25,1.2,1.2,0,0,0-.27.7h1.68a1.07,1.07,0,0,0-.21-.71A.71.71,0,0,0,78,62.92Z"/><path d="M39.43,100.58h-.56L36.53,97h0c0,.42,0,.8,0,1.16v2.43h-.46V96.3h.56L39,99.88h0c0-.06,0-.22,0-.51s0-.49,0-.61V96.3h.46Z"/><path d="M43.31,99a1.78,1.78,0,0,1-.39,1.23,1.42,1.42,0,0,1-1.1.44,1.49,1.49,0,0,1-.76-.2,1.4,1.4,0,0,1-.52-.58,2,2,0,0,1-.18-.89,1.77,1.77,0,0,1,.39-1.22,1.4,1.4,0,0,1,1.09-.44,1.35,1.35,0,0,1,1.07.45A1.73,1.73,0,0,1,43.31,99Zm-2.45,0a1.55,1.55,0,0,0,.25.94,1,1,0,0,0,1.45,0,1.55,1.55,0,0,0,.25-.94,1.52,1.52,0,0,0-.25-.93.88.88,0,0,0-.73-.32.85.85,0,0,0-.72.32A1.52,1.52,0,0,0,40.86,99Z"/><path d="M43.89,99.2v-.45h1.44v.45Z"/><path d="M47.59,97.32a1.18,1.18,0,0,1,1,.43,2.32,2.32,0,0,1,0,2.45,1.2,1.2,0,0,1-1,.44,1.32,1.32,0,0,1-.57-.12,1,1,0,0,1-.44-.35h0l-.11.41h-.35V96h.49v1.11c0,.25,0,.47,0,.67h0A1.16,1.16,0,0,1,47.59,97.32Zm-.07.4a.86.86,0,0,0-.72.29,1.58,1.58,0,0,0-.22,1,1.61,1.61,0,0,0,.23,1,.84.84,0,0,0,.72.29.77.77,0,0,0,.67-.32,1.76,1.76,0,0,0,.22-.94A1.69,1.69,0,0,0,48.2,98,.81.81,0,0,0,47.52,97.72Z"/><path d="M51.24,97.31a1.48,1.48,0,0,1,.38,0l-.07.45a1.63,1.63,0,0,0-.35,0,.88.88,0,0,0-.67.32,1.17,1.17,0,0,0-.27.79v1.72h-.49V97.37h.4l.06.59h0a1.44,1.44,0,0,1,.43-.48A1,1,0,0,1,51.24,97.31Z"/><path d="M53.58,100.64a1.52,1.52,0,0,1-1.13-.43A1.7,1.7,0,0,1,52,99a1.86,1.86,0,0,1,.38-1.23,1.27,1.27,0,0,1,1-.46,1.22,1.22,0,0,1,1,.4,1.53,1.53,0,0,1,.35,1.05v.3H52.55a1.22,1.22,0,0,0,.28.86,1,1,0,0,0,.76.29,2.67,2.67,0,0,0,1-.21v.43a2.15,2.15,0,0,1-.49.16A2.87,2.87,0,0,1,53.58,100.64Zm-.14-2.92a.78.78,0,0,0-.61.25,1.09,1.09,0,0,0-.27.7h1.68A1.07,1.07,0,0,0,54,98,.73.73,0,0,0,53.44,97.72Z"/><path d="M57.56,100.58l-.1-.46h0a1.35,1.35,0,0,1-.48.41,1.48,1.48,0,0,1-.59.11,1,1,0,0,1-.75-.25.88.88,0,0,1-.27-.7c0-.65.51-1,1.55-1h.55v-.2a.8.8,0,0,0-.17-.56.65.65,0,0,0-.52-.18,2.13,2.13,0,0,0-.9.24l-.15-.37a2.45,2.45,0,0,1,.52-.2,2.1,2.1,0,0,1,.56-.07,1.2,1.2,0,0,1,.85.25,1,1,0,0,1,.28.82v2.19Zm-1.1-.34a1,1,0,0,0,.72-.25.94.94,0,0,0,.25-.7V99L57,99a1.94,1.94,0,0,0-.84.18.54.54,0,0,0-.25.5.49.49,0,0,0,.16.4A.64.64,0,0,0,56.46,100.24Z"/><path d="M59.4,98.94c.09-.12.22-.28.39-.47l1-1.1h.58l-1.3,1.37,1.39,1.84H60.9l-1.13-1.52-.37.32v1.2h-.48V96h.48v2.42c0,.11,0,.27,0,.5Z"/><path d="M66.12,99.44a1.05,1.05,0,0,1-.41.88,1.77,1.77,0,0,1-1.11.32,2.77,2.77,0,0,1-1.17-.2V100a2.38,2.38,0,0,0,.57.18,3.26,3.26,0,0,0,.62.06,1.22,1.22,0,0,0,.75-.19.63.63,0,0,0,.25-.52.7.7,0,0,0-.09-.37.88.88,0,0,0-.3-.26,3.94,3.94,0,0,0-.64-.27,1.93,1.93,0,0,1-.85-.51,1.11,1.11,0,0,1-.26-.76,1,1,0,0,1,.37-.79,1.53,1.53,0,0,1,1-.29,2.81,2.81,0,0,1,1.17.23l-.15.43a2.85,2.85,0,0,0-1-.22,1,1,0,0,0-.62.17.55.55,0,0,0-.22.47.7.7,0,0,0,.08.37.75.75,0,0,0,.27.26,3,3,0,0,0,.6.26,2.3,2.3,0,0,1,.93.52A1,1,0,0,1,66.12,99.44Z"/><path d="M68.42,100.64a1.32,1.32,0,0,1-.57-.12,1,1,0,0,1-.44-.35h0a5,5,0,0,1,0,.53V102h-.49V97.37h.4l.07.44h0a1.12,1.12,0,0,1,.44-.38,1.26,1.26,0,0,1,.57-.12,1.19,1.19,0,0,1,1,.44A1.87,1.87,0,0,1,69.75,99a1.94,1.94,0,0,1-.35,1.23A1.2,1.2,0,0,1,68.42,100.64Zm-.07-2.92a.85.85,0,0,0-.71.28,1.34,1.34,0,0,0-.23.86V99a1.61,1.61,0,0,0,.23,1,.84.84,0,0,0,.72.29A.75.75,0,0,0,69,99.9a1.6,1.6,0,0,0,.24-.93,1.51,1.51,0,0,0-.24-.92A.77.77,0,0,0,68.35,97.72Z"/><path d="M72.58,100.58l-.1-.46h0a1.35,1.35,0,0,1-.48.41,1.5,1.5,0,0,1-.6.11,1,1,0,0,1-.75-.25.88.88,0,0,1-.27-.7q0-1,1.56-1h.54v-.2a.8.8,0,0,0-.16-.56.67.67,0,0,0-.52-.18,2.17,2.17,0,0,0-.91.24l-.15-.37a2.67,2.67,0,0,1,.52-.2,2.22,2.22,0,0,1,.57-.07,1.23,1.23,0,0,1,.85.25,1.08,1.08,0,0,1,.28.82v2.19Zm-1.1-.34a1,1,0,0,0,.71-.25.94.94,0,0,0,.26-.7V99L72,99a1.93,1.93,0,0,0-.83.18.55.55,0,0,0-.26.5.49.49,0,0,0,.16.4A.69.69,0,0,0,71.48,100.24Z"/><path d="M75.22,100.64a1.37,1.37,0,0,1-1.08-.43A1.79,1.79,0,0,1,73.76,99a1.82,1.82,0,0,1,.39-1.25,1.39,1.39,0,0,1,1.1-.44,2.5,2.5,0,0,1,.47,0,1.26,1.26,0,0,1,.36.12l-.15.41a2.89,2.89,0,0,0-.35-.11,2.38,2.38,0,0,0-.34,0c-.65,0-1,.42-1,1.25a1.49,1.49,0,0,0,.24.91.84.84,0,0,0,.71.31A2,2,0,0,0,76,100v.43A1.74,1.74,0,0,1,75.22,100.64Z"/><path d="M78.15,100.64a1.5,1.5,0,0,1-1.12-.43A1.66,1.66,0,0,1,76.62,99,1.81,1.81,0,0,1,77,97.77a1.24,1.24,0,0,1,1-.46,1.19,1.19,0,0,1,1,.4,1.53,1.53,0,0,1,.35,1.05v.3H77.12a1.27,1.27,0,0,0,.28.86,1,1,0,0,0,.77.29,2.62,2.62,0,0,0,1-.21v.43a2.08,2.08,0,0,1-.48.16A3,3,0,0,1,78.15,100.64ZM78,97.72a.8.8,0,0,0-.62.25,1.2,1.2,0,0,0-.27.7h1.68A1.07,1.07,0,0,0,78.6,98,.71.71,0,0,0,78,97.72Z"/><path d="M51.26,135.38h-.5v-3.84H49.41v-.44h3.21v.44H51.26Z"/><path d="M55.39,135.38V133.3a.82.82,0,0,0-.18-.58.73.73,0,0,0-.56-.2.92.92,0,0,0-.74.28,1.35,1.35,0,0,0-.23.9v1.68h-.49v-4.56h.49v1.38a2.42,2.42,0,0,1,0,.42h0a1,1,0,0,1,.41-.37,1.33,1.33,0,0,1,.61-.13,1.22,1.22,0,0,1,.88.28,1.15,1.15,0,0,1,.29.89v2.09Z"/><path d="M56.83,131.3a.33.33,0,0,1,.08-.24.28.28,0,0,1,.21-.08.26.26,0,0,1,.2.08.37.37,0,0,1,0,.48.26.26,0,0,1-.2.08.28.28,0,0,1-.21-.08A.33.33,0,0,1,56.83,131.3Zm.53,4.08h-.49v-3.21h.49Z"/><path d="M60.59,135.38V133.3a.82.82,0,0,0-.18-.58.73.73,0,0,0-.56-.2.93.93,0,0,0-.74.28,1.35,1.35,0,0,0-.23.9v1.68h-.49v-3.21h.4l.07.44h0a1,1,0,0,1,.42-.37,1.47,1.47,0,0,1,.6-.13,1,1,0,0,1,1.16,1.18v2.09Z"/><path d="M66.12,134.24a1.05,1.05,0,0,1-.41.88,1.77,1.77,0,0,1-1.11.32,2.77,2.77,0,0,1-1.17-.2v-.48a2.38,2.38,0,0,0,.57.18,3.26,3.26,0,0,0,.62.06,1.22,1.22,0,0,0,.75-.19.63.63,0,0,0,.25-.52.7.7,0,0,0-.09-.37.88.88,0,0,0-.3-.26,3.94,3.94,0,0,0-.64-.27,1.93,1.93,0,0,1-.85-.51,1.11,1.11,0,0,1-.26-.76,1,1,0,0,1,.37-.79,1.53,1.53,0,0,1,1-.29,2.81,2.81,0,0,1,1.17.23l-.15.43a2.85,2.85,0,0,0-1-.22,1,1,0,0,0-.62.17.55.55,0,0,0-.22.47.7.7,0,0,0,.08.37.75.75,0,0,0,.27.26,3.73,3.73,0,0,0,.6.26,2.3,2.3,0,0,1,.93.52A1,1,0,0,1,66.12,134.24Z"/><path d="M68.42,135.44a1.32,1.32,0,0,1-.57-.12,1,1,0,0,1-.44-.35h0a5,5,0,0,1,0,.53v1.32h-.49v-4.65h.4l.07.44h0a1.12,1.12,0,0,1,.44-.38,1.26,1.26,0,0,1,.57-.12,1.19,1.19,0,0,1,1,.44,1.87,1.87,0,0,1,.35,1.22A1.94,1.94,0,0,1,69.4,135,1.2,1.2,0,0,1,68.42,135.44Zm-.07-2.92a.85.85,0,0,0-.71.28,1.34,1.34,0,0,0-.23.86v.11a1.61,1.61,0,0,0,.23,1,.84.84,0,0,0,.72.29.75.75,0,0,0,.65-.33,1.6,1.6,0,0,0,.24-.93,1.51,1.51,0,0,0-.24-.92A.77.77,0,0,0,68.35,132.52Z"/><path d="M72.58,135.38l-.1-.46h0a1.35,1.35,0,0,1-.48.41,1.5,1.5,0,0,1-.6.11,1,1,0,0,1-.75-.25.88.88,0,0,1-.27-.7q0-1,1.56-1h.54v-.2a.8.8,0,0,0-.16-.56.67.67,0,0,0-.52-.18,2.17,2.17,0,0,0-.91.24l-.15-.37a2.67,2.67,0,0,1,.52-.2,2.22,2.22,0,0,1,.57-.07,1.23,1.23,0,0,1,.85.25,1.08,1.08,0,0,1,.28.82v2.19Zm-1.1-.34a1,1,0,0,0,.71-.25.94.94,0,0,0,.26-.7v-.29l-.49,0a1.93,1.93,0,0,0-.83.18.55.55,0,0,0-.26.5.49.49,0,0,0,.16.4A.69.69,0,0,0,71.48,135Z"/><path d="M75.22,135.44a1.37,1.37,0,0,1-1.08-.43,1.79,1.79,0,0,1-.38-1.21,1.82,1.82,0,0,1,.39-1.25,1.39,1.39,0,0,1,1.1-.44,2.5,2.5,0,0,1,.47,0,1.26,1.26,0,0,1,.36.12l-.15.41a2.89,2.89,0,0,0-.35-.11,2.38,2.38,0,0,0-.34,0c-.65,0-1,.42-1,1.25a1.49,1.49,0,0,0,.24.91.84.84,0,0,0,.71.31,2,2,0,0,0,.82-.17v.43A1.74,1.74,0,0,1,75.22,135.44Z"/><path d="M78.15,135.44A1.5,1.5,0,0,1,77,135a1.66,1.66,0,0,1-.41-1.21,1.81,1.81,0,0,1,.38-1.23,1.24,1.24,0,0,1,1-.46,1.19,1.19,0,0,1,1,.4,1.53,1.53,0,0,1,.35,1.05v.3H77.12a1.27,1.27,0,0,0,.28.86,1,1,0,0,0,.77.29,2.62,2.62,0,0,0,1-.21v.43a2.08,2.08,0,0,1-.48.16A3,3,0,0,1,78.15,135.44ZM78,132.52a.8.8,0,0,0-.62.25,1.2,1.2,0,0,0-.27.7h1.68a1.07,1.07,0,0,0-.21-.71A.71.71,0,0,0,78,132.52Z"/><path d="M16.83,170.18h-.57l-2.34-3.59h0c0,.42,0,.8,0,1.16v2.43h-.46V165.9H14l2.34,3.58h0c0-.06,0-.22,0-.51s0-.49,0-.61V165.9h.47Z"/><path d="M19.91,170.18l-.1-.46h0a1.35,1.35,0,0,1-.48.41,1.5,1.5,0,0,1-.6.11A1,1,0,0,1,18,170a.88.88,0,0,1-.27-.7q0-1,1.56-1h.54v-.2a.8.8,0,0,0-.16-.56.67.67,0,0,0-.52-.18,2.17,2.17,0,0,0-.91.24l-.15-.37a2.67,2.67,0,0,1,.52-.2,2.22,2.22,0,0,1,.57-.07,1.23,1.23,0,0,1,.85.25,1.08,1.08,0,0,1,.28.82v2.19Zm-1.1-.34a1,1,0,0,0,.71-.25.94.94,0,0,0,.26-.7v-.29l-.49,0a1.93,1.93,0,0,0-.83.18.55.55,0,0,0-.26.5.49.49,0,0,0,.16.4A.69.69,0,0,0,18.81,169.84Z"/><path d="M22.73,166.91a1.56,1.56,0,0,1,.39,0l-.07.45a1.63,1.63,0,0,0-.35-.05.88.88,0,0,0-.67.32,1.17,1.17,0,0,0-.28.79v1.72h-.48V167h.4l0,.59h0a1.44,1.44,0,0,1,.43-.48A1,1,0,0,1,22.73,166.91Z"/><path d="M25.18,166.91a1.61,1.61,0,0,1,.39,0l-.07.45a1.63,1.63,0,0,0-.35-.05.86.86,0,0,0-.67.32,1.17,1.17,0,0,0-.28.79v1.72h-.48V167h.4l.05.59h0a1.44,1.44,0,0,1,.43-.48A1,1,0,0,1,25.18,166.91Z"/><path d="M28.94,168.57a1.75,1.75,0,0,1-.4,1.23,1.4,1.4,0,0,1-1.09.44,1.52,1.52,0,0,1-.77-.2,1.37,1.37,0,0,1-.51-.58,2.08,2.08,0,0,1-.18-.89,1.77,1.77,0,0,1,.39-1.22,1.4,1.4,0,0,1,1.09-.44,1.35,1.35,0,0,1,1.07.45A1.73,1.73,0,0,1,28.94,168.57Zm-2.45,0a1.5,1.5,0,0,0,.25.94,1,1,0,0,0,1.45,0,1.55,1.55,0,0,0,.24-.94,1.52,1.52,0,0,0-.24-.93,1,1,0,0,0-1.46,0A1.52,1.52,0,0,0,26.49,168.57Z"/><path d="M32.41,170.18l-.59-1.88c0-.12-.1-.38-.2-.79h0c-.08.34-.14.61-.2.79l-.61,1.88h-.56L29.34,167h.51c.21.81.37,1.42.47,1.84a6.49,6.49,0,0,1,.19.85h0c0-.11.06-.25.11-.43l.12-.42.59-1.84h.53l.57,1.84a6.59,6.59,0,0,1,.23.85h0q0-.1.06-.33c0-.14.24-.93.61-2.36h.51L33,170.18Z"/><path d="M39.43,170.18h-.56l-2.34-3.59h0c0,.42,0,.8,0,1.16v2.43h-.46V165.9h.56L39,169.48h0c0-.06,0-.22,0-.51s0-.49,0-.61V165.9h.46Z"/><path d="M43.31,168.57a1.8,1.8,0,0,1-.39,1.23,1.42,1.42,0,0,1-1.1.44,1.49,1.49,0,0,1-.76-.2,1.4,1.4,0,0,1-.52-.58,2.08,2.08,0,0,1-.18-.89,1.77,1.77,0,0,1,.39-1.22,1.4,1.4,0,0,1,1.09-.44,1.35,1.35,0,0,1,1.07.45A1.73,1.73,0,0,1,43.31,168.57Zm-2.45,0a1.57,1.57,0,0,0,.25.94,1,1,0,0,0,1.45,0,1.55,1.55,0,0,0,.25-.94,1.52,1.52,0,0,0-.25-.93.88.88,0,0,0-.73-.32.85.85,0,0,0-.72.32A1.52,1.52,0,0,0,40.86,168.57Z"/><path d="M43.89,168.79v-.44h1.44v.44Z"/><path d="M47.59,166.92a1.18,1.18,0,0,1,1,.43,1.91,1.91,0,0,1,.35,1.22,1.94,1.94,0,0,1-.35,1.23,1.2,1.2,0,0,1-1,.44,1.32,1.32,0,0,1-.57-.12,1,1,0,0,1-.44-.35h0l-.11.41h-.35v-4.56h.49v1.11c0,.25,0,.47,0,.67h0A1.16,1.16,0,0,1,47.59,166.92Zm-.07.4a.86.86,0,0,0-.72.29,1.58,1.58,0,0,0-.22,1,1.61,1.61,0,0,0,.23,1,.84.84,0,0,0,.72.29.77.77,0,0,0,.67-.32,1.76,1.76,0,0,0,.22-.94,1.69,1.69,0,0,0-.22-.94A.81.81,0,0,0,47.52,167.32Z"/><path d="M51.24,166.91a1.48,1.48,0,0,1,.38,0l-.07.45a1.63,1.63,0,0,0-.35-.05.88.88,0,0,0-.67.32,1.17,1.17,0,0,0-.27.79v1.72h-.49V167h.4l.06.59h0a1.44,1.44,0,0,1,.43-.48A1,1,0,0,1,51.24,166.91Z"/><path d="M53.58,170.24a1.52,1.52,0,0,1-1.13-.43A1.7,1.7,0,0,1,52,168.6a1.86,1.86,0,0,1,.38-1.23,1.27,1.27,0,0,1,1-.46,1.22,1.22,0,0,1,1,.4,1.53,1.53,0,0,1,.35,1.05v.3H52.55a1.22,1.22,0,0,0,.28.86,1,1,0,0,0,.76.29,2.67,2.67,0,0,0,1-.21V170a2.15,2.15,0,0,1-.49.16A2.87,2.87,0,0,1,53.58,170.24Zm-.14-2.92a.78.78,0,0,0-.61.25,1.09,1.09,0,0,0-.27.7h1.68a1.07,1.07,0,0,0-.21-.71A.73.73,0,0,0,53.44,167.32Z"/><path d="M57.56,170.18l-.1-.46h0a1.35,1.35,0,0,1-.48.41,1.48,1.48,0,0,1-.59.11,1,1,0,0,1-.75-.25.88.88,0,0,1-.27-.7c0-.65.51-1,1.55-1h.55v-.2a.8.8,0,0,0-.17-.56.65.65,0,0,0-.52-.18,2.13,2.13,0,0,0-.9.24l-.15-.37a2.45,2.45,0,0,1,.52-.2,2.1,2.1,0,0,1,.56-.07,1.2,1.2,0,0,1,.85.25,1,1,0,0,1,.28.82v2.19Zm-1.1-.34a1,1,0,0,0,.72-.25.94.94,0,0,0,.25-.7v-.29l-.48,0a1.94,1.94,0,0,0-.84.18.54.54,0,0,0-.25.5.49.49,0,0,0,.16.4A.64.64,0,0,0,56.46,169.84Z"/><path d="M59.4,168.54c.09-.12.22-.28.39-.47l1-1.1h.58l-1.3,1.37,1.39,1.84H60.9l-1.13-1.52-.37.32v1.2h-.48v-4.56h.48V168c0,.11,0,.27,0,.5Z"/><path d="M66.12,169a1.05,1.05,0,0,1-.41.88,1.77,1.77,0,0,1-1.11.32,2.77,2.77,0,0,1-1.17-.2v-.48a2.38,2.38,0,0,0,.57.18,3.26,3.26,0,0,0,.62.06,1.22,1.22,0,0,0,.75-.19.63.63,0,0,0,.25-.52.7.7,0,0,0-.09-.37.88.88,0,0,0-.3-.26,3.94,3.94,0,0,0-.64-.27,1.93,1.93,0,0,1-.85-.51,1.11,1.11,0,0,1-.26-.76,1,1,0,0,1,.37-.79,1.53,1.53,0,0,1,1-.29,2.81,2.81,0,0,1,1.17.23l-.15.43a2.85,2.85,0,0,0-1-.22,1,1,0,0,0-.62.17.55.55,0,0,0-.22.47.7.7,0,0,0,.08.37.75.75,0,0,0,.27.26,3.73,3.73,0,0,0,.6.26,2.3,2.3,0,0,1,.93.52A1,1,0,0,1,66.12,169Z"/><path d="M68.42,170.24a1.32,1.32,0,0,1-.57-.12,1,1,0,0,1-.44-.35h0a4.84,4.84,0,0,1,0,.53v1.32h-.49V167h.4l.07.44h0a1.12,1.12,0,0,1,.44-.38,1.26,1.26,0,0,1,.57-.12,1.19,1.19,0,0,1,1,.44,1.87,1.87,0,0,1,.35,1.22,1.94,1.94,0,0,1-.35,1.23A1.2,1.2,0,0,1,68.42,170.24Zm-.07-2.92a.83.83,0,0,0-.71.28,1.34,1.34,0,0,0-.23.86v.11a1.61,1.61,0,0,0,.23,1,.84.84,0,0,0,.72.29.74.74,0,0,0,.65-.34,1.55,1.55,0,0,0,.24-.92,1.51,1.51,0,0,0-.24-.92A.77.77,0,0,0,68.35,167.32Z"/><path d="M72.58,170.18l-.1-.46h0a1.35,1.35,0,0,1-.48.41,1.5,1.5,0,0,1-.6.11,1,1,0,0,1-.75-.25.88.88,0,0,1-.27-.7q0-1,1.56-1h.54v-.2a.8.8,0,0,0-.16-.56.67.67,0,0,0-.52-.18,2.17,2.17,0,0,0-.91.24l-.15-.37a2.67,2.67,0,0,1,.52-.2,2.22,2.22,0,0,1,.57-.07,1.23,1.23,0,0,1,.85.25,1.08,1.08,0,0,1,.28.82v2.19Zm-1.1-.34a1,1,0,0,0,.71-.25.94.94,0,0,0,.26-.7v-.29l-.49,0a1.93,1.93,0,0,0-.83.18.55.55,0,0,0-.26.5.49.49,0,0,0,.16.4A.69.69,0,0,0,71.48,169.84Z"/><path d="M75.22,170.24a1.37,1.37,0,0,1-1.08-.43,1.79,1.79,0,0,1-.38-1.21,1.82,1.82,0,0,1,.39-1.25,1.39,1.39,0,0,1,1.1-.44,2.5,2.5,0,0,1,.47.05,1.26,1.26,0,0,1,.36.12l-.15.41a2.89,2.89,0,0,0-.35-.11,2.38,2.38,0,0,0-.34,0c-.65,0-1,.42-1,1.25a1.49,1.49,0,0,0,.24.91.84.84,0,0,0,.71.31,2,2,0,0,0,.82-.17v.43A1.74,1.74,0,0,1,75.22,170.24Z"/><path d="M78.15,170.24a1.5,1.5,0,0,1-1.12-.43,1.66,1.66,0,0,1-.41-1.21,1.81,1.81,0,0,1,.38-1.23,1.24,1.24,0,0,1,1-.46,1.19,1.19,0,0,1,1,.4,1.53,1.53,0,0,1,.35,1.05v.3H77.12a1.27,1.27,0,0,0,.28.86,1,1,0,0,0,.77.29,2.62,2.62,0,0,0,1-.21V170a2.08,2.08,0,0,1-.48.16A3,3,0,0,1,78.15,170.24ZM78,167.32a.8.8,0,0,0-.62.25,1.2,1.2,0,0,0-.27.7h1.68a1.07,1.07,0,0,0-.21-.71A.71.71,0,0,0,78,167.32Z"/><path d="M97.67,15.09A3.32,3.32,0,0,0,95,16.21a4.48,4.48,0,0,0-1,3.06A4.64,4.64,0,0,0,95,22.36a3.37,3.37,0,0,0,2.67,1.09,9,9,0,0,0,2.43-.39v1a7.31,7.31,0,0,1-2.61.4A4.42,4.42,0,0,1,94,23.13a5.63,5.63,0,0,1-1.22-3.87,6.16,6.16,0,0,1,.59-2.76,4.24,4.24,0,0,1,1.7-1.83A5.2,5.2,0,0,1,97.68,14a6.31,6.31,0,0,1,2.8.59l-.5,1A5.41,5.41,0,0,0,97.67,15.09Z"/><path d="M107.35,24.36V19.42a2,2,0,0,0-.42-1.39,1.73,1.73,0,0,0-1.33-.46,2.19,2.19,0,0,0-1.76.65,3.34,3.34,0,0,0-.56,2.15v4h-1.15V13.53h1.15V16.8a6.9,6.9,0,0,1,0,1h.07a2.35,2.35,0,0,1,1-.87,3.18,3.18,0,0,1,1.44-.32,2.93,2.93,0,0,1,2.1.67,2.81,2.81,0,0,1,.7,2.11v5Z"/><path d="M114.36,16.59a5,5,0,0,1,.91.08l-.16,1.07a3.8,3.8,0,0,0-.83-.1,2,2,0,0,0-1.59.75,2.78,2.78,0,0,0-.65,1.87v4.1h-1.16V16.73h1l.14,1.41h0a3.31,3.31,0,0,1,1-1.15A2.25,2.25,0,0,1,114.36,16.59Z"/><path d="M123.29,20.54a4.24,4.24,0,0,1-.94,2.91,3.32,3.32,0,0,1-2.6,1.05,3.46,3.46,0,0,1-1.82-.48,3.16,3.16,0,0,1-1.22-1.38,4.77,4.77,0,0,1-.43-2.1,4.2,4.2,0,0,1,.93-2.91,3.3,3.3,0,0,1,2.59-1,3.21,3.21,0,0,1,2.54,1.06A4.19,4.19,0,0,1,123.29,20.54Zm-5.82,0a3.6,3.6,0,0,0,.59,2.22,2.32,2.32,0,0,0,3.44,0,3.62,3.62,0,0,0,.59-2.23,3.55,3.55,0,0,0-.59-2.21,2.35,2.35,0,0,0-3.45,0A3.59,3.59,0,0,0,117.47,20.54Z"/><path d="M135,24.36v-5a2,2,0,0,0-.39-1.36,1.5,1.5,0,0,0-1.21-.46,2,2,0,0,0-1.6.62,3,3,0,0,0-.51,1.91v4.26h-1.16v-5a2,2,0,0,0-.39-1.36,1.49,1.49,0,0,0-1.22-.46,1.91,1.91,0,0,0-1.59.65,3.6,3.6,0,0,0-.5,2.14v4h-1.16V16.73h.94l.19,1h.06a2.21,2.21,0,0,1,.92-.87,2.8,2.8,0,0,1,1.33-.31,2.27,2.27,0,0,1,2.34,1.29h.06a2.34,2.34,0,0,1,1-.94,3,3,0,0,1,1.48-.35,2.6,2.6,0,0,1,1.94.66,3,3,0,0,1,.64,2.13v5Z"/><path d="M141.8,24.5a3.52,3.52,0,0,1-2.67-1,4,4,0,0,1-1-2.86,4.44,4.44,0,0,1,.91-2.94,3,3,0,0,1,2.44-1.08,2.89,2.89,0,0,1,2.27.94A3.65,3.65,0,0,1,144.6,20v.73h-5.25a3,3,0,0,0,.68,2,2.32,2.32,0,0,0,1.81.7,6.09,6.09,0,0,0,2.44-.52v1a5.59,5.59,0,0,1-1.16.38A6.32,6.32,0,0,1,141.8,24.5Zm-.32-6.94a1.87,1.87,0,0,0-1.46.6,2.66,2.66,0,0,0-.64,1.65h4a2.56,2.56,0,0,0-.48-1.67A1.72,1.72,0,0,0,141.48,17.56Z"/><path d="M172.87,24.36h-1.18V14.18h5.67v1.05h-4.49V19h4.22V20h-4.22Z"/><path d="M178.78,14.66a.77.77,0,0,1,.19-.58.7.7,0,0,1,.49-.19.73.73,0,0,1,.48.19.94.94,0,0,1,0,1.16.68.68,0,0,1-.48.19.66.66,0,0,1-.49-.19A.78.78,0,0,1,178.78,14.66Zm1.25,9.7h-1.16V16.73H180Z"/><path d="M186,16.59a5,5,0,0,1,.91.08l-.16,1.07a3.8,3.8,0,0,0-.83-.1,2,2,0,0,0-1.59.75,2.74,2.74,0,0,0-.66,1.87v4.1h-1.15V16.73h1l.14,1.41h.05a3.29,3.29,0,0,1,1-1.15A2.3,2.3,0,0,1,186,16.59Z"/><path d="M191.52,24.5a3.52,3.52,0,0,1-2.67-1,4,4,0,0,1-1-2.86,4.49,4.49,0,0,1,.91-2.94,3,3,0,0,1,2.44-1.08,2.86,2.86,0,0,1,2.27.94,3.61,3.61,0,0,1,.84,2.49v.73h-5.26a3,3,0,0,0,.68,2,2.32,2.32,0,0,0,1.81.7A6,6,0,0,0,194,23v1a5.4,5.4,0,0,1-1.16.38A6.19,6.19,0,0,1,191.52,24.5Zm-.31-6.94a1.91,1.91,0,0,0-1.47.6,2.72,2.72,0,0,0-.64,1.65h4a2.5,2.5,0,0,0-.49-1.67A1.7,1.7,0,0,0,191.21,17.56Z"/><path d="M197.66,24.36h-1.19V14.18h5.68v1.05h-4.49V19h4.21V20h-4.21Z"/><path d="M210.24,20.54a4.19,4.19,0,0,1-.94,2.91,3.29,3.29,0,0,1-2.59,1.05,3.43,3.43,0,0,1-1.82-.48,3.18,3.18,0,0,1-1.23-1.38,4.92,4.92,0,0,1-.43-2.1,4.2,4.2,0,0,1,.93-2.91,3.33,3.33,0,0,1,2.59-1,3.23,3.23,0,0,1,2.55,1.06A4.19,4.19,0,0,1,210.24,20.54Zm-5.81,0a3.6,3.6,0,0,0,.58,2.22,2.33,2.33,0,0,0,3.45,0,3.62,3.62,0,0,0,.59-2.23,3.55,3.55,0,0,0-.59-2.21,2.06,2.06,0,0,0-1.74-.76,2,2,0,0,0-1.71.75A3.53,3.53,0,0,0,204.43,20.54Z"/><path d="M214.11,20.45l-2.66-3.72h1.32l2,2.92,2-2.92h1.3l-2.65,3.72,2.79,3.91h-1.31l-2.14-3.09-2.16,3.09h-1.31Z"/><path d="M286.14,15.09a3.3,3.3,0,0,0-2.65,1.12,4.48,4.48,0,0,0-1,3.06,4.64,4.64,0,0,0,.94,3.09,3.35,3.35,0,0,0,2.67,1.09,9,9,0,0,0,2.43-.39v1a7.31,7.31,0,0,1-2.61.4,4.41,4.41,0,0,1-3.47-1.37,5.58,5.58,0,0,1-1.22-3.87,6,6,0,0,1,.59-2.76,4.22,4.22,0,0,1,1.69-1.83,5.27,5.27,0,0,1,2.62-.64,6.31,6.31,0,0,1,2.8.59l-.5,1A5.45,5.45,0,0,0,286.14,15.09Z"/><path d="M295.82,24.36V19.42a2,2,0,0,0-.43-1.39,1.69,1.69,0,0,0-1.32-.46,2.19,2.19,0,0,0-1.76.65,3.34,3.34,0,0,0-.56,2.15v4H290.6V13.53h1.15V16.8a6.9,6.9,0,0,1-.05,1h.07a2.29,2.29,0,0,1,1-.87,3.18,3.18,0,0,1,1.44-.32,2.93,2.93,0,0,1,2.1.67,2.81,2.81,0,0,1,.7,2.11v5Z"/><path d="M302.83,16.59a5,5,0,0,1,.91.08l-.16,1.07a3.8,3.8,0,0,0-.83-.1,2,2,0,0,0-1.59.75,2.74,2.74,0,0,0-.66,1.87v4.1h-1.15V16.73h.95l.13,1.41h.06a3.29,3.29,0,0,1,1-1.15A2.3,2.3,0,0,1,302.83,16.59Z"/><path d="M311.75,20.54a4.24,4.24,0,0,1-.93,2.91,3.32,3.32,0,0,1-2.6,1.05A3.46,3.46,0,0,1,306.4,24a3.1,3.1,0,0,1-1.22-1.38,4.77,4.77,0,0,1-.44-2.1,4.21,4.21,0,0,1,.94-2.91,3.3,3.3,0,0,1,2.59-1,3.23,3.23,0,0,1,2.54,1.06A4.19,4.19,0,0,1,311.75,20.54Zm-5.81,0a3.6,3.6,0,0,0,.59,2.22,2.32,2.32,0,0,0,3.44,0,3.62,3.62,0,0,0,.59-2.23,3.55,3.55,0,0,0-.59-2.21,2.05,2.05,0,0,0-1.74-.76,2,2,0,0,0-1.71.75A3.53,3.53,0,0,0,305.94,20.54Z"/><path d="M323.51,24.36v-5a2,2,0,0,0-.39-1.36,1.51,1.51,0,0,0-1.22-.46,2,2,0,0,0-1.59.62,3,3,0,0,0-.51,1.91v4.26h-1.16v-5a2,2,0,0,0-.39-1.36,1.51,1.51,0,0,0-1.22-.46,1.91,1.91,0,0,0-1.59.65,3.53,3.53,0,0,0-.5,2.14v4h-1.16V16.73h.94l.19,1h0a2.3,2.3,0,0,1,.93-.87,2.78,2.78,0,0,1,1.33-.31,2.27,2.27,0,0,1,2.34,1.29h.05a2.43,2.43,0,0,1,1-.94,3,3,0,0,1,1.48-.35,2.6,2.6,0,0,1,1.94.66,3,3,0,0,1,.64,2.13v5Z"/><path d="M330.27,24.5a3.52,3.52,0,0,1-2.67-1,4,4,0,0,1-1-2.86,4.44,4.44,0,0,1,.91-2.94A3,3,0,0,1,330,16.59a2.89,2.89,0,0,1,2.27.94,3.65,3.65,0,0,1,.83,2.49v.73h-5.25a3,3,0,0,0,.67,2,2.34,2.34,0,0,0,1.82.7,6,6,0,0,0,2.43-.52v1a5.33,5.33,0,0,1-1.15.38A6.32,6.32,0,0,1,330.27,24.5ZM330,17.56a1.87,1.87,0,0,0-1.46.6,2.73,2.73,0,0,0-.65,1.65h4a2.56,2.56,0,0,0-.48-1.67A1.72,1.72,0,0,0,330,17.56Z"/><path d="M359.34,24.36h-1.18V14.18h5.67v1.05h-4.49V19h4.22V20h-4.22Z"/><path d="M365.24,14.66a.77.77,0,0,1,.2-.58.7.7,0,0,1,.49-.19.73.73,0,0,1,.48.19.94.94,0,0,1,0,1.16.68.68,0,0,1-.48.19.66.66,0,0,1-.49-.19A.78.78,0,0,1,365.24,14.66Zm1.26,9.7h-1.16V16.73h1.16Z"/><path d="M372.43,16.59a5,5,0,0,1,.91.08l-.16,1.07a3.89,3.89,0,0,0-.84-.1,2,2,0,0,0-1.58.75,2.74,2.74,0,0,0-.66,1.87v4.1H369V16.73h.95l.13,1.41h.06a3.29,3.29,0,0,1,1-1.15A2.3,2.3,0,0,1,372.43,16.59Z"/><path d="M378,24.5a3.52,3.52,0,0,1-2.67-1,4,4,0,0,1-1-2.86,4.49,4.49,0,0,1,.91-2.94,3,3,0,0,1,2.44-1.08,2.87,2.87,0,0,1,2.27.94A3.61,3.61,0,0,1,380.8,20v.73h-5.26a3,3,0,0,0,.68,2,2.32,2.32,0,0,0,1.81.7,6.05,6.05,0,0,0,2.44-.52v1a5.59,5.59,0,0,1-1.16.38A6.19,6.19,0,0,1,378,24.5Zm-.31-6.94a1.89,1.89,0,0,0-1.47.6,2.72,2.72,0,0,0-.64,1.65h4a2.56,2.56,0,0,0-.49-1.67A1.71,1.71,0,0,0,377.68,17.56Z"/><path d="M384.12,24.36h-1.18V14.18h5.67v1.05h-4.49V19h4.22V20h-4.22Z"/><path d="M396.71,20.54a4.19,4.19,0,0,1-.94,2.91,3.31,3.31,0,0,1-2.6,1.05,3.42,3.42,0,0,1-1.81-.48,3.18,3.18,0,0,1-1.23-1.38,4.77,4.77,0,0,1-.43-2.1,4.2,4.2,0,0,1,.93-2.91,3.32,3.32,0,0,1,2.59-1,3.23,3.23,0,0,1,2.55,1.06A4.19,4.19,0,0,1,396.71,20.54Zm-5.81,0a3.6,3.6,0,0,0,.58,2.22,2.32,2.32,0,0,0,3.44,0,3.55,3.55,0,0,0,.59-2.23,3.49,3.49,0,0,0-.59-2.21,2,2,0,0,0-1.73-.76,2,2,0,0,0-1.71.75A3.53,3.53,0,0,0,390.9,20.54Z"/><path d="M400.57,20.45l-2.65-3.72h1.32l2,2.92,2-2.92h1.31l-2.66,3.72,2.8,3.91h-1.31l-2.14-3.09-2.16,3.09h-1.31Z"/><path d="M53.67,205h-.5v-2H50.91v2h-.49V200.7h.49v1.82h2.26V200.7h.5Z"/><path d="M56.74,205l-.09-.46h0a1.25,1.25,0,0,1-.48.41,1.41,1.41,0,0,1-.59.11,1,1,0,0,1-.75-.25.88.88,0,0,1-.27-.7c0-.64.52-1,1.55-1h.55v-.2a.87.87,0,0,0-.16-.56.68.68,0,0,0-.52-.18,2.05,2.05,0,0,0-.91.25l-.15-.38a2.67,2.67,0,0,1,.52-.2,2.22,2.22,0,0,1,.57-.07,1.23,1.23,0,0,1,.85.25,1.08,1.08,0,0,1,.27.82V205Zm-1.1-.34a1,1,0,0,0,.72-.25.94.94,0,0,0,.26-.7v-.29l-.49,0a2,2,0,0,0-.84.18.54.54,0,0,0-.25.5.48.48,0,0,0,.16.4A.64.64,0,0,0,55.64,204.64Z"/><path d="M58.06,200.9a.3.3,0,0,1,.09-.24.29.29,0,0,1,.4,0,.37.37,0,0,1,0,.48.27.27,0,0,1-.4,0A.3.3,0,0,1,58.06,200.9Zm.53,4.08h-.48v-3.21h.48Z"/><path d="M61.09,201.71a1.48,1.48,0,0,1,.38,0l-.07.45a1.63,1.63,0,0,0-.35,0,.84.84,0,0,0-.66.32,1.12,1.12,0,0,0-.28.79V205h-.49v-3.21H60l.06.6h0a1.49,1.49,0,0,1,.43-.49A1,1,0,0,1,61.09,201.71Z"/><path d="M66.12,203.84a1.05,1.05,0,0,1-.41.88,1.77,1.77,0,0,1-1.11.32,2.77,2.77,0,0,1-1.17-.2v-.48a2.38,2.38,0,0,0,.57.18,3.26,3.26,0,0,0,.62.06,1.22,1.22,0,0,0,.75-.19.63.63,0,0,0,.25-.52.7.7,0,0,0-.09-.37.88.88,0,0,0-.3-.26,3.94,3.94,0,0,0-.64-.27,1.93,1.93,0,0,1-.85-.51,1.11,1.11,0,0,1-.26-.76,1,1,0,0,1,.37-.79,1.53,1.53,0,0,1,1-.29,2.81,2.81,0,0,1,1.17.23l-.15.43a2.85,2.85,0,0,0-1-.22,1,1,0,0,0-.62.17.56.56,0,0,0-.22.47.7.7,0,0,0,.08.37.75.75,0,0,0,.27.26,3,3,0,0,0,.6.26,2.3,2.3,0,0,1,.93.52A1,1,0,0,1,66.12,203.84Z"/><path d="M68.42,205a1.32,1.32,0,0,1-.57-.12,1,1,0,0,1-.44-.35h0a5,5,0,0,1,0,.53v1.32h-.49v-4.65h.4l.07.44h0a1.12,1.12,0,0,1,.44-.38,1.26,1.26,0,0,1,.57-.12,1.19,1.19,0,0,1,1,.44,1.87,1.87,0,0,1,.35,1.22,1.94,1.94,0,0,1-.35,1.23A1.2,1.2,0,0,1,68.42,205Zm-.07-2.92a.85.85,0,0,0-.71.28,1.34,1.34,0,0,0-.23.86v.11a1.61,1.61,0,0,0,.23,1,.86.86,0,0,0,.72.29.75.75,0,0,0,.65-.33,1.6,1.6,0,0,0,.24-.93,1.51,1.51,0,0,0-.24-.92A.77.77,0,0,0,68.35,202.12Z"/><path d="M72.58,205l-.1-.46h0a1.25,1.25,0,0,1-.48.41,1.5,1.5,0,0,1-.6.11,1,1,0,0,1-.75-.25.88.88,0,0,1-.27-.7q0-1,1.56-1h.54v-.2a.81.81,0,0,0-.16-.56.67.67,0,0,0-.52-.18,2.05,2.05,0,0,0-.91.25l-.15-.38a2.67,2.67,0,0,1,.52-.2,2.22,2.22,0,0,1,.57-.07,1.23,1.23,0,0,1,.85.25,1.08,1.08,0,0,1,.28.82V205Zm-1.1-.34a1,1,0,0,0,.71-.25.94.94,0,0,0,.26-.7v-.29l-.49,0a1.93,1.93,0,0,0-.83.18.55.55,0,0,0-.26.5.48.48,0,0,0,.16.4A.69.69,0,0,0,71.48,204.64Z"/><path d="M75.22,205a1.37,1.37,0,0,1-1.08-.43,1.79,1.79,0,0,1-.38-1.21,1.82,1.82,0,0,1,.39-1.25,1.39,1.39,0,0,1,1.1-.44,2.5,2.5,0,0,1,.47,0,1.26,1.26,0,0,1,.36.12l-.15.41a2.89,2.89,0,0,0-.35-.11,2.38,2.38,0,0,0-.34,0c-.65,0-1,.42-1,1.25a1.49,1.49,0,0,0,.24.91.84.84,0,0,0,.71.32,2.06,2.06,0,0,0,.82-.18v.43A1.74,1.74,0,0,1,75.22,205Z"/><path d="M78.15,205a1.46,1.46,0,0,1-1.12-.43,1.66,1.66,0,0,1-.41-1.21,1.81,1.81,0,0,1,.38-1.23,1.24,1.24,0,0,1,1-.46,1.19,1.19,0,0,1,1,.4,1.53,1.53,0,0,1,.35,1v.3H77.12a1.27,1.27,0,0,0,.28.86,1,1,0,0,0,.77.3,2.64,2.64,0,0,0,1-.22v.43a2.08,2.08,0,0,1-.48.16A3,3,0,0,1,78.15,205ZM78,202.12a.8.8,0,0,0-.62.25,1.2,1.2,0,0,0-.27.7h1.68a1.07,1.07,0,0,0-.21-.71A.71.71,0,0,0,78,202.12Z"/><path d="M34.4,238.64a1.05,1.05,0,0,1-.41.88,1.77,1.77,0,0,1-1.11.32,2.77,2.77,0,0,1-1.17-.2v-.48a2.38,2.38,0,0,0,.57.18,3.26,3.26,0,0,0,.62.06,1.22,1.22,0,0,0,.75-.19.63.63,0,0,0,.25-.52.7.7,0,0,0-.09-.37.88.88,0,0,0-.3-.26,3.94,3.94,0,0,0-.64-.27,1.93,1.93,0,0,1-.85-.51,1.11,1.11,0,0,1-.26-.76,1,1,0,0,1,.37-.79,1.53,1.53,0,0,1,1-.29,2.81,2.81,0,0,1,1.17.23l-.15.43a2.85,2.85,0,0,0-1-.22,1,1,0,0,0-.62.17.55.55,0,0,0-.22.47.7.7,0,0,0,.08.37.75.75,0,0,0,.27.26,3,3,0,0,0,.6.26,2.3,2.3,0,0,1,.93.52A1,1,0,0,1,34.4,238.64Z"/><path d="M35.16,235.7a.33.33,0,0,1,.09-.25.27.27,0,0,1,.2-.07.24.24,0,0,1,.2.08.37.37,0,0,1,0,.48.27.27,0,0,1-.4,0A.3.3,0,0,1,35.16,235.7Zm.53,4.08H35.2v-3.21h.49Z"/><path d="M37.5,238.14l-1.12-1.57h.55l.85,1.23.84-1.23h.55l-1.12,1.57,1.18,1.64h-.55l-.9-1.3-.91,1.3h-.55Z"/><path d="M39.6,238.4V238H41v.45Z"/><path d="M44.59,236.75a1.2,1.2,0,0,1-.45,1,2,2,0,0,1-1.27.35h-.5v1.68h-.5V235.5H43C44.05,235.5,44.59,235.91,44.59,236.75Zm-2.22.92h.45a1.56,1.56,0,0,0,1-.22.78.78,0,0,0,.3-.68.73.73,0,0,0-.28-.63,1.43,1.43,0,0,0-.87-.21h-.55Z"/><path d="M46.76,239.84a1.48,1.48,0,0,1-1.12-.43,1.7,1.7,0,0,1-.41-1.21,1.86,1.86,0,0,1,.38-1.23,1.27,1.27,0,0,1,1-.46,1.18,1.18,0,0,1,1,.4A1.49,1.49,0,0,1,48,238v.3H45.73a1.27,1.27,0,0,0,.29.86,1,1,0,0,0,.76.29,2.67,2.67,0,0,0,1-.21v.43a2.15,2.15,0,0,1-.49.16A2.9,2.9,0,0,1,46.76,239.84Zm-.13-2.92a.78.78,0,0,0-.61.25,1.09,1.09,0,0,0-.27.7h1.67a1.07,1.07,0,0,0-.2-.71A.73.73,0,0,0,46.63,236.92Z"/><path d="M50.24,236.51a1.48,1.48,0,0,1,.38,0l-.06.45a1.72,1.72,0,0,0-.36-.05.84.84,0,0,0-.66.32,1.12,1.12,0,0,0-.28.79v1.72h-.49v-3.21h.41l0,.59h0a1.34,1.34,0,0,1,.43-.48A1,1,0,0,1,50.24,236.51Z"/><path d="M51,238.4V238h1.44v.45Z"/><path d="M55.62,239.78H53.23V235.5h2.39v.44H53.73v1.38H55.5v.44H53.73v1.58h1.89Z"/><path d="M60.58,239.78v-2.09a.84.84,0,0,0-.16-.57.63.63,0,0,0-.51-.2.8.8,0,0,0-.67.27,1.19,1.19,0,0,0-.22.8v1.79h-.48v-2.09a.84.84,0,0,0-.17-.57.63.63,0,0,0-.51-.2.8.8,0,0,0-.67.28,1.49,1.49,0,0,0-.21.9v1.68h-.49v-3.21h.4L57,237h0a.93.93,0,0,1,.39-.37,1.25,1.25,0,0,1,.56-.13.94.94,0,0,1,1,.55h0a1,1,0,0,1,.41-.4,1.26,1.26,0,0,1,.62-.15,1.07,1.07,0,0,1,.82.28,1.27,1.27,0,0,1,.27.9v2.09Z"/><path d="M66.12,238.64a1.05,1.05,0,0,1-.41.88,1.77,1.77,0,0,1-1.11.32,2.77,2.77,0,0,1-1.17-.2v-.48a2.38,2.38,0,0,0,.57.18,3.26,3.26,0,0,0,.62.06,1.22,1.22,0,0,0,.75-.19.63.63,0,0,0,.25-.52.7.7,0,0,0-.09-.37.88.88,0,0,0-.3-.26,3.94,3.94,0,0,0-.64-.27,1.93,1.93,0,0,1-.85-.51,1.11,1.11,0,0,1-.26-.76,1,1,0,0,1,.37-.79,1.53,1.53,0,0,1,1-.29,2.81,2.81,0,0,1,1.17.23l-.15.43a2.85,2.85,0,0,0-1-.22,1,1,0,0,0-.62.17.55.55,0,0,0-.22.47.7.7,0,0,0,.08.37.75.75,0,0,0,.27.26,3,3,0,0,0,.6.26,2.3,2.3,0,0,1,.93.52A1,1,0,0,1,66.12,238.64Z"/><path d="M68.42,239.84a1.32,1.32,0,0,1-.57-.12,1,1,0,0,1-.44-.35h0a5,5,0,0,1,0,.53v1.32h-.49v-4.65h.4l.07.44h0a1.12,1.12,0,0,1,.44-.38,1.26,1.26,0,0,1,.57-.12,1.19,1.19,0,0,1,1,.44,1.87,1.87,0,0,1,.35,1.22,1.94,1.94,0,0,1-.35,1.23A1.2,1.2,0,0,1,68.42,239.84Zm-.07-2.92a.85.85,0,0,0-.71.28,1.34,1.34,0,0,0-.23.86v.11a1.61,1.61,0,0,0,.23,1,.86.86,0,0,0,.72.29.75.75,0,0,0,.65-.33,1.6,1.6,0,0,0,.24-.93,1.56,1.56,0,0,0-.24-.93A.79.79,0,0,0,68.35,236.92Z"/><path d="M72.58,239.78l-.1-.46h0a1.25,1.25,0,0,1-.48.41,1.5,1.5,0,0,1-.6.11,1,1,0,0,1-.75-.25.88.88,0,0,1-.27-.7c0-.65.52-1,1.56-1h.54v-.2a.81.81,0,0,0-.16-.56.67.67,0,0,0-.52-.18,2.17,2.17,0,0,0-.91.24l-.15-.37a2.67,2.67,0,0,1,.52-.2,2.22,2.22,0,0,1,.57-.07,1.23,1.23,0,0,1,.85.25,1.08,1.08,0,0,1,.28.82v2.19Zm-1.1-.34a1,1,0,0,0,.71-.25.94.94,0,0,0,.26-.7v-.29l-.49,0a1.93,1.93,0,0,0-.83.18.55.55,0,0,0-.26.5.49.49,0,0,0,.16.4A.69.69,0,0,0,71.48,239.44Z"/><path d="M75.22,239.84a1.37,1.37,0,0,1-1.08-.43,1.79,1.79,0,0,1-.38-1.21,1.82,1.82,0,0,1,.39-1.25,1.39,1.39,0,0,1,1.1-.44,2.5,2.5,0,0,1,.47.05,1.26,1.26,0,0,1,.36.12l-.15.41a2.89,2.89,0,0,0-.35-.11,2.38,2.38,0,0,0-.34,0c-.65,0-1,.42-1,1.25a1.49,1.49,0,0,0,.24.91.84.84,0,0,0,.71.31,2,2,0,0,0,.82-.17v.43A1.74,1.74,0,0,1,75.22,239.84Z"/><path d="M78.15,239.84a1.46,1.46,0,0,1-1.12-.43,1.66,1.66,0,0,1-.41-1.21A1.81,1.81,0,0,1,77,237a1.24,1.24,0,0,1,1-.46,1.19,1.19,0,0,1,1,.4,1.53,1.53,0,0,1,.35,1.05v.3H77.12a1.27,1.27,0,0,0,.28.86,1,1,0,0,0,.77.29,2.62,2.62,0,0,0,1-.21v.43a2.08,2.08,0,0,1-.48.16A3,3,0,0,1,78.15,239.84ZM78,236.92a.8.8,0,0,0-.62.25,1.2,1.2,0,0,0-.27.7h1.68a1.07,1.07,0,0,0-.21-.71A.71.71,0,0,0,78,236.92Z"/><path d="M423.58,65.78h-.5V61.5h2.39v.44h-1.89v1.57h1.77V64h-1.77Z"/><path d="M428.87,64.17a1.8,1.8,0,0,1-.39,1.23,1.4,1.4,0,0,1-1.09.44,1.5,1.5,0,0,1-.77-.2,1.37,1.37,0,0,1-.51-.58,2.08,2.08,0,0,1-.19-.89,1.77,1.77,0,0,1,.4-1.22,1.39,1.39,0,0,1,1.09-.44,1.36,1.36,0,0,1,1.07.45A1.78,1.78,0,0,1,428.87,64.17Zm-2.44,0a1.57,1.57,0,0,0,.24.94.88.88,0,0,0,.73.32.85.85,0,0,0,.72-.32,1.48,1.48,0,0,0,.25-.94,1.45,1.45,0,0,0-.25-.93.87.87,0,0,0-.73-.32.85.85,0,0,0-.72.32A1.52,1.52,0,0,0,426.43,64.17Z"/><path d="M430.18,62.57v2.08a.85.85,0,0,0,.18.59.73.73,0,0,0,.56.19.93.93,0,0,0,.74-.27,1.39,1.39,0,0,0,.23-.9V62.57h.49v3.21H432l-.07-.43h0a1,1,0,0,1-.41.36,1.33,1.33,0,0,1-.61.13,1.22,1.22,0,0,1-.88-.28,1.2,1.2,0,0,1-.29-.89v-2.1Z"/><path d="M434.87,62.51a1.51,1.51,0,0,1,.39,0l-.07.45a1.63,1.63,0,0,0-.35,0,.88.88,0,0,0-.67.32,1.17,1.17,0,0,0-.27.79v1.72h-.49V62.57h.4l.06.59h0a1.35,1.35,0,0,1,.43-.48A1,1,0,0,1,434.87,62.51Z"/><path d="M435.59,64.39V64H437v.44Z"/><path d="M440.58,62.74a1.23,1.23,0,0,1-.44,1,2.05,2.05,0,0,1-1.28.35h-.5v1.68h-.5V61.5H439C440,61.5,440.58,61.91,440.58,62.74Zm-2.22.93h.45a1.62,1.62,0,0,0,1-.22.8.8,0,0,0,.29-.68.72.72,0,0,0-.28-.63,1.41,1.41,0,0,0-.86-.21h-.56Z"/><path d="M442.76,65.84a1.48,1.48,0,0,1-1.12-.43,1.68,1.68,0,0,1-.42-1.21,1.81,1.81,0,0,1,.39-1.23,1.24,1.24,0,0,1,1-.46,1.22,1.22,0,0,1,1,.4,1.52,1.52,0,0,1,.35,1v.31h-2.21a1.27,1.27,0,0,0,.28.86,1,1,0,0,0,.77.29,2.66,2.66,0,0,0,1-.21v.43a2.54,2.54,0,0,1-.49.16A2.79,2.79,0,0,1,442.76,65.84Zm-.13-2.92a.79.79,0,0,0-.62.25,1.2,1.2,0,0,0-.27.7h1.68a1.07,1.07,0,0,0-.21-.71A.71.71,0,0,0,442.63,62.92Z"/><path d="M446.23,62.51a1.56,1.56,0,0,1,.39,0l-.07.45a1.63,1.63,0,0,0-.35,0,.88.88,0,0,0-.67.32,1.17,1.17,0,0,0-.28.79v1.72h-.48V62.57h.4l.06.59h0a1.35,1.35,0,0,1,.43-.48A1,1,0,0,1,446.23,62.51Z"/><path d="M447,64.39V64h1.44v.44Z"/><path d="M451.61,65.78h-2.39V61.5h2.39v.44h-1.89v1.38h1.77v.44h-1.77v1.57h1.89Z"/><path d="M456.58,65.78V63.69a.84.84,0,0,0-.17-.57.63.63,0,0,0-.51-.2.84.84,0,0,0-.67.26A1.31,1.31,0,0,0,455,64v1.79h-.49V63.69a.84.84,0,0,0-.16-.57.64.64,0,0,0-.52-.2.82.82,0,0,0-.67.28,1.49,1.49,0,0,0-.21.9v1.68h-.48V62.57h.39L453,63h0a.93.93,0,0,1,.39-.37,1.18,1.18,0,0,1,.56-.13,1,1,0,0,1,1,.55h0a1,1,0,0,1,.42-.4,1.24,1.24,0,0,1,.62-.15,1.06,1.06,0,0,1,.81.28,1.27,1.27,0,0,1,.27.9v2.09Z"/><path d="M462.11,64.64a1,1,0,0,1-.41.88,1.77,1.77,0,0,1-1.11.32,2.77,2.77,0,0,1-1.17-.2v-.48a3.45,3.45,0,0,0,.57.18,3.34,3.34,0,0,0,.62.06,1.22,1.22,0,0,0,.75-.19.6.6,0,0,0,.25-.52.7.7,0,0,0-.09-.37.88.88,0,0,0-.3-.26,4.17,4.17,0,0,0-.63-.27,2,2,0,0,1-.86-.51,1.11,1.11,0,0,1-.25-.76.94.94,0,0,1,.37-.79,1.51,1.51,0,0,1,1-.29,2.86,2.86,0,0,1,1.18.23l-.16.43a2.62,2.62,0,0,0-1-.22,1,1,0,0,0-.62.17.55.55,0,0,0-.22.47.81.81,0,0,0,.08.37.89.89,0,0,0,.28.26,4,4,0,0,0,.59.26,2.3,2.3,0,0,1,.93.52A1,1,0,0,1,462.11,64.64Z"/><path d="M464.41,65.84a1.32,1.32,0,0,1-.57-.12,1.06,1.06,0,0,1-.44-.35h0a4.84,4.84,0,0,1,0,.53v1.32h-.48V62.57h.39l.07.44h0a1.12,1.12,0,0,1,.44-.38,1.32,1.32,0,0,1,.57-.12,1.19,1.19,0,0,1,1,.44,1.92,1.92,0,0,1,.34,1.22,1.88,1.88,0,0,1-.35,1.23A1.19,1.19,0,0,1,464.41,65.84Zm-.07-2.92a.84.84,0,0,0-.71.28,1.4,1.4,0,0,0-.23.86v.11a1.61,1.61,0,0,0,.23,1,.86.86,0,0,0,.72.29.76.76,0,0,0,.66-.34,2,2,0,0,0,0-1.85A.79.79,0,0,0,464.34,62.92Z"/><path d="M468.57,65.78l-.1-.46h0a1.35,1.35,0,0,1-.48.41,1.5,1.5,0,0,1-.6.11,1,1,0,0,1-.74-.25.89.89,0,0,1-.28-.7q0-1,1.56-1h.54v-.2a.8.8,0,0,0-.16-.56.67.67,0,0,0-.52-.18,2.17,2.17,0,0,0-.91.24l-.15-.37a2.77,2.77,0,0,1,.53-.2,2.1,2.1,0,0,1,.56-.07,1.22,1.22,0,0,1,.85.25,1,1,0,0,1,.28.82v2.19Zm-1.1-.34a1,1,0,0,0,.71-.25.91.91,0,0,0,.26-.7V64.2l-.48,0a1.94,1.94,0,0,0-.84.18.55.55,0,0,0-.26.5.53.53,0,0,0,.16.4A.69.69,0,0,0,467.47,65.44Z"/><path d="M471.21,65.84a1.34,1.34,0,0,1-1.07-.43,1.74,1.74,0,0,1-.39-1.21,1.82,1.82,0,0,1,.39-1.25,1.42,1.42,0,0,1,1.11-.44,2.4,2.4,0,0,1,.46.05,1.16,1.16,0,0,1,.36.12l-.15.41a2.42,2.42,0,0,0-.35-.11,2.26,2.26,0,0,0-.33,0c-.66,0-1,.42-1,1.25a1.49,1.49,0,0,0,.24.91.81.81,0,0,0,.7.31,2.13,2.13,0,0,0,.83-.17v.43A1.81,1.81,0,0,1,471.21,65.84Z"/><path d="M474.14,65.84a1.51,1.51,0,0,1-1.12-.43,1.72,1.72,0,0,1-.41-1.21A1.86,1.86,0,0,1,473,63a1.27,1.27,0,0,1,1-.46,1.18,1.18,0,0,1,1,.4,1.47,1.47,0,0,1,.35,1v.31h-2.21a1.27,1.27,0,0,0,.29.86,1,1,0,0,0,.76.29,2.67,2.67,0,0,0,1-.21v.43a2.78,2.78,0,0,1-.49.16A2.9,2.9,0,0,1,474.14,65.84ZM474,62.92a.76.76,0,0,0-.61.25,1.15,1.15,0,0,0-.28.7h1.68a1.07,1.07,0,0,0-.2-.71A.73.73,0,0,0,474,62.92Z"/><path d="M424.4,100.58h-.5V96.74h-1.36V96.3h3.21v.44H424.4Z"/><path d="M428.52,100.58V98.5a.82.82,0,0,0-.18-.58.7.7,0,0,0-.56-.2.91.91,0,0,0-.73.28,1.35,1.35,0,0,0-.24.9v1.68h-.48V96h.48V97.4c0,.17,0,.3,0,.41h0a1,1,0,0,1,.41-.36,1.29,1.29,0,0,1,.6-.13,1.25,1.25,0,0,1,.89.28,1.19,1.19,0,0,1,.29.89v2.09Z"/><path d="M431.47,97.31a1.56,1.56,0,0,1,.39,0l-.07.45a1.63,1.63,0,0,0-.35,0,.88.88,0,0,0-.67.32,1.17,1.17,0,0,0-.28.79v1.72H430V97.37h.4l.06.59h0a1.35,1.35,0,0,1,.43-.48A1,1,0,0,1,431.47,97.31Z"/><path d="M433.81,100.64a1.48,1.48,0,0,1-1.12-.44,1.68,1.68,0,0,1-.41-1.2,1.86,1.86,0,0,1,.38-1.23,1.27,1.27,0,0,1,1-.46,1.18,1.18,0,0,1,.95.4,1.47,1.47,0,0,1,.35,1v.31h-2.21a1.27,1.27,0,0,0,.29.86,1,1,0,0,0,.76.29,2.67,2.67,0,0,0,1-.21v.43a2.78,2.78,0,0,1-.49.16A2.9,2.9,0,0,1,433.81,100.64Zm-.13-2.92a.76.76,0,0,0-.61.25,1.15,1.15,0,0,0-.28.7h1.68a1.13,1.13,0,0,0-.2-.71A.73.73,0,0,0,433.68,97.72Z"/><path d="M437.18,100.64a1.47,1.47,0,0,1-1.12-.44,1.64,1.64,0,0,1-.41-1.2,1.81,1.81,0,0,1,.38-1.23,1.24,1.24,0,0,1,1-.46,1.19,1.19,0,0,1,1,.4,1.52,1.52,0,0,1,.35,1v.31h-2.21a1.22,1.22,0,0,0,.29.86,1,1,0,0,0,.76.29,2.62,2.62,0,0,0,1-.21v.43a2.7,2.7,0,0,1-.48.16A3,3,0,0,1,437.18,100.64Zm-.13-2.92a.8.8,0,0,0-.62.25,1.2,1.2,0,0,0-.27.7h1.68a1.07,1.07,0,0,0-.21-.71A.71.71,0,0,0,437.05,97.72Z"/><path d="M438.92,99.19v-.44h1.44v.44Z"/><path d="M443.91,97.54a1.2,1.2,0,0,1-.44,1,2,2,0,0,1-1.27.36h-.51v1.68h-.5V96.3h1.11C443.37,96.3,443.91,96.71,443.91,97.54Zm-2.22.93h.45a1.62,1.62,0,0,0,1-.22.77.77,0,0,0,.29-.68.72.72,0,0,0-.27-.63,1.47,1.47,0,0,0-.87-.21h-.56Z"/><path d="M446.09,100.64a1.45,1.45,0,0,1-1.12-.44,1.64,1.64,0,0,1-.42-1.2,1.81,1.81,0,0,1,.39-1.23,1.24,1.24,0,0,1,1-.46,1.2,1.2,0,0,1,1,.4,1.52,1.52,0,0,1,.35,1v.31h-2.21a1.27,1.27,0,0,0,.28.86,1,1,0,0,0,.77.29,2.66,2.66,0,0,0,1-.21v.43a2.7,2.7,0,0,1-.48.16A3,3,0,0,1,446.09,100.64ZM446,97.72a.79.79,0,0,0-.62.25,1.2,1.2,0,0,0-.27.7h1.68a1.07,1.07,0,0,0-.21-.71A.71.71,0,0,0,446,97.72Z"/><path d="M449.56,97.31a1.56,1.56,0,0,1,.39,0l-.07.45a1.63,1.63,0,0,0-.35,0,.88.88,0,0,0-.67.32,1.17,1.17,0,0,0-.27.79v1.72h-.49V97.37h.4l.06.59h0a1.35,1.35,0,0,1,.43-.48A1,1,0,0,1,449.56,97.31Z"/><path d="M450.28,99.19v-.44h1.44v.44Z"/><path d="M454.94,100.58h-2.39V96.3h2.39v.44h-1.89v1.38h1.78v.44h-1.78v1.57h1.89Z"/><path d="M459.91,100.58V98.49a.84.84,0,0,0-.17-.57.6.6,0,0,0-.5-.2.85.85,0,0,0-.68.26,1.31,1.31,0,0,0-.21.81v1.79h-.49V98.49a.84.84,0,0,0-.16-.57.64.64,0,0,0-.52-.2.79.79,0,0,0-.66.28,1.42,1.42,0,0,0-.22.9v1.68h-.48V97.37h.39l.08.44h0a1.06,1.06,0,0,1,.39-.37,1.18,1.18,0,0,1,.56-.13,1,1,0,0,1,1,.55h0a1,1,0,0,1,.42-.4,1.26,1.26,0,0,1,.62-.15,1.06,1.06,0,0,1,.81.28,1.21,1.21,0,0,1,.28.9v2.09Z"/><path d="M465.45,99.44a1.05,1.05,0,0,1-.41.88,1.82,1.82,0,0,1-1.12.32,2.77,2.77,0,0,1-1.17-.2V100a3.45,3.45,0,0,0,.57.18,3.34,3.34,0,0,0,.62.06,1.22,1.22,0,0,0,.75-.19.6.6,0,0,0,.25-.52.7.7,0,0,0-.09-.37.88.88,0,0,0-.3-.26,4.17,4.17,0,0,0-.63-.27,2,2,0,0,1-.86-.51,1.11,1.11,0,0,1-.25-.76.94.94,0,0,1,.37-.79,1.51,1.51,0,0,1,1-.29,2.86,2.86,0,0,1,1.18.23l-.16.43a2.58,2.58,0,0,0-1-.22,1,1,0,0,0-.62.17.55.55,0,0,0-.22.47.81.81,0,0,0,.08.37.89.89,0,0,0,.28.26,3.73,3.73,0,0,0,.6.26,2.32,2.32,0,0,1,.92.52A1,1,0,0,1,465.45,99.44Z"/><path d="M467.74,100.64a1.32,1.32,0,0,1-.57-.12,1,1,0,0,1-.43-.35h0a4.91,4.91,0,0,1,0,.53V102h-.49V97.37h.39l.07.44h0a1.1,1.1,0,0,1,.43-.38,1.32,1.32,0,0,1,.57-.12,1.19,1.19,0,0,1,1,.44,1.93,1.93,0,0,1,.35,1.22,1.88,1.88,0,0,1-.36,1.23A1.19,1.19,0,0,1,467.74,100.64Zm-.07-2.92A.84.84,0,0,0,467,98a1.34,1.34,0,0,0-.22.86V99a1.61,1.61,0,0,0,.22,1,.86.86,0,0,0,.72.29.76.76,0,0,0,.66-.34,2,2,0,0,0,0-1.85A.79.79,0,0,0,467.67,97.72Z"/><path d="M471.9,100.58l-.1-.46h0a1.35,1.35,0,0,1-.48.41,1.5,1.5,0,0,1-.6.11,1,1,0,0,1-.74-.25.9.9,0,0,1-.27-.7c0-.65.51-1,1.55-1h.55v-.2a.8.8,0,0,0-.17-.56.65.65,0,0,0-.52-.18,2.13,2.13,0,0,0-.9.24l-.15-.37a2.45,2.45,0,0,1,.52-.2,2.1,2.1,0,0,1,.56-.07,1.2,1.2,0,0,1,.85.25,1,1,0,0,1,.28.82v2.19Zm-1.1-.34a1,1,0,0,0,.72-.25.94.94,0,0,0,.25-.7V99l-.48,0a1.81,1.81,0,0,0-.84.18.54.54,0,0,0-.25.5.49.49,0,0,0,.16.4A.64.64,0,0,0,470.8,100.24Z"/><path d="M474.55,100.64a1.35,1.35,0,0,1-1.08-.43,1.75,1.75,0,0,1-.39-1.22,1.81,1.81,0,0,1,.39-1.24,1.42,1.42,0,0,1,1.11-.44,2.4,2.4,0,0,1,.46,0,1.07,1.07,0,0,1,.36.12l-.15.41a2.42,2.42,0,0,0-.35-.11,2.26,2.26,0,0,0-.33,0c-.66,0-1,.42-1,1.25a1.49,1.49,0,0,0,.24.91.82.82,0,0,0,.7.31,2.09,2.09,0,0,0,.83-.17v.43A1.8,1.8,0,0,1,474.55,100.64Z"/><path d="M477.48,100.64a1.49,1.49,0,0,1-1.13-.44,1.68,1.68,0,0,1-.41-1.2,1.86,1.86,0,0,1,.38-1.23,1.27,1.27,0,0,1,1-.46,1.18,1.18,0,0,1,.95.4,1.48,1.48,0,0,1,.36,1v.31h-2.22a1.27,1.27,0,0,0,.29.86,1,1,0,0,0,.76.29,2.67,2.67,0,0,0,1-.21v.43a2.78,2.78,0,0,1-.49.16A2.87,2.87,0,0,1,477.48,100.64Zm-.14-2.92a.78.78,0,0,0-.61.25,1.09,1.09,0,0,0-.27.7h1.67a1.07,1.07,0,0,0-.2-.71A.73.73,0,0,0,477.34,97.72Z"/><path d="M425.47,135.38h-2.39V131.1h2.39v.44h-1.89v1.38h1.77v.44h-1.77v1.57h1.89Z"/><path d="M428.54,135.38V133.3a.82.82,0,0,0-.18-.58.72.72,0,0,0-.56-.2.92.92,0,0,0-.74.28,1.41,1.41,0,0,0-.23.9v1.68h-.49v-3.21h.4l.08.44h0a1,1,0,0,1,.42-.37,1.32,1.32,0,0,1,.6-.13,1.18,1.18,0,0,1,.87.28,1.17,1.17,0,0,1,.3.89v2.1Z"/><path d="M434.07,134.24a1,1,0,0,1-.41.88,1.77,1.77,0,0,1-1.11.32,2.77,2.77,0,0,1-1.17-.2v-.48a3.45,3.45,0,0,0,.57.18,3.34,3.34,0,0,0,.62.06,1.22,1.22,0,0,0,.75-.19.6.6,0,0,0,.25-.52.7.7,0,0,0-.09-.37.88.88,0,0,0-.3-.26,4.17,4.17,0,0,0-.63-.27,2.07,2.07,0,0,1-.86-.51,1.11,1.11,0,0,1-.25-.76.94.94,0,0,1,.37-.79,1.51,1.51,0,0,1,1-.3,2.86,2.86,0,0,1,1.18.24l-.16.43a2.62,2.62,0,0,0-1-.22,1,1,0,0,0-.62.17.55.55,0,0,0-.22.47.81.81,0,0,0,.08.37.89.89,0,0,0,.28.26,4,4,0,0,0,.59.26,2.3,2.3,0,0,1,.93.52A1,1,0,0,1,434.07,134.24Z"/><path d="M436.37,135.44a1.32,1.32,0,0,1-.57-.12,1.06,1.06,0,0,1-.44-.35h0a4.84,4.84,0,0,1,0,.53v1.32h-.48v-4.65h.39l.07.44h0a1.12,1.12,0,0,1,.44-.38,1.32,1.32,0,0,1,.57-.12,1.19,1.19,0,0,1,1,.44,1.92,1.92,0,0,1,.34,1.22,1.88,1.88,0,0,1-.35,1.23A1.19,1.19,0,0,1,436.37,135.44Zm-.07-2.92a.84.84,0,0,0-.71.28,1.4,1.4,0,0,0-.23.86v.11a1.61,1.61,0,0,0,.23,1,.86.86,0,0,0,.72.29.76.76,0,0,0,.66-.34,2,2,0,0,0,0-1.85A.79.79,0,0,0,436.3,132.52Z"/><path d="M440.53,135.38l-.1-.46h0a1.35,1.35,0,0,1-.48.41,1.5,1.5,0,0,1-.6.11,1,1,0,0,1-.74-.25.87.87,0,0,1-.28-.7q0-1,1.56-1l.54,0v-.19a.8.8,0,0,0-.16-.56.67.67,0,0,0-.52-.18,2.17,2.17,0,0,0-.91.24l-.15-.37a2.77,2.77,0,0,1,.53-.2,2.1,2.1,0,0,1,.56-.07,1.22,1.22,0,0,1,.85.25,1,1,0,0,1,.28.82v2.19Zm-1.1-.34a1,1,0,0,0,.71-.25.91.91,0,0,0,.26-.7v-.29l-.48,0a1.81,1.81,0,0,0-.84.18.55.55,0,0,0-.26.5.53.53,0,0,0,.16.4A.69.69,0,0,0,439.43,135Z"/><path d="M443.17,135.44a1.34,1.34,0,0,1-1.07-.43,1.75,1.75,0,0,1-.39-1.22,1.81,1.81,0,0,1,.39-1.24,1.42,1.42,0,0,1,1.11-.44,2.4,2.4,0,0,1,.46,0,1.16,1.16,0,0,1,.36.12l-.15.41a1.9,1.9,0,0,0-.68-.15c-.66,0-1,.42-1,1.25a1.49,1.49,0,0,0,.24.91.81.81,0,0,0,.7.31,2.13,2.13,0,0,0,.83-.17v.43A1.81,1.81,0,0,1,443.17,135.44Z"/><path d="M446.1,135.44A1.48,1.48,0,0,1,445,135a1.68,1.68,0,0,1-.41-1.2,1.86,1.86,0,0,1,.38-1.23,1.27,1.27,0,0,1,1-.46,1.18,1.18,0,0,1,.95.4,1.47,1.47,0,0,1,.35,1v.31h-2.21a1.27,1.27,0,0,0,.29.86,1,1,0,0,0,.76.29,2.67,2.67,0,0,0,1-.21v.43a2.78,2.78,0,0,1-.49.16A2.9,2.9,0,0,1,446.1,135.44Zm-.13-2.92a.76.76,0,0,0-.61.25,1.15,1.15,0,0,0-.28.7h1.68a1.07,1.07,0,0,0-.2-.71A.73.73,0,0,0,446,132.52Z"/><path d="M425.47,170.18h-2.39V165.9h2.39v.44h-1.89v1.38h1.77v.44h-1.77v1.57h1.89Z"/><path d="M430.44,170.18v-2.09a.83.83,0,0,0-.17-.57.63.63,0,0,0-.51-.2.84.84,0,0,0-.67.26,1.3,1.3,0,0,0-.22.81v1.79h-.48v-2.09a.83.83,0,0,0-.17-.57.63.63,0,0,0-.51-.2.78.78,0,0,0-.67.28,1.47,1.47,0,0,0-.21.89v1.69h-.49V167h.4l.08.44h0a.93.93,0,0,1,.39-.37,1.16,1.16,0,0,1,.56-.13,1,1,0,0,1,1,.54h0a1,1,0,0,1,.41-.39,1.3,1.3,0,0,1,.63-.15,1.06,1.06,0,0,1,.81.28,1.25,1.25,0,0,1,.27.89v2.1Z"/><path d="M436,169a1,1,0,0,1-.41.88,1.77,1.77,0,0,1-1.11.32,2.77,2.77,0,0,1-1.17-.2v-.48a3.17,3.17,0,0,0,.57.18,3.26,3.26,0,0,0,.62.06,1.22,1.22,0,0,0,.75-.19.6.6,0,0,0,.25-.52.7.7,0,0,0-.09-.37.88.88,0,0,0-.3-.26,3.94,3.94,0,0,0-.64-.27,2.1,2.1,0,0,1-.85-.51,1.11,1.11,0,0,1-.26-.76,1,1,0,0,1,.38-.79,1.49,1.49,0,0,1,1-.3,2.78,2.78,0,0,1,1.17.24l-.15.43a2.62,2.62,0,0,0-1-.22,1,1,0,0,0-.62.17.55.55,0,0,0-.22.47.7.7,0,0,0,.08.37.79.79,0,0,0,.28.26,4,4,0,0,0,.59.26,2.43,2.43,0,0,1,.93.51A1,1,0,0,1,436,169Z"/><path d="M438.27,170.24a1.32,1.32,0,0,1-.57-.12,1.06,1.06,0,0,1-.44-.35h0a4.84,4.84,0,0,1,0,.53v1.32h-.48V167h.39l.07.44h0a1.12,1.12,0,0,1,.44-.38,1.29,1.29,0,0,1,.57-.12,1.19,1.19,0,0,1,1,.44,1.92,1.92,0,0,1,.34,1.22,1.88,1.88,0,0,1-.35,1.23A1.19,1.19,0,0,1,438.27,170.24Zm-.07-2.92a.83.83,0,0,0-.71.28,1.4,1.4,0,0,0-.23.86v.11a1.61,1.61,0,0,0,.23,1,.86.86,0,0,0,.72.29.73.73,0,0,0,.65-.34,1.9,1.9,0,0,0,0-1.85A.76.76,0,0,0,438.2,167.32Z"/><path d="M442.43,170.18l-.1-.46h0a1.35,1.35,0,0,1-.48.41,1.5,1.5,0,0,1-.6.11,1,1,0,0,1-.75-.25.9.9,0,0,1-.27-.7q0-1,1.56-1l.54,0v-.19a.8.8,0,0,0-.16-.56.67.67,0,0,0-.52-.18,2.17,2.17,0,0,0-.91.24l-.15-.37a2.67,2.67,0,0,1,.52-.2,2.22,2.22,0,0,1,.57-.07,1.22,1.22,0,0,1,.85.25,1,1,0,0,1,.28.82v2.19Zm-1.1-.34a1,1,0,0,0,.71-.25.91.91,0,0,0,.26-.7v-.29l-.48,0a1.81,1.81,0,0,0-.84.18.55.55,0,0,0-.26.5.53.53,0,0,0,.16.4A.69.69,0,0,0,441.33,169.84Z"/><path d="M445.07,170.24a1.37,1.37,0,0,1-1.08-.43,2.16,2.16,0,0,1,0-2.46,1.42,1.42,0,0,1,1.11-.44,2.49,2.49,0,0,1,.46.05,1.26,1.26,0,0,1,.36.12l-.15.41a2.89,2.89,0,0,0-.35-.11,2.38,2.38,0,0,0-.34,0c-.65,0-1,.42-1,1.25a1.56,1.56,0,0,0,.24.91.84.84,0,0,0,.71.31,2,2,0,0,0,.82-.17v.43A1.74,1.74,0,0,1,445.07,170.24Z"/><path d="M448,170.24a1.47,1.47,0,0,1-1.12-.44,1.68,1.68,0,0,1-.41-1.2,1.86,1.86,0,0,1,.38-1.23,1.27,1.27,0,0,1,1-.46,1.18,1.18,0,0,1,.95.4,1.47,1.47,0,0,1,.35,1v.31H447a1.29,1.29,0,0,0,.29.86,1,1,0,0,0,.76.29,2.67,2.67,0,0,0,1-.21V170a3.08,3.08,0,0,1-.49.16A3,3,0,0,1,448,170.24Zm-.13-2.92a.8.8,0,0,0-.62.25,1.2,1.2,0,0,0-.27.7h1.68a1.13,1.13,0,0,0-.2-.71A.75.75,0,0,0,447.87,167.32Z"/><path d="M423.58,205h-.5V200.7h2.39v.44h-1.89v1.57h1.77v.44h-1.77Z"/><path d="M426.06,200.9a.37.37,0,0,1,.08-.25.31.31,0,0,1,.21-.07.26.26,0,0,1,.2.08.37.37,0,0,1,0,.48.26.26,0,0,1-.2.08.28.28,0,0,1-.21-.08A.33.33,0,0,1,426.06,200.9Zm.53,4.08h-.49v-3.21h.49Z"/><path d="M430.25,201.77v.31l-.6.07a.87.87,0,0,1,.15.27,1.06,1.06,0,0,1,.06.37.93.93,0,0,1-.32.75,1.27,1.27,0,0,1-.88.28,1.14,1.14,0,0,1-.27,0,.48.48,0,0,0-.31.41.2.2,0,0,0,.11.2.8.8,0,0,0,.37.06h.57a1.27,1.27,0,0,1,.8.22.79.79,0,0,1,.28.64.91.91,0,0,1-.43.81,2.27,2.27,0,0,1-1.25.28,1.76,1.76,0,0,1-1-.23.76.76,0,0,1-.34-.66.72.72,0,0,1,.19-.51,1,1,0,0,1,.52-.29.55.55,0,0,1-.2-.17.45.45,0,0,1-.09-.28.51.51,0,0,1,.1-.3.94.94,0,0,1,.29-.26.84.84,0,0,1-.4-.35,1,1,0,0,1-.16-.56,1,1,0,0,1,.32-.81,1.29,1.29,0,0,1,.89-.29,1.65,1.65,0,0,1,.46.06Zm-2.56,3.75a.43.43,0,0,0,.22.39,1.18,1.18,0,0,0,.63.14,1.8,1.8,0,0,0,.91-.18.58.58,0,0,0,.29-.5.39.39,0,0,0-.16-.36,1.24,1.24,0,0,0-.61-.1h-.58a.77.77,0,0,0-.52.16A.55.55,0,0,0,427.69,205.52Zm.26-2.72a.69.69,0,0,0,.19.51.8.8,0,0,0,.53.17c.48,0,.71-.23.71-.69a.64.64,0,0,0-.72-.72.65.65,0,0,0-.71.73Z"/><path d="M431.36,201.77v2.08a.85.85,0,0,0,.18.59.73.73,0,0,0,.56.19.92.92,0,0,0,.74-.27,1.39,1.39,0,0,0,.23-.9v-1.69h.49V205h-.4l-.07-.43h0a1,1,0,0,1-.41.36,1.33,1.33,0,0,1-.61.13,1.22,1.22,0,0,1-.88-.28,1.2,1.2,0,0,1-.29-.89v-2.1Z"/><path d="M436.06,201.71a1.48,1.48,0,0,1,.38,0l-.07.45a1.63,1.63,0,0,0-.35,0,.88.88,0,0,0-.67.32,1.17,1.17,0,0,0-.27.79V205h-.49v-3.21h.4l.06.59h0a1.44,1.44,0,0,1,.43-.48A1,1,0,0,1,436.06,201.71Z"/><path d="M438.4,205a1.52,1.52,0,0,1-1.13-.43,1.72,1.72,0,0,1-.41-1.21,1.86,1.86,0,0,1,.38-1.23,1.27,1.27,0,0,1,1-.46,1.22,1.22,0,0,1,1,.4,1.53,1.53,0,0,1,.35,1v.3h-2.22a1.27,1.27,0,0,0,.29.86,1,1,0,0,0,.76.29,2.67,2.67,0,0,0,1-.21v.43a2,2,0,0,1-.49.16A2.87,2.87,0,0,1,438.4,205Zm-.14-2.92a.78.78,0,0,0-.61.25,1.09,1.09,0,0,0-.27.7h1.68a1.07,1.07,0,0,0-.21-.71A.73.73,0,0,0,438.26,202.12Z"/><path d="M444.45,203.84a1,1,0,0,1-.41.88,1.77,1.77,0,0,1-1.11.32,2.77,2.77,0,0,1-1.17-.2v-.48a3.45,3.45,0,0,0,.57.18,3.34,3.34,0,0,0,.62.06,1.22,1.22,0,0,0,.75-.19.6.6,0,0,0,.25-.52.7.7,0,0,0-.09-.37.88.88,0,0,0-.3-.26,4.17,4.17,0,0,0-.63-.27,2,2,0,0,1-.86-.51,1.11,1.11,0,0,1-.25-.76.94.94,0,0,1,.37-.79,1.51,1.51,0,0,1,1-.29,2.86,2.86,0,0,1,1.18.23l-.16.43a2.81,2.81,0,0,0-1-.22,1,1,0,0,0-.62.17.55.55,0,0,0-.22.47.81.81,0,0,0,.08.37.89.89,0,0,0,.28.26,4,4,0,0,0,.59.26,2.3,2.3,0,0,1,.93.52A1,1,0,0,1,444.45,203.84Z"/><path d="M446.75,205a1.32,1.32,0,0,1-.57-.12,1.06,1.06,0,0,1-.44-.35h0a4.84,4.84,0,0,1,0,.53v1.32h-.48v-4.65h.39l.07.44h0a1.12,1.12,0,0,1,.44-.38,1.32,1.32,0,0,1,.57-.12,1.19,1.19,0,0,1,1,.44,1.92,1.92,0,0,1,.34,1.22,1.88,1.88,0,0,1-.35,1.23A1.19,1.19,0,0,1,446.75,205Zm-.07-2.92a.84.84,0,0,0-.71.28,1.4,1.4,0,0,0-.23.86v.11a1.61,1.61,0,0,0,.23,1,.86.86,0,0,0,.72.29.76.76,0,0,0,.66-.34,1.62,1.62,0,0,0,.23-.92,1.58,1.58,0,0,0-.23-.92A.78.78,0,0,0,446.68,202.12Z"/><path d="M450.91,205l-.1-.46h0a1.35,1.35,0,0,1-.48.41,1.5,1.5,0,0,1-.6.11,1,1,0,0,1-.74-.25.86.86,0,0,1-.28-.7q0-1,1.56-1h.54v-.2a.8.8,0,0,0-.16-.56.67.67,0,0,0-.52-.18,2.17,2.17,0,0,0-.91.24l-.15-.37a3,3,0,0,1,.52-.2,2.22,2.22,0,0,1,.57-.07,1.22,1.22,0,0,1,.85.25,1,1,0,0,1,.28.82V205Zm-1.1-.34a1,1,0,0,0,.71-.25.91.91,0,0,0,.26-.7v-.29l-.48,0a1.94,1.94,0,0,0-.84.18.55.55,0,0,0-.26.5.53.53,0,0,0,.16.4A.69.69,0,0,0,449.81,204.64Z"/><path d="M453.55,205a1.34,1.34,0,0,1-1.07-.43,1.74,1.74,0,0,1-.39-1.21,1.82,1.82,0,0,1,.39-1.25,1.42,1.42,0,0,1,1.11-.44,2.4,2.4,0,0,1,.46,0,1.26,1.26,0,0,1,.36.12l-.15.41a2.42,2.42,0,0,0-.35-.11,2.38,2.38,0,0,0-.34,0c-.65,0-1,.42-1,1.25a1.49,1.49,0,0,0,.24.91.81.81,0,0,0,.7.31,2.13,2.13,0,0,0,.83-.17v.43A1.81,1.81,0,0,1,453.55,205Z"/><path d="M456.48,205a1.51,1.51,0,0,1-1.12-.43,1.72,1.72,0,0,1-.41-1.21,1.86,1.86,0,0,1,.38-1.23,1.27,1.27,0,0,1,1-.46,1.18,1.18,0,0,1,.95.4,1.48,1.48,0,0,1,.35,1v.3h-2.21a1.27,1.27,0,0,0,.29.86,1,1,0,0,0,.76.29,2.67,2.67,0,0,0,1-.21v.43a2.15,2.15,0,0,1-.49.16A2.9,2.9,0,0,1,456.48,205Zm-.13-2.92a.76.76,0,0,0-.61.25,1.15,1.15,0,0,0-.28.7h1.68a1.13,1.13,0,0,0-.2-.71A.73.73,0,0,0,456.35,202.12Z"/><path d="M425.8,236.74a1.18,1.18,0,0,1-.45,1,2,2,0,0,1-1.27.36h-.5v1.68h-.5V235.5h1.11C425.26,235.5,425.8,235.91,425.8,236.74Zm-2.22.93H424a1.56,1.56,0,0,0,1-.22.78.78,0,0,0,.3-.68.72.72,0,0,0-.28-.63,1.43,1.43,0,0,0-.87-.21h-.55Z"/><path d="M427.08,236.57v2.08a.9.9,0,0,0,.17.59.73.73,0,0,0,.56.19.92.92,0,0,0,.74-.27,1.39,1.39,0,0,0,.23-.9v-1.69h.49v3.21h-.4l-.07-.43h0a1,1,0,0,1-.41.36,1.33,1.33,0,0,1-.61.13,1.18,1.18,0,0,1-.87-.28,1.17,1.17,0,0,1-.3-.89v-2.1Z"/><path d="M432.5,239.78V237.7a.82.82,0,0,0-.18-.58.73.73,0,0,0-.56-.2.9.9,0,0,0-.74.28,1.41,1.41,0,0,0-.23.9v1.68h-.49v-3.21h.4l.08.44h0a1,1,0,0,1,.42-.37,1.32,1.32,0,0,1,.6-.13,1,1,0,0,1,1.17,1.18v2.09Z"/><path d="M435.27,239.84a1.35,1.35,0,0,1-1.08-.43,1.74,1.74,0,0,1-.38-1.21,1.87,1.87,0,0,1,.38-1.25,1.42,1.42,0,0,1,1.11-.44,2.4,2.4,0,0,1,.46.05,1.23,1.23,0,0,1,.37.12l-.15.41-.36-.11a2.11,2.11,0,0,0-.33,0c-.65,0-1,.42-1,1.25a1.49,1.49,0,0,0,.24.91.83.83,0,0,0,.71.31,2.08,2.08,0,0,0,.82-.17v.43A1.8,1.8,0,0,1,435.27,239.84Z"/><path d="M437.88,239.44l.25,0,.19,0v.37a.64.64,0,0,1-.24.06l-.27,0c-.62,0-.93-.33-.93-1V237h-.46v-.24l.46-.2.2-.69h.28v.75h.93V237h-.93v1.89a.64.64,0,0,0,.14.44A.46.46,0,0,0,437.88,239.44Z"/><path d="M439.42,236.57v2.08a.9.9,0,0,0,.17.59.73.73,0,0,0,.56.19.92.92,0,0,0,.74-.27,1.39,1.39,0,0,0,.23-.9v-1.69h.49v3.21h-.4l-.07-.43h0a1,1,0,0,1-.41.36,1.33,1.33,0,0,1-.61.13,1.18,1.18,0,0,1-.87-.28,1.17,1.17,0,0,1-.3-.89v-2.1Z"/><path d="M444.62,239.78l-.1-.46h0a1.35,1.35,0,0,1-.48.41,1.5,1.5,0,0,1-.6.11,1,1,0,0,1-.75-.25.88.88,0,0,1-.27-.7q0-1,1.56-1h.54v-.2a.8.8,0,0,0-.16-.56.67.67,0,0,0-.52-.18,2.17,2.17,0,0,0-.91.24l-.15-.37a2.67,2.67,0,0,1,.52-.2,2.22,2.22,0,0,1,.57-.07,1.22,1.22,0,0,1,.85.25,1.08,1.08,0,0,1,.28.82v2.19Zm-1.1-.34a1,1,0,0,0,.71-.25.94.94,0,0,0,.26-.7v-.29l-.49,0a1.93,1.93,0,0,0-.83.18.55.55,0,0,0-.26.5.49.49,0,0,0,.16.4A.69.69,0,0,0,443.52,239.44Z"/><path d="M447,239.44l.24,0,.19,0v.37a.58.58,0,0,1-.23.06l-.27,0c-.63,0-.94-.33-.94-1V237h-.46v-.24l.46-.2.21-.69h.28v.75h.93V237h-.93v1.89a.64.64,0,0,0,.14.44A.46.46,0,0,0,447,239.44Z"/><path d="M448.06,235.7a.33.33,0,0,1,.08-.25.27.27,0,0,1,.2-.07.24.24,0,0,1,.2.08.37.37,0,0,1,0,.48.29.29,0,0,1-.4,0A.29.29,0,0,1,448.06,235.7Zm.52,4.08h-.48v-3.21h.48Z"/><path d="M452.39,238.17a1.8,1.8,0,0,1-.4,1.23,1.4,1.4,0,0,1-1.09.44,1.52,1.52,0,0,1-.77-.2,1.37,1.37,0,0,1-.51-.58,2.08,2.08,0,0,1-.18-.89,1.77,1.77,0,0,1,.39-1.22,1.39,1.39,0,0,1,1.09-.44A1.36,1.36,0,0,1,452,237,1.78,1.78,0,0,1,452.39,238.17Zm-2.45,0a1.5,1.5,0,0,0,.25.94,1,1,0,0,0,1.44,0,1.48,1.48,0,0,0,.25-.94,1.45,1.45,0,0,0-.25-.93,1,1,0,0,0-1.45,0A1.52,1.52,0,0,0,449.94,238.17Z"/><path d="M455.44,239.78V237.7a.82.82,0,0,0-.18-.58.73.73,0,0,0-.56-.2.89.89,0,0,0-.74.28,1.35,1.35,0,0,0-.24.9v1.68h-.48v-3.21h.39l.08.44h0a1,1,0,0,1,.41-.37,1.33,1.33,0,0,1,.61-.13,1.21,1.21,0,0,1,.87.28,1.23,1.23,0,0,1,.29.9v2.09Z"/><path d="M461,238.64a1.05,1.05,0,0,1-.41.88,1.79,1.79,0,0,1-1.11.32,2.85,2.85,0,0,1-1.18-.2v-.48a3.28,3.28,0,0,0,.58.18,3.23,3.23,0,0,0,.61.06,1.18,1.18,0,0,0,.75-.19.61.61,0,0,0,.26-.52.7.7,0,0,0-.09-.37.88.88,0,0,0-.3-.26,3.94,3.94,0,0,0-.64-.27,1.93,1.93,0,0,1-.85-.51,1.11,1.11,0,0,1-.26-.76.94.94,0,0,1,.37-.79,1.53,1.53,0,0,1,1-.29,2.84,2.84,0,0,1,1.17.23l-.15.43a2.66,2.66,0,0,0-1-.22,1,1,0,0,0-.61.17.56.56,0,0,0-.23.47.7.7,0,0,0,.09.37.75.75,0,0,0,.27.26,3.73,3.73,0,0,0,.6.26,2.3,2.3,0,0,1,.93.52A1,1,0,0,1,461,238.64Z"/><path d="M463.27,239.84a1.4,1.4,0,0,1-.58-.12,1,1,0,0,1-.43-.35h0a3.23,3.23,0,0,1,0,.53v1.32h-.49v-4.65h.4l.07.44h0a1.06,1.06,0,0,1,.44-.38,1.26,1.26,0,0,1,.57-.12,1.19,1.19,0,0,1,1,.44,2.32,2.32,0,0,1,0,2.45A1.21,1.21,0,0,1,463.27,239.84Zm-.07-2.92a.86.86,0,0,0-.72.28,1.41,1.41,0,0,0-.22.86v.11a1.61,1.61,0,0,0,.22,1,.89.89,0,0,0,.73.29.74.74,0,0,0,.65-.34,1.9,1.9,0,0,0,0-1.85A.79.79,0,0,0,463.2,236.92Z"/><path d="M467.42,239.78l-.09-.46h0a1.35,1.35,0,0,1-.48.41,1.41,1.41,0,0,1-.59.11,1,1,0,0,1-.75-.25.88.88,0,0,1-.27-.7c0-.65.52-1,1.55-1h.55v-.2a.8.8,0,0,0-.16-.56.68.68,0,0,0-.52-.18,2.17,2.17,0,0,0-.91.24l-.15-.37a2.67,2.67,0,0,1,.52-.2,2.22,2.22,0,0,1,.57-.07,1.23,1.23,0,0,1,.85.25,1.08,1.08,0,0,1,.27.82v2.19Zm-1.1-.34a1,1,0,0,0,.72-.25.94.94,0,0,0,.26-.7v-.29l-.49,0a1.89,1.89,0,0,0-.83.18.53.53,0,0,0-.26.5.49.49,0,0,0,.16.4A.66.66,0,0,0,466.32,239.44Z"/><path d="M470.07,239.84a1.35,1.35,0,0,1-1.08-.43,1.79,1.79,0,0,1-.38-1.21A1.82,1.82,0,0,1,469,237a1.38,1.38,0,0,1,1.1-.44,2.31,2.31,0,0,1,.46.05,1.23,1.23,0,0,1,.37.12l-.15.41-.35-.11a2.38,2.38,0,0,0-.34,0c-.65,0-1,.42-1,1.25a1.49,1.49,0,0,0,.24.91.83.83,0,0,0,.71.31,2.08,2.08,0,0,0,.82-.17v.43A1.74,1.74,0,0,1,470.07,239.84Z"/><path d="M473,239.84a1.48,1.48,0,0,1-1.12-.43,1.68,1.68,0,0,1-.42-1.21,1.81,1.81,0,0,1,.39-1.23,1.24,1.24,0,0,1,1-.46,1.2,1.2,0,0,1,1,.4,1.52,1.52,0,0,1,.35,1v.31H472a1.27,1.27,0,0,0,.28.86,1,1,0,0,0,.77.29,2.66,2.66,0,0,0,1-.21v.43a2.54,2.54,0,0,1-.49.16A2.79,2.79,0,0,1,473,239.84Zm-.13-2.92a.79.79,0,0,0-.62.25,1.2,1.2,0,0,0-.27.7h1.68a1.07,1.07,0,0,0-.21-.71A.71.71,0,0,0,472.87,236.92Z"/><rect class="cls-1" x="163.19" y="-40.59" width="32" height="43"/><path d="M178.33,65.78l-5.82-15.19h-.09c.11,1.2.16,2.63.16,4.29v10.9h-1.84V48.64h3l5.43,14.14h.09l5.48-14.14h3V65.78h-2v-11c0-1.27.06-2.64.17-4.13h-.1l-5.86,15.17Z"/><rect class="cls-1" x="163.19" y="35.19" width="32" height="43"/><g class="cls-3"><path d="M206.23,65.78l-5.82-15.19h-.09c.11,1.2.16,2.63.16,4.29v10.9h-1.84V48.64h3l5.43,14.14h.09l5.48-14.14h3V65.78h-2v-11c0-1.27.06-2.64.17-4.13h-.1l-5.86,15.17Z"/></g><path d="M178.33,100.58l-5.82-15.19h-.09c.11,1.2.16,2.63.16,4.29v10.9h-1.84V83.44h3l5.43,14.14h.09l5.48-14.14h3v17.14h-2v-11c0-1.27.06-2.64.17-4.13h-.1l-5.86,15.17Z"/><rect class="cls-1" x="163.19" y="70.19" width="32" height="43"/><g class="cls-4"><path d="M206.23,100.58l-5.82-15.19h-.09c.11,1.2.16,2.63.16,4.29v10.9h-1.84V83.44h3l5.43,14.14h.09l5.48-14.14h3v17.14h-2v-11c0-1.27.06-2.64.17-4.13h-.1l-5.86,15.17Z"/></g><path d="M178.33,135.38l-5.82-15.19h-.09c.11,1.2.16,2.63.16,4.29v10.9h-1.84V118.24h3l5.43,14.14h.09l5.48-14.14h3v17.14h-2v-11c0-1.27.06-2.64.17-4.13h-.1l-5.86,15.17Z"/><rect class="cls-1" x="163.19" y="105.19" width="32" height="43"/><g class="cls-5"><path d="M203.33,135.38l-5.82-15.19h-.09c.11,1.2.16,2.63.16,4.29v10.9h-1.84V118.24h3l5.43,14.14h.09l5.48-14.14h3v17.14h-2v-11c0-1.27.06-2.64.17-4.13h-.1l-5.86,15.17Z"/></g><path d="M178.33,170.18,172.51,155h-.09c.11,1.2.16,2.63.16,4.29v10.9h-1.84V153h3l5.43,14.14h.09L184.74,153h3v17.14h-2v-11c0-1.27.06-2.64.17-4.13h-.1l-5.86,15.17Z"/><rect class="cls-1" x="163.19" y="139.19" width="32" height="43"/><g class="cls-6"><path d="M203.33,170.18,197.51,155h-.09c.11,1.2.16,2.63.16,4.29v10.9h-1.84V153h3l5.43,14.14h.09L209.74,153h3v17.14h-2v-11c0-1.27.06-2.64.17-4.13h-.1l-5.86,15.17Z"/></g><path d="M178.33,205l-5.82-15.19h-.09c.11,1.2.16,2.63.16,4.29V205h-1.84V187.84h3L179.17,202h.09l5.48-14.14h3V205h-2v-11c0-1.27.06-2.64.17-4.13h-.1L179.93,205Z"/><rect class="cls-1" x="163.19" y="174.19" width="32" height="43"/><g class="cls-7"><path d="M201.66,205l-5.81-15.19h-.09c.11,1.2.16,2.63.16,4.29V205h-1.84V187.84h3L202.51,202h.09l5.48-14.14h3V205h-2v-11c0-1.27.05-2.64.16-4.13h-.09L203.27,205Z"/></g><path d="M178.33,239.78l-5.82-15.19h-.09c.11,1.2.16,2.63.16,4.29v10.9h-1.84V222.64h3l5.43,14.14h.09l5.48-14.14h3v17.14h-2v-11c0-1.27.06-2.64.17-4.13h-.1l-5.86,15.17Z"/><rect class="cls-1" x="163.19" y="209.19" width="32" height="43"/><g class="cls-8"><path d="M206.65,239.78l-5.81-15.19h-.1c.11,1.2.17,2.63.17,4.29v10.9h-1.84V222.64h3l5.43,14.14h.09l5.47-14.14h3v17.14h-2v-11c0-1.27,0-2.64.16-4.13h-.09l-5.86,15.17Z"/></g><path d="M365.94,65.78l-5.81-15.19H360c.11,1.2.16,2.63.16,4.29v10.9h-1.84V48.64h3l5.43,14.14h.09l5.48-14.14h3V65.78h-2v-11c0-1.27.06-2.64.17-4.13h-.1l-5.86,15.17Z"/><rect class="cls-1" x="350.81" y="35.39" width="32" height="43"/><g class="cls-9"><path d="M394.27,65.78l-5.81-15.19h-.1c.11,1.2.17,2.63.17,4.29v10.9h-1.84V48.64h3l5.42,14.14h.1l5.47-14.14h3V65.78h-2v-11c0-1.27.05-2.64.16-4.13h-.09l-5.86,15.17Z"/></g><path d="M365.94,100.58l-5.81-15.19H360c.11,1.2.16,2.63.16,4.29v10.9h-1.84V83.44h3l5.43,14.14h.09l5.48-14.14h3v17.14h-2v-11c0-1.27.06-2.64.17-4.13h-.1l-5.86,15.17Z"/><rect class="cls-1" x="350.81" y="70.39" width="32" height="43"/><g class="cls-10"><path d="M394.27,100.58l-5.81-15.19h-.1c.11,1.2.17,2.63.17,4.29v10.9h-1.84V83.44h3l5.42,14.14h.1l5.47-14.14h3v17.14h-2v-11c0-1.27.05-2.64.16-4.13h-.09l-5.86,15.17Z"/></g><path d="M365.94,135.38l-5.81-15.19H360c.11,1.2.16,2.63.16,4.29v10.9h-1.84V118.24h3l5.43,14.14h.09l5.48-14.14h3v17.14h-2v-11c0-1.27.06-2.64.17-4.13h-.1l-5.86,15.17Z"/><rect class="cls-1" x="350.81" y="104.39" width="32" height="43"/><g class="cls-11"><path d="M394.27,135.38l-5.81-15.19h-.1c.11,1.2.17,2.63.17,4.29v10.9h-1.84V118.24h3l5.42,14.14h.1l5.47-14.14h3v17.14h-2v-11c0-1.27.05-2.64.16-4.13h-.09l-5.86,15.17Z"/></g><path d="M365.94,170.18,360.13,155H360c.11,1.2.16,2.63.16,4.29v10.9h-1.84V153h3l5.43,14.14h.09L372.36,153h3v17.14h-2v-11c0-1.27.06-2.64.17-4.13h-.1l-5.86,15.17Z"/><rect class="cls-1" x="350.81" y="139.39" width="32" height="43"/><g class="cls-12"><path d="M394.27,170.18,388.46,155h-.1c.11,1.2.17,2.63.17,4.29v10.9h-1.84V153h3l5.42,14.14h.1L400.68,153h3v17.14h-2v-11c0-1.27.05-2.64.16-4.13h-.09l-5.86,15.17Z"/></g><rect class="cls-13" x="363.94" y="178.98" width="13.73" height="34"/><g class="cls-14"><path d="M367.11,196.39a12.5,12.5,0,0,0,.88,5.45,3.16,3.16,0,0,0,5.62,0,17.32,17.32,0,0,0,0-10.84,3.17,3.17,0,0,0-5.62,0A12.4,12.4,0,0,0,367.11,196.39Zm9.36,0c0,3-.46,5.18-1.4,6.64a5.18,5.18,0,0,1-8.49-.05,12.3,12.3,0,0,1-1.44-6.59c0-3,.46-5.2,1.39-6.64a5.19,5.19,0,0,1,8.5.09A12.26,12.26,0,0,1,376.47,196.39Z"/></g><rect class="cls-13" x="384.33" y="178.98" width="13.73" height="34"/><g class="cls-15"><path d="M387.49,196.39a12.66,12.66,0,0,0,.88,5.45,3.17,3.17,0,0,0,5.63,0A17.32,17.32,0,0,0,394,191a3.18,3.18,0,0,0-5.63,0A12.55,12.55,0,0,0,387.49,196.39Zm9.37,0c0,3-.46,5.18-1.4,6.64A5.18,5.18,0,0,1,387,203a12.3,12.3,0,0,1-1.44-6.59c0-3,.46-5.2,1.39-6.64a5.18,5.18,0,0,1,8.49.09A12.16,12.16,0,0,1,396.86,196.39Z"/></g><rect class="cls-13" x="371.28" y="213.78" width="6.39" height="34"/><g class="cls-16"><path d="M373.06,238.53a1.75,1.75,0,0,1,.36-1.19,1.32,1.32,0,0,1,1-.4,1.4,1.4,0,0,1,1.06.4,2,2,0,0,1,0,2.37,1.54,1.54,0,0,1-2.05,0A1.62,1.62,0,0,1,373.06,238.53Z"/></g><rect class="cls-13" x="384.33" y="213.78" width="6.39" height="34"/><g class="cls-17"><path d="M386.11,238.53a1.75,1.75,0,0,1,.36-1.19,1.32,1.32,0,0,1,1-.4,1.4,1.4,0,0,1,1.06.4,2,2,0,0,1,0,2.37,1.54,1.54,0,0,1-2.05,0A1.62,1.62,0,0,1,386.11,238.53Z"/></g><path d="M103.81,67.14,98,52h-.1c.11,1.2.17,2.63.17,4.29v10.9H96.23V50h3l5.42,14.14h.1L110.22,50h3V67.14h-2v-11c0-1.27.05-2.64.16-4.13h-.09l-5.86,15.17Z"/><path d="M131.71,67.14,125.89,52h-.09c.11,1.2.16,2.63.16,4.29v10.9h-1.83V50h3l5.43,14.14h.1L138.12,50h3V67.14h-2v-11c0-1.27.06-2.64.17-4.13h-.1l-5.86,15.17Z"/><path d="M103.81,101.63,98,86.44h-.1c.11,1.2.17,2.63.17,4.29v10.9H96.23V84.5h3l5.42,14.13h.1l5.47-14.13h3v17.13h-2v-11c0-1.27.05-2.64.16-4.12h-.09l-5.86,15.16Z"/><path d="M131.71,101.63l-5.82-15.19h-.09c.11,1.2.16,2.63.16,4.29v10.9h-1.83V84.5h3l5.43,14.13h.1l5.47-14.13h3v17.13h-2v-11c0-1.27.06-2.64.17-4.12h-.1l-5.86,15.16Z"/><path d="M103.81,136.12,98,120.94h-.1c.11,1.2.17,2.63.17,4.28v10.9H96.23V119h3l5.42,14.13h.1L110.22,119h3v17.13h-2v-11c0-1.26.05-2.64.16-4.12h-.09l-5.86,15.16Z"/><path d="M130.27,136.12l-5.82-15.18h-.09c.11,1.2.16,2.63.16,4.28v10.9h-1.84V119h3l5.43,14.13h.09L136.68,119h3v17.13h-2v-11c0-1.26.06-2.64.17-4.12h-.1l-5.86,15.16Z"/><path d="M103.81,170.62,98,155.43h-.1c.11,1.2.17,2.63.17,4.29v10.9H96.23V153.48h3l5.42,14.14h.1l5.47-14.14h3v17.14h-2v-11c0-1.27.05-2.64.16-4.13h-.09l-5.86,15.17Z"/><path d="M128.59,170.62l-5.81-15.19h-.1c.11,1.2.17,2.63.17,4.29v10.9H121V153.48h3l5.42,14.14h.1L135,153.48h3v17.14h-2v-11c0-1.27,0-2.64.16-4.13h-.09l-5.86,15.17Z"/><path d="M103.81,205.11,98,189.92h-.1c.11,1.21.17,2.64.17,4.29v10.9H96.23V188h3l5.42,14.13h.1L110.22,188h3v17.13h-2v-11c0-1.26.05-2.64.16-4.12h-.09l-5.86,15.16Z"/><path d="M127,205.11l-5.81-15.19h-.09c.11,1.21.16,2.64.16,4.29v10.9h-1.84V188h3l5.43,14.13h.09L133.38,188h3v17.13h-2v-11c0-1.26,0-2.64.16-4.12h-.09l-5.86,15.16Z"/><path d="M103.81,239.6,98,224.42h-.1c.11,1.2.17,2.63.17,4.29V239.6H96.23V222.47h3l5.42,14.13h.1l5.47-14.13h3V239.6h-2v-11c0-1.26.05-2.64.16-4.12h-.09l-5.86,15.16Z"/><path d="M129.47,239.6l-5.81-15.18h-.1c.11,1.2.17,2.63.17,4.29V239.6h-1.84V222.47h3l5.42,14.13h.1l5.47-14.13h3V239.6h-2v-11c0-1.26.06-2.64.17-4.12h-.1l-5.85,15.16Z"/><path d="M291.43,65.3l-5.81-15.19h-.1c.11,1.2.17,2.63.17,4.29V65.3h-1.84V48.16h3l5.42,14.14h.1l5.47-14.14h3V65.3h-2v-11c0-1.27.06-2.64.17-4.13h-.1L293,65.3Z"/><path d="M319.09,65.3l-5.81-15.19h-.1c.11,1.2.17,2.63.17,4.29V65.3h-1.84V48.16h3l5.42,14.14h.1l5.47-14.14h3V65.3h-2v-11c0-1.27.05-2.64.16-4.13h-.09L320.7,65.3Z"/><path d="M291.43,99.79,285.62,84.6h-.1c.11,1.21.17,2.64.17,4.29v10.9h-1.84V82.66h3l5.42,14.13h.1l5.47-14.13h3V99.79h-2v-11c0-1.26.06-2.64.17-4.12h-.1L293,99.79Z"/><path d="M321.08,99.79,315.27,84.6h-.09c.11,1.21.16,2.64.16,4.29v10.9H313.5V82.66h3l5.43,14.13H322l5.47-14.13h3V99.79h-2v-11c0-1.26,0-2.64.16-4.12h-.09l-5.86,15.16Z"/><path d="M291.43,134.28l-5.81-15.18h-.1c.11,1.2.17,2.63.17,4.29v10.89h-1.84V117.15h3l5.42,14.13h.1l5.47-14.13h3v17.13h-2v-11c0-1.26.06-2.64.17-4.12h-.1L293,134.28Z"/><path d="M325.09,134.28l-5.81-15.18h-.1c.11,1.2.17,2.63.17,4.29v10.89h-1.84V117.15h3l5.42,14.13h.1l5.47-14.13h3v17.13h-2v-11c0-1.26.05-2.64.16-4.12h-.09l-5.86,15.16Z"/><path d="M291.43,168.78l-5.81-15.19h-.1c.11,1.2.17,2.63.17,4.29v10.9h-1.84V151.64h3l5.42,14.14h.1l5.47-14.14h3v17.14h-2v-11c0-1.27.06-2.64.17-4.13h-.1L293,168.78Z"/><path d="M337.09,168.78l-5.82-15.19h-.09c.11,1.2.17,2.63.17,4.29v10.9h-1.84V151.64h3l5.42,14.14h.1l5.47-14.14h3v17.14h-2v-11c0-1.27.06-2.64.17-4.13h-.1l-5.86,15.17Z"/><rect class="cls-13" x="289.17" y="177.78" width="14.25" height="32.24"/><path d="M292.6,194.69a12.48,12.48,0,0,0,.88,5.44,3.16,3.16,0,0,0,5.62,0,17.29,17.29,0,0,0,0-10.83,3.17,3.17,0,0,0-5.62,0A12.42,12.42,0,0,0,292.6,194.69Zm9.36,0c0,3-.46,5.17-1.4,6.63a5.18,5.18,0,0,1-8.49,0,12.28,12.28,0,0,1-1.44-6.58c0-3,.47-5.2,1.4-6.65a5.17,5.17,0,0,1,8.49.1A12.24,12.24,0,0,1,302,194.69Z"/><rect class="cls-13" x="316.91" y="177.78" width="13.5" height="32.24"/><path d="M320,194.69a12.48,12.48,0,0,0,.88,5.44,3.16,3.16,0,0,0,5.62,0,17.29,17.29,0,0,0,0-10.83,3.17,3.17,0,0,0-5.62,0A12.42,12.42,0,0,0,320,194.69Zm9.36,0c0,3-.46,5.17-1.4,6.63a5.18,5.18,0,0,1-8.49,0,12.28,12.28,0,0,1-1.44-6.58c0-3,.47-5.2,1.4-6.65a5.17,5.17,0,0,1,8.49.1A12.24,12.24,0,0,1,329.4,194.69Z"/><rect class="cls-13" x="296.67" y="212.27" width="6.75" height="32.24"/><path d="M298.55,236.52a1.75,1.75,0,0,1,.36-1.19,1.28,1.28,0,0,1,1-.41,1.39,1.39,0,0,1,1.06.41,2,2,0,0,1,0,2.36,1.4,1.4,0,0,1-1.06.41,1.37,1.37,0,0,1-1-.37A1.6,1.6,0,0,1,298.55,236.52Z"/><rect class="cls-13" x="309.41" y="212.27" width="6.75" height="32.24"/><path d="M311.32,236.52a1.75,1.75,0,0,1,.36-1.19,1.3,1.3,0,0,1,1-.41,1.37,1.37,0,0,1,1.06.41,1.65,1.65,0,0,1,.38,1.19,1.62,1.62,0,0,1-.38,1.17,1.4,1.4,0,0,1-1.06.41,1.37,1.37,0,0,1-1-.37A1.6,1.6,0,0,1,311.32,236.52Z"/></g></svg>