<svg xmlns="http://www.w3.org/2000/svg" viewBox="0 0 465.76 246.74"><defs><style>.cls-1{fill:#222;}</style></defs><title>Spaces-Cast-03</title><g id="Layer_1" data-name="Layer 1"><path class="cls-1" d="M28.54,117.67l9-14.8-.09,14.8ZM24,121.36H37.4v7.34h4.37v-7.34h3.6l.4-3.69h-4V98.77H35.83L24,118.12Z"/><path class="cls-1" d="M58.55,125.59c-3.55,0-5.67-4-5.67-11.88s2.12-11.83,5.67-11.83,5.67,4,5.67,11.83S62.11,125.59,58.55,125.59Zm0,3.56c5.54,0,10.08-4.1,10.08-15.44S64.09,98.32,58.55,98.32s-10.08,4.1-10.08,15.39S53,129.15,58.55,129.15Z"/><polygon class="cls-1" points="81.32 123.52 84.06 126.27 91.13 119.2 98.19 126.27 100.94 123.52 93.87 116.46 100.94 109.39 98.19 106.65 91.13 113.71 84.06 106.65 81.32 109.39 88.38 116.46 81.32 123.52"/><path class="cls-1" d="M114.39,128.7h17.77l.41-3.69H119.88l5.71-6.39c5-5.63,6.39-8.46,6.39-11.93,0-5.35-4.41-8.37-9.4-8.37a19.58,19.58,0,0,0-7.61,1.8l.41,3.78a16.73,16.73,0,0,1,6.79-1.89c2.88,0,5.4,1.53,5.4,4.82s-2.65,6.39-6.25,10.48l-6.93,8Z"/><path class="cls-1" d="M147.28,125.59c-3.55,0-5.67-4-5.67-11.88s2.12-11.83,5.67-11.83,5.67,4,5.67,11.83S150.84,125.59,147.28,125.59Zm0,3.56c5.54,0,10.08-4.1,10.08-15.44s-4.54-15.39-10.08-15.39-10.08,4.1-10.08,15.39S141.75,129.15,147.28,129.15Z"/><polygon class="cls-1" points="171.45 128.7 175.81 128.7 175.81 116.59 184.23 128.7 189.76 128.7 180.27 115.87 188.28 105.88 183.01 105.88 175.81 115.65 175.81 96.93 171.45 96.93 171.45 128.7"/><path class="cls-1" d="M204.66,123.43a7.56,7.56,0,0,1-4.55,1.71c-2.79,0-4.81-2.7-4.81-7.2,0-6.75,2.92-9,6.57-9a11.82,11.82,0,0,1,2.79.31Zm-12,13.41a30,30,0,0,0,7.38,1c5.76,0,9-3.46,9-8.19V106.51a27.41,27.41,0,0,0-7-1.08c-5.53,0-11.11,2.75-11.11,12.56,0,7.2,4.09,10.71,8.23,10.71,2,0,3.42-.59,5.54-2v2.74c0,2.34-1.26,4.68-5.31,4.68a21.87,21.87,0,0,1-6.3-1.12Z"/><polygon class="cls-1" points="243.41 128.7 245.73 128.7 249.44 116.37 247.53 116.37 244.63 126.97 241.61 116.37 239.7 116.37 243.41 128.7"/><path class="cls-1" d="M251.71,123.33c.14-1.69.88-2.52,2.07-2.52,1,0,1.67.74,1.62,2.52Zm4.93,3.51a6.46,6.46,0,0,1-2.5.56c-1.53,0-2.38-.92-2.45-2.79h5.42c.32-3.65-1-5.22-3.31-5.22s-3.89,1.26-3.89,4.74,1.71,4.75,3.9,4.75a8.51,8.51,0,0,0,3-.51Z"/><path class="cls-1" d="M259.18,128.7h1.76V122a3.11,3.11,0,0,1,2.68-.81l.18-1.63c-.81-.2-1.83-.2-2.95,1.24l-.3-1.21h-1.37Z"/><path class="cls-1" d="M264.67,128.45a8.09,8.09,0,0,0,2.45.43c2.23,0,3.33-1.23,3.33-2.77,0-3-4.07-2.65-4.07-4.18,0-.65.57-1.06,1.69-1.06a4.76,4.76,0,0,1,1.73.34l.16-1.53a7.17,7.17,0,0,0-2-.29c-2.27,0-3.37,1.12-3.37,2.72,0,2.75,4.07,2.39,4.07,4.18,0,.59-.54,1.11-1.67,1.11a6.21,6.21,0,0,1-2.18-.48Z"/><path class="cls-1" d="M272.32,118h1.91v-1.84h-1.91Zm.07,10.71h1.76v-9.13h-1.76Z"/><path class="cls-1" d="M280.22,127.46c-1.33,0-2.12-1.12-2.12-3.33s.79-3.32,2.12-3.32,2.12,1.1,2.12,3.32S281.55,127.46,280.22,127.46Zm0,1.42c2.18,0,3.89-1.26,3.89-4.75s-1.71-4.74-3.89-4.74-3.89,1.26-3.89,4.74S278,128.88,280.22,128.88Z"/><path class="cls-1" d="M286.29,128.7h1.76v-6.81a3.85,3.85,0,0,1,2.29-1c.93,0,1.35.61,1.35,1.51v6.32h1.76v-6.55a2.47,2.47,0,0,0-2.54-2.76,5,5,0,0,0-3,1.28l-.27-1.1h-1.36Z"/><path class="cls-1" d="M300.22,128.7h7.11l.16-1.48h-5.08l2.29-2.55c2-2.25,2.56-3.39,2.56-4.77,0-2.15-1.77-3.35-3.77-3.35a7.89,7.89,0,0,0-3,.72l.16,1.51a6.79,6.79,0,0,1,2.72-.76,1.93,1.93,0,0,1,2.16,1.93c0,1.3-1.06,2.56-2.5,4.19l-2.77,3.19Z"/><path class="cls-1" d="M313.38,127.46c-1.43,0-2.27-1.62-2.27-4.76S312,118,313.38,118s2.26,1.6,2.26,4.73S314.8,127.46,313.38,127.46Zm0,1.42c2.21,0,4-1.64,4-6.18s-1.82-6.15-4-6.15-4,1.64-4,6.15S311.16,128.88,313.38,128.88Z"/><polygon class="cls-1" points="319.86 128.7 326.43 128.7 326.59 127.22 324.19 127.22 324.19 116.73 322.72 116.73 319.8 118.58 319.96 120.11 322.45 118.53 322.45 127.22 319.86 127.22 319.86 128.7"/><polygon class="cls-1" points="329.29 128.7 335.86 128.7 336.02 127.22 333.63 127.22 333.63 116.73 332.15 116.73 329.23 118.58 329.39 120.11 331.88 118.53 331.88 127.22 329.29 127.22 329.29 128.7"/><rect class="cls-1" x="342.64" y="122.74" width="2.07" height="2.11"/><polygon class="cls-1" points="353.53 128.7 355.33 128.7 355.33 117.9 358.54 117.9 358.7 116.37 350.24 116.37 350.24 117.9 353.53 117.9 353.53 128.7"/><path class="cls-1" d="M360,128.7h1.74v-6.81a3.85,3.85,0,0,1,2.29-1c.94,0,1.35.61,1.35,1.51v6.32h1.76v-6.55a2.47,2.47,0,0,0-2.53-2.76,4.67,4.67,0,0,0-2.87,1.19V116H360Z"/><path class="cls-1" d="M369.59,118h1.91v-1.84h-1.91Zm.07,10.71h1.77v-9.13h-1.77Z"/><path class="cls-1" d="M374.13,128.7h1.76v-6.81a3.85,3.85,0,0,1,2.29-1c.93,0,1.35.61,1.35,1.51v6.32h1.76v-6.55a2.47,2.47,0,0,0-2.54-2.76,5,5,0,0,0-3,1.28l-.27-1.1h-1.36Z"/><path class="cls-1" d="M388,128.32a8.72,8.72,0,0,0,2.93.56c2.75,0,4.1-1.5,4.1-3.58,0-4-5.38-3.44-5.38-5.8,0-1.08.92-1.78,2.47-1.78a5.19,5.19,0,0,1,2.07.43l.16-1.58a7.89,7.89,0,0,0-2.32-.38c-2.81,0-4.2,1.4-4.2,3.49,0,3.73,5.39,3.08,5.39,5.8,0,1.08-.9,1.87-2.4,1.87a6.57,6.57,0,0,1-2.66-.63Z"/><path class="cls-1" d="M398.8,121.86a2.67,2.67,0,0,1,1.89-1c1,0,1.86,1,1.86,3.09,0,2.36-.85,3.44-1.93,3.44a3,3,0,0,1-1.82-.65Zm-1.74,10.31h1.74v-4.08a3.76,3.76,0,0,0,2.13.79c1.65,0,3.38-1.33,3.38-4.92,0-3.34-1.89-4.57-3.15-4.57a3.31,3.31,0,0,0-2.48,1.23l-.27-1.05h-1.35Z"/><path class="cls-1" d="M411.48,128.7h1.36v-6.45c0-1.87-1.27-2.86-3.34-2.86a11.36,11.36,0,0,0-3,.42l.16,1.53a7.75,7.75,0,0,1,2.58-.47c1.44,0,1.85.61,1.85,1.53v.68s-.49,0-1.21,0c-1.89.06-3.92.72-3.92,3a2.76,2.76,0,0,0,2.79,2.83,3.28,3.28,0,0,0,2.47-1.23Zm-.4-2.29a2.5,2.5,0,0,1-1.89,1,1.4,1.4,0,0,1-1.48-1.42c0-1.06.89-1.62,2.27-1.66.65,0,1.1,0,1.1,0Z"/><path class="cls-1" d="M420.71,126.84a3.62,3.62,0,0,1-1.89.56c-1.4,0-2.29-1.06-2.29-3.27s.85-3.26,2.38-3.26a4,4,0,0,1,1.69.39l.16-1.53a6.42,6.42,0,0,0-2-.34c-2.27,0-4,1.26-4,4.74s1.76,4.75,3.94,4.75a4.9,4.9,0,0,0,2.16-.51Z"/><path class="cls-1" d="M423.91,123.33c.15-1.69.89-2.52,2.07-2.52,1,0,1.68.74,1.62,2.52Zm4.94,3.51a6.47,6.47,0,0,1-2.51.56c-1.53,0-2.37-.92-2.44-2.79h5.41c.33-3.65-1-5.22-3.31-5.22s-3.89,1.26-3.89,4.74,1.71,4.75,3.91,4.75a8.56,8.56,0,0,0,3-.51Z"/></g></svg>