<svg xmlns="http://www.w3.org/2000/svg" viewBox="0 0 465.76 246.74"><defs><style>.cls-1{fill:#222;}</style></defs><title>Spaces-Cast-01</title><g id="Layer_1" data-name="Layer 1"><path class="cls-1" d="M21,117.67l9-14.8-.09,14.8Zm-4.55,3.69H29.9v7.34h4.37v-7.34h3.6l.4-3.69h-4V98.77H28.33L16.49,118.12Z"/><path class="cls-1" d="M51.05,125.59c-3.55,0-5.67-4-5.67-11.88s2.12-11.83,5.67-11.83,5.67,4,5.67,11.83S54.61,125.59,51.05,125.59Zm0,3.56c5.54,0,10.08-4.1,10.08-15.44S56.59,98.32,51.05,98.32,41,102.42,41,113.71,45.52,129.15,51.05,129.15Z"/><polygon class="cls-1" points="76.29 123.52 79.03 126.27 86.1 119.2 93.16 126.27 95.91 123.52 88.84 116.46 95.91 109.39 93.16 106.65 86.1 113.71 79.03 106.65 76.29 109.39 83.35 116.46 76.29 123.52"/><path class="cls-1" d="M111.84,128.7h17.77L130,125H117.33l5.71-6.39c5-5.63,6.39-8.46,6.39-11.93,0-5.35-4.41-8.37-9.4-8.37a19.58,19.58,0,0,0-7.61,1.8l.41,3.78a16.73,16.73,0,0,1,6.79-1.89c2.88,0,5.4,1.53,5.4,4.82s-2.65,6.39-6.25,10.48l-6.93,8Z"/><path class="cls-1" d="M144.73,125.59c-3.55,0-5.67-4-5.67-11.88s2.12-11.83,5.67-11.83,5.67,4,5.67,11.83S148.29,125.59,144.73,125.59Zm0,3.56c5.54,0,10.08-4.1,10.08-15.44s-4.54-15.39-10.08-15.39-10.08,4.1-10.08,15.39S139.2,129.15,144.73,129.15Z"/><polygon class="cls-1" points="171.36 128.7 175.73 128.7 175.73 116.59 184.14 128.7 189.68 128.7 180.18 115.87 188.19 105.88 182.93 105.88 175.73 115.65 175.73 96.93 171.36 96.93 171.36 128.7"/><path class="cls-1" d="M204.57,123.43a7.54,7.54,0,0,1-4.54,1.71c-2.79,0-4.82-2.7-4.82-7.2,0-6.75,2.93-9,6.57-9a11.76,11.76,0,0,1,2.79.31Zm-12,13.41a29.88,29.88,0,0,0,7.38,1c5.76,0,9-3.46,9-8.19V106.51a27.41,27.41,0,0,0-7-1.08c-5.54,0-11.12,2.75-11.12,12.56,0,7.2,4.1,10.71,8.24,10.71,2,0,3.42-.59,5.53-2v2.74c0,2.34-1.26,4.68-5.31,4.68A21.93,21.93,0,0,1,193,133Z"/></g></svg>