<svg xmlns="http://www.w3.org/2000/svg" viewBox="0 0 465.76 246.74"><defs><style>.cls-1{fill:#1ba9d5;}.cls-2{fill:#222;}</style></defs><title>Spaces-Cast-07</title><g id="bg"><rect class="cls-1" x="63.08" y="11.2" width="11.25" height="45"/><rect class="cls-1" x="97.58" y="11.2" width="12" height="45"/><rect class="cls-1" x="156.83" y="11.2" width="11.25" height="45"/><rect class="cls-1" x="70.58" y="94.2" width="9" height="45"/><rect class="cls-1" x="102.83" y="94.2" width="9" height="45"/><rect class="cls-1" x="159.08" y="94.2" width="9" height="45"/><rect class="cls-1" x="80.58" y="177.2" width="5.25" height="45"/><rect class="cls-1" x="109.83" y="177.2" width="5.25" height="45"/><rect class="cls-1" x="162.33" y="177.2" width="5.25" height="45"/></g><g id="Layer_1" data-name="Layer 1"><path class="cls-2" d="M21,34.67l9-14.8-.09,14.8Zm-4.55,3.69H29.9V45.7h4.37V38.36h3.6l.4-3.69h-4V15.77H28.33L16.49,35.12Z"/><path class="cls-2" d="M51.05,42.59c-3.55,0-5.67-4.05-5.67-11.88s2.12-11.83,5.67-11.83,5.67,4,5.67,11.83S54.61,42.59,51.05,42.59Zm0,3.56c5.54,0,10.08-4.1,10.08-15.44S56.59,15.32,51.05,15.32,41,19.42,41,30.71,45.52,46.15,51.05,46.15Z"/><polygon class="cls-2" points="76.29 40.52 79.03 43.27 86.1 36.2 93.16 43.27 95.91 40.52 88.84 33.46 95.91 26.39 93.16 23.65 86.1 30.71 79.03 23.65 76.29 26.39 83.35 33.46 76.29 40.52"/><path class="cls-2" d="M111.84,45.7h17.77L130,42H117.33L123,35.62c5-5.63,6.39-8.46,6.39-11.93,0-5.35-4.41-8.37-9.4-8.37a19.58,19.58,0,0,0-7.61,1.8l.41,3.78A16.73,16.73,0,0,1,119.62,19c2.88,0,5.4,1.53,5.4,4.82s-2.65,6.39-6.25,10.48l-6.93,8Z"/><path class="cls-2" d="M144.73,42.59c-3.55,0-5.67-4.05-5.67-11.88s2.12-11.83,5.67-11.83,5.67,4,5.67,11.83S148.29,42.59,144.73,42.59Zm0,3.56c5.54,0,10.08-4.1,10.08-15.44s-4.54-15.39-10.08-15.39-10.08,4.1-10.08,15.39S139.2,46.15,144.73,46.15Z"/><polygon class="cls-2" points="171.36 45.7 175.73 45.7 175.73 33.59 184.14 45.7 189.68 45.7 180.18 32.87 188.19 22.88 182.93 22.88 175.73 32.65 175.73 13.93 171.36 13.93 171.36 45.7"/><path class="cls-2" d="M204.57,40.43A7.54,7.54,0,0,1,200,42.14c-2.79,0-4.82-2.7-4.82-7.2,0-6.75,2.93-8.95,6.57-8.95a11.76,11.76,0,0,1,2.79.31Zm-12,13.41a29.88,29.88,0,0,0,7.38,1c5.76,0,9-3.46,9-8.19V23.51a27.41,27.41,0,0,0-7-1.08c-5.54,0-11.12,2.75-11.12,12.56,0,7.2,4.1,10.71,8.24,10.71,2,0,3.42-.59,5.53-2v2.74c0,2.34-1.26,4.68-5.31,4.68A21.93,21.93,0,0,1,193,50Z"/><path class="cls-2" d="M240.36,45.32a8.77,8.77,0,0,0,2.93.56c2.76,0,4.11-1.5,4.11-3.58,0-4-5.39-3.44-5.39-5.8,0-1.08.92-1.78,2.47-1.78a5.19,5.19,0,0,1,2.07.43l.16-1.58a7.83,7.83,0,0,0-2.32-.38c-2.81,0-4.19,1.4-4.19,3.49,0,3.73,5.38,3.08,5.38,5.8,0,1.08-.9,1.87-2.4,1.87a6.57,6.57,0,0,1-2.66-.63Z"/><path class="cls-2" d="M251.18,38.86a2.66,2.66,0,0,1,1.89-1c1,0,1.85,1,1.85,3.09,0,2.36-.85,3.44-1.93,3.44a3,3,0,0,1-1.81-.65Zm-1.75,10.31h1.75V45.09a3.7,3.7,0,0,0,2.12.79c1.66,0,3.38-1.33,3.38-4.92,0-3.34-1.89-4.57-3.15-4.57a3.31,3.31,0,0,0-2.48,1.23l-.27-1h-1.35Z"/><path class="cls-2" d="M263.85,45.7h1.37V39.25c0-1.87-1.28-2.86-3.35-2.86a11.36,11.36,0,0,0-3,.42l.16,1.53a7.75,7.75,0,0,1,2.58-.47c1.44,0,1.85.61,1.85,1.53v.68s-.48,0-1.2,0c-1.89.06-3.93.72-3.93,3a2.76,2.76,0,0,0,2.79,2.83,3.26,3.26,0,0,0,2.47-1.23Zm-.4-2.29a2.5,2.5,0,0,1-1.89,1A1.39,1.39,0,0,1,260.09,43c0-1.06.88-1.62,2.26-1.66.65,0,1.1,0,1.1,0Z"/><path class="cls-2" d="M273.08,43.84a3.62,3.62,0,0,1-1.89.56c-1.4,0-2.28-1.06-2.28-3.27s.84-3.26,2.37-3.26a4,4,0,0,1,1.69.39l.17-1.53a6.53,6.53,0,0,0-2-.34c-2.26,0-4,1.26-4,4.74s1.77,4.75,3.94,4.75a4.9,4.9,0,0,0,2.16-.51Z"/><path class="cls-2" d="M276.29,40.33c.14-1.69.88-2.52,2.07-2.52,1,0,1.67.74,1.62,2.52Zm4.93,3.51a6.46,6.46,0,0,1-2.5.56c-1.53,0-2.38-.92-2.45-2.79h5.42c.32-3.65-1-5.22-3.32-5.22s-3.88,1.26-3.88,4.74,1.71,4.75,3.9,4.75a8.51,8.51,0,0,0,3-.51Z"/><path class="cls-2" d="M28.54,117.67l9-14.8-.09,14.8ZM24,121.36H37.4v7.34h4.37v-7.34h3.6l.4-3.69h-4V98.77H35.83L24,118.12Z"/><path class="cls-2" d="M58.55,125.59c-3.55,0-5.67-4-5.67-11.88s2.12-11.83,5.67-11.83,5.67,4,5.67,11.83S62.11,125.59,58.55,125.59Zm0,3.56c5.54,0,10.08-4.1,10.08-15.44S64.09,98.32,58.55,98.32s-10.08,4.1-10.08,15.39S53,129.15,58.55,129.15Z"/><polygon class="cls-2" points="81.32 123.52 84.06 126.27 91.13 119.2 98.19 126.27 100.94 123.52 93.87 116.46 100.94 109.39 98.19 106.65 91.13 113.71 84.06 106.65 81.32 109.39 88.38 116.46 81.32 123.52"/><path class="cls-2" d="M114.39,128.7h17.77l.41-3.69H119.88l5.71-6.39c5-5.63,6.39-8.46,6.39-11.93,0-5.35-4.41-8.37-9.4-8.37a19.58,19.58,0,0,0-7.61,1.8l.41,3.78a16.73,16.73,0,0,1,6.79-1.89c2.88,0,5.4,1.53,5.4,4.82s-2.65,6.39-6.25,10.48l-6.93,8Z"/><path class="cls-2" d="M147.28,125.59c-3.55,0-5.67-4-5.67-11.88s2.12-11.83,5.67-11.83,5.67,4,5.67,11.83S150.84,125.59,147.28,125.59Zm0,3.56c5.54,0,10.08-4.1,10.08-15.44s-4.54-15.39-10.08-15.39-10.08,4.1-10.08,15.39S141.75,129.15,147.28,129.15Z"/><polygon class="cls-2" points="171.45 128.7 175.81 128.7 175.81 116.59 184.23 128.7 189.76 128.7 180.27 115.87 188.28 105.88 183.01 105.88 175.81 115.65 175.81 96.93 171.45 96.93 171.45 128.7"/><path class="cls-2" d="M204.66,123.43a7.56,7.56,0,0,1-4.55,1.71c-2.79,0-4.81-2.7-4.81-7.2,0-6.75,2.92-9,6.57-9a11.82,11.82,0,0,1,2.79.31Zm-12,13.41a30,30,0,0,0,7.38,1c5.76,0,9-3.46,9-8.19V106.51a27.41,27.41,0,0,0-7-1.08c-5.53,0-11.11,2.75-11.11,12.56,0,7.2,4.09,10.71,8.23,10.71,2,0,3.42-.59,5.54-2v2.74c0,2.34-1.26,4.68-5.31,4.68a21.87,21.87,0,0,1-6.3-1.12Z"/><polygon class="cls-2" points="243.41 128.7 245.73 128.7 249.44 116.37 247.53 116.37 244.63 126.97 241.61 116.37 239.7 116.37 243.41 128.7"/><path class="cls-2" d="M251.71,123.33c.14-1.69.88-2.52,2.07-2.52,1,0,1.67.74,1.62,2.52Zm4.93,3.51a6.46,6.46,0,0,1-2.5.56c-1.53,0-2.38-.92-2.45-2.79h5.42c.32-3.65-1-5.22-3.31-5.22s-3.89,1.26-3.89,4.74,1.71,4.75,3.9,4.75a8.51,8.51,0,0,0,3-.51Z"/><path class="cls-2" d="M259.18,128.7h1.76V122a3.11,3.11,0,0,1,2.68-.81l.18-1.63c-.81-.2-1.83-.2-2.95,1.24l-.3-1.21h-1.37Z"/><path class="cls-2" d="M264.67,128.45a8.09,8.09,0,0,0,2.45.43c2.23,0,3.33-1.23,3.33-2.77,0-3-4.07-2.65-4.07-4.18,0-.65.57-1.06,1.69-1.06a4.76,4.76,0,0,1,1.73.34l.16-1.53a7.17,7.17,0,0,0-2-.29c-2.27,0-3.37,1.12-3.37,2.72,0,2.75,4.07,2.39,4.07,4.18,0,.59-.54,1.11-1.67,1.11a6.21,6.21,0,0,1-2.18-.48Z"/><path class="cls-2" d="M272.32,118h1.91v-1.84h-1.91Zm.07,10.71h1.76v-9.13h-1.76Z"/><path class="cls-2" d="M280.22,127.46c-1.33,0-2.12-1.12-2.12-3.33s.79-3.32,2.12-3.32,2.12,1.1,2.12,3.32S281.55,127.46,280.22,127.46Zm0,1.42c2.18,0,3.89-1.26,3.89-4.75s-1.71-4.74-3.89-4.74-3.89,1.26-3.89,4.74S278,128.88,280.22,128.88Z"/><path class="cls-2" d="M286.29,128.7h1.76v-6.81a3.85,3.85,0,0,1,2.29-1c.93,0,1.35.61,1.35,1.51v6.32h1.76v-6.55a2.47,2.47,0,0,0-2.54-2.76,5,5,0,0,0-3,1.28l-.27-1.1h-1.36Z"/><path class="cls-2" d="M300.22,128.7h7.11l.16-1.48h-5.08l2.29-2.55c2-2.25,2.56-3.39,2.56-4.77,0-2.15-1.77-3.35-3.77-3.35a7.89,7.89,0,0,0-3,.72l.16,1.51a6.79,6.79,0,0,1,2.72-.76,1.93,1.93,0,0,1,2.16,1.93c0,1.3-1.06,2.56-2.5,4.19l-2.77,3.19Z"/><path class="cls-2" d="M313.38,127.46c-1.43,0-2.27-1.62-2.27-4.76S312,118,313.38,118s2.26,1.6,2.26,4.73S314.8,127.46,313.38,127.46Zm0,1.42c2.21,0,4-1.64,4-6.18s-1.82-6.15-4-6.15-4,1.64-4,6.15S311.16,128.88,313.38,128.88Z"/><polygon class="cls-2" points="319.86 128.7 326.43 128.7 326.59 127.22 324.19 127.22 324.19 116.73 322.72 116.73 319.8 118.58 319.96 120.11 322.45 118.53 322.45 127.22 319.86 127.22 319.86 128.7"/><polygon class="cls-2" points="329.29 128.7 335.86 128.7 336.02 127.22 333.63 127.22 333.63 116.73 332.15 116.73 329.23 118.58 329.39 120.11 331.88 118.53 331.88 127.22 329.29 127.22 329.29 128.7"/><rect class="cls-2" x="342.64" y="122.74" width="2.07" height="2.11"/><polygon class="cls-2" points="353.53 128.7 355.33 128.7 355.33 117.9 358.54 117.9 358.7 116.37 350.24 116.37 350.24 117.9 353.53 117.9 353.53 128.7"/><path class="cls-2" d="M360,128.7h1.74v-6.81a3.85,3.85,0,0,1,2.29-1c.94,0,1.35.61,1.35,1.51v6.32h1.76v-6.55a2.47,2.47,0,0,0-2.53-2.76,4.67,4.67,0,0,0-2.87,1.19V116H360Z"/><path class="cls-2" d="M369.59,118h1.91v-1.84h-1.91Zm.07,10.71h1.77v-9.13h-1.77Z"/><path class="cls-2" d="M374.13,128.7h1.76v-6.81a3.85,3.85,0,0,1,2.29-1c.93,0,1.35.61,1.35,1.51v6.32h1.76v-6.55a2.47,2.47,0,0,0-2.54-2.76,5,5,0,0,0-3,1.28l-.27-1.1h-1.36Z"/><path class="cls-2" d="M388,128.32a8.72,8.72,0,0,0,2.93.56c2.75,0,4.1-1.5,4.1-3.58,0-4-5.38-3.44-5.38-5.8,0-1.08.92-1.78,2.47-1.78a5.19,5.19,0,0,1,2.07.43l.16-1.58a7.89,7.89,0,0,0-2.32-.38c-2.81,0-4.2,1.4-4.2,3.49,0,3.73,5.39,3.08,5.39,5.8,0,1.08-.9,1.87-2.4,1.87a6.57,6.57,0,0,1-2.66-.63Z"/><path class="cls-2" d="M398.8,121.86a2.67,2.67,0,0,1,1.89-1c1,0,1.86,1,1.86,3.09,0,2.36-.85,3.44-1.93,3.44a3,3,0,0,1-1.82-.65Zm-1.74,10.31h1.74v-4.08a3.76,3.76,0,0,0,2.13.79c1.65,0,3.38-1.33,3.38-4.92,0-3.34-1.89-4.57-3.15-4.57a3.31,3.31,0,0,0-2.48,1.23l-.27-1.05h-1.35Z"/><path class="cls-2" d="M411.48,128.7h1.36v-6.45c0-1.87-1.27-2.86-3.34-2.86a11.36,11.36,0,0,0-3,.42l.16,1.53a7.75,7.75,0,0,1,2.58-.47c1.44,0,1.85.61,1.85,1.53v.68s-.49,0-1.21,0c-1.89.06-3.92.72-3.92,3a2.76,2.76,0,0,0,2.79,2.83,3.28,3.28,0,0,0,2.47-1.23Zm-.4-2.29a2.5,2.5,0,0,1-1.89,1,1.4,1.4,0,0,1-1.48-1.42c0-1.06.89-1.62,2.27-1.66.65,0,1.1,0,1.1,0Z"/><path class="cls-2" d="M420.71,126.84a3.62,3.62,0,0,1-1.89.56c-1.4,0-2.29-1.06-2.29-3.27s.85-3.26,2.38-3.26a4,4,0,0,1,1.69.39l.16-1.53a6.42,6.42,0,0,0-2-.34c-2.27,0-4,1.26-4,4.74s1.76,4.75,3.94,4.75a4.9,4.9,0,0,0,2.16-.51Z"/><path class="cls-2" d="M423.91,123.33c.15-1.69.89-2.52,2.07-2.52,1,0,1.68.74,1.62,2.52Zm4.94,3.51a6.47,6.47,0,0,1-2.51.56c-1.53,0-2.37-.92-2.44-2.79h5.41c.33-3.65-1-5.22-3.31-5.22s-3.89,1.26-3.89,4.74,1.71,4.75,3.91,4.75a8.56,8.56,0,0,0,3-.51Z"/><path class="cls-2" d="M38.54,200.67l9-14.8-.09,14.8ZM34,204.36H47.4v7.34h4.37v-7.34h3.6l.4-3.69h-4v-18.9H45.83L34,201.12Z"/><path class="cls-2" d="M68.55,208.59c-3.55,0-5.67-4.05-5.67-11.88s2.12-11.83,5.67-11.83,5.67,4,5.67,11.83S72.11,208.59,68.55,208.59Zm0,3.56c5.54,0,10.08-4.1,10.08-15.44s-4.54-15.39-10.08-15.39-10.08,4.1-10.08,15.39S63,212.15,68.55,212.15Z"/><polygon class="cls-2" points="87.94 206.52 90.69 209.27 97.75 202.2 104.82 209.27 107.56 206.52 100.5 199.46 107.56 192.39 104.82 189.65 97.75 196.71 90.69 189.65 87.94 192.39 95.01 199.46 87.94 206.52"/><path class="cls-2" d="M117.64,211.7h17.77l.41-3.69H123.13l5.71-6.39c5-5.63,6.39-8.46,6.39-11.93,0-5.35-4.41-8.37-9.4-8.37a19.58,19.58,0,0,0-7.61,1.8l.41,3.78a16.73,16.73,0,0,1,6.79-1.89c2.88,0,5.4,1.53,5.4,4.82s-2.65,6.39-6.25,10.48l-6.93,8Z"/><path class="cls-2" d="M150.53,208.59c-3.55,0-5.67-4.05-5.67-11.88s2.12-11.83,5.67-11.83,5.67,4,5.67,11.83S154.09,208.59,150.53,208.59Zm0,3.56c5.54,0,10.08-4.1,10.08-15.44s-4.54-15.39-10.08-15.39-10.08,4.1-10.08,15.39S145,212.15,150.53,212.15Z"/><polygon class="cls-2" points="171.32 211.7 175.69 211.7 175.69 199.59 184.1 211.7 189.64 211.7 180.14 198.87 188.15 188.88 182.89 188.88 175.69 198.65 175.69 179.93 171.32 179.93 171.32 211.7"/><path class="cls-2" d="M204.53,206.43a7.54,7.54,0,0,1-4.54,1.71c-2.79,0-4.82-2.7-4.82-7.2,0-6.75,2.93-8.95,6.57-8.95a11.76,11.76,0,0,1,2.79.31Zm-12,13.41a29.88,29.88,0,0,0,7.38,1c5.76,0,9-3.46,9-8.19V189.51a27.41,27.41,0,0,0-7-1.08c-5.54,0-11.12,2.75-11.12,12.56,0,7.2,4.1,10.71,8.24,10.71,2,0,3.42-.59,5.53-2v2.74c0,2.34-1.26,4.68-5.31,4.68a21.93,21.93,0,0,1-6.3-1.12Z"/><polygon class="cls-2" points="243.28 211.7 245.61 211.7 249.31 199.37 247.41 199.37 244.51 209.97 241.48 199.37 239.58 199.37 243.28 211.7"/><path class="cls-2" d="M251.58,206.33c.15-1.69.88-2.52,2.07-2.52,1,0,1.68.74,1.62,2.52Zm4.93,3.51a6.42,6.42,0,0,1-2.5.56c-1.53,0-2.37-.92-2.45-2.79H257c.33-3.65-1-5.22-3.31-5.22s-3.89,1.26-3.89,4.74,1.71,4.75,3.91,4.75a8.6,8.6,0,0,0,3-.51Z"/><path class="cls-2" d="M259.05,211.7h1.77V205a3.11,3.11,0,0,1,2.68-.81l.18-1.63a2.62,2.62,0,0,0-2.95,1.24l-.31-1.21h-1.37Z"/><path class="cls-2" d="M264.54,211.45a8.14,8.14,0,0,0,2.45.43c2.23,0,3.33-1.23,3.33-2.77,0-3-4.07-2.65-4.07-4.18,0-.65.58-1.06,1.69-1.06a4.72,4.72,0,0,1,1.73.34l.16-1.53a7.17,7.17,0,0,0-2-.29c-2.26,0-3.36,1.12-3.36,2.72,0,2.75,4.07,2.39,4.07,4.18,0,.59-.54,1.11-1.68,1.11a6.3,6.3,0,0,1-2.18-.48Z"/><path class="cls-2" d="M272.19,201h1.91v-1.84h-1.91Zm.07,10.71H274v-9.13h-1.77Z"/><path class="cls-2" d="M280.09,210.46c-1.33,0-2.12-1.12-2.12-3.33s.79-3.32,2.12-3.32,2.13,1.1,2.13,3.32S281.43,210.46,280.09,210.46Zm0,1.42c2.18,0,3.89-1.26,3.89-4.75s-1.71-4.74-3.89-4.74-3.88,1.26-3.88,4.74S277.92,211.88,280.09,211.88Z"/><path class="cls-2" d="M286.16,211.7h1.76v-6.81a3.85,3.85,0,0,1,2.29-1c.94,0,1.35.61,1.35,1.51v6.32h1.76v-6.55a2.47,2.47,0,0,0-2.53-2.76,5,5,0,0,0-3,1.28l-.27-1.1h-1.37Z"/><path class="cls-2" d="M300.09,211.7h7.11l.16-1.48h-5.07l2.28-2.55c2-2.25,2.56-3.39,2.56-4.77,0-2.15-1.76-3.35-3.76-3.35a7.81,7.81,0,0,0-3,.72l.16,1.51a6.75,6.75,0,0,1,2.72-.76,1.93,1.93,0,0,1,2.16,1.93c0,1.3-1.07,2.56-2.51,4.19l-2.77,3.19Z"/><path class="cls-2" d="M313.25,210.46c-1.42,0-2.27-1.62-2.27-4.76s.85-4.73,2.27-4.73,2.27,1.6,2.27,4.73S314.67,210.46,313.25,210.46Zm0,1.42c2.21,0,4-1.64,4-6.18s-1.82-6.15-4-6.15-4,1.64-4,6.15S311,211.88,313.25,211.88Z"/><polygon class="cls-2" points="319.73 211.7 326.3 211.7 326.46 210.22 324.07 210.22 324.07 199.73 322.59 199.73 319.68 201.58 319.84 203.11 322.32 201.53 322.32 210.22 319.73 210.22 319.73 211.7"/><path class="cls-2" d="M332.28,204.82c-1.14-.54-2.09-1.08-2.09-2.19a1.95,1.95,0,0,1,3.85,0C334,203.72,333.27,204.32,332.28,204.82Zm-.35,1.41c1.28.55,2.45,1.08,2.45,2.26a2.29,2.29,0,0,1-4.53,0C329.85,207.38,330.8,206.78,331.93,206.23Zm-1.35-.63c-1.33.63-2.5,1.4-2.5,3.07s1.41,3.21,4,3.21,4-1.46,4-3.21-1.21-2.61-2.52-3.25c1.17-.63,2.17-1.44,2.17-3,0-1.86-1.72-2.9-3.69-2.9s-3.69,1-3.69,2.9A3.39,3.39,0,0,0,330.58,205.6Z"/><rect class="cls-2" x="342.52" y="205.74" width="2.07" height="2.11"/><polygon class="cls-2" points="353.41 211.7 355.21 211.7 355.21 200.9 358.41 200.9 358.57 199.37 350.11 199.37 350.11 200.9 353.41 200.9 353.41 211.7"/><path class="cls-2" d="M359.85,211.7h1.75v-6.81a3.85,3.85,0,0,1,2.28-1c.94,0,1.35.61,1.35,1.51v6.32H367v-6.55a2.47,2.47,0,0,0-2.54-2.76,4.65,4.65,0,0,0-2.86,1.19V199h-1.75Z"/><path class="cls-2" d="M369.46,201h1.91v-1.84h-1.91Zm.08,10.71h1.76v-9.13h-1.76Z"/><path class="cls-2" d="M374,211.7h1.76v-6.81a3.85,3.85,0,0,1,2.29-1c.94,0,1.35.61,1.35,1.51v6.32h1.76v-6.55a2.47,2.47,0,0,0-2.53-2.76,5,5,0,0,0-3,1.28l-.27-1.1H374Z"/><path class="cls-2" d="M387.86,211.32a8.77,8.77,0,0,0,2.93.56c2.76,0,4.11-1.5,4.11-3.58,0-4-5.38-3.44-5.38-5.8,0-1.08.91-1.78,2.46-1.78a5.19,5.19,0,0,1,2.07.43l.16-1.58a7.83,7.83,0,0,0-2.32-.38c-2.81,0-4.19,1.4-4.19,3.49,0,3.73,5.38,3.08,5.38,5.8,0,1.08-.9,1.87-2.39,1.87a6.61,6.61,0,0,1-2.67-.63Z"/><path class="cls-2" d="M398.68,204.86a2.66,2.66,0,0,1,1.89-1c1,0,1.85,1,1.85,3.09,0,2.36-.84,3.44-1.92,3.44a3,3,0,0,1-1.82-.65Zm-1.75,10.31h1.75v-4.08a3.7,3.7,0,0,0,2.12.79c1.66,0,3.39-1.33,3.39-4.92,0-3.34-1.89-4.57-3.15-4.57a3.31,3.31,0,0,0-2.49,1.23l-.27-1.05h-1.35Z"/><path class="cls-2" d="M411.35,211.7h1.37v-6.45c0-1.87-1.28-2.86-3.35-2.86a11.42,11.42,0,0,0-3,.42l.17,1.53a7.65,7.65,0,0,1,2.57-.47c1.44,0,1.85.61,1.85,1.53v.68s-.48,0-1.2,0c-1.89.06-3.93.72-3.93,3a2.76,2.76,0,0,0,2.79,2.83,3.25,3.25,0,0,0,2.47-1.23Zm-.4-2.29a2.49,2.49,0,0,1-1.89,1,1.4,1.4,0,0,1-1.47-1.42c0-1.06.88-1.62,2.27-1.66.64,0,1.09,0,1.09,0Z"/><path class="cls-2" d="M420.58,209.84a3.59,3.59,0,0,1-1.89.56c-1.4,0-2.28-1.06-2.28-3.27s.84-3.26,2.37-3.26a4.08,4.08,0,0,1,1.7.39l.16-1.53a6.47,6.47,0,0,0-2-.34c-2.27,0-4,1.26-4,4.74s1.77,4.75,3.95,4.75a5,5,0,0,0,2.16-.51Z"/><path class="cls-2" d="M423.79,206.33c.14-1.69.88-2.52,2.07-2.52,1,0,1.67.74,1.62,2.52Zm4.93,3.51a6.46,6.46,0,0,1-2.5.56c-1.53,0-2.38-.92-2.45-2.79h5.42c.32-3.65-1-5.22-3.31-5.22s-3.89,1.26-3.89,4.74,1.71,4.75,3.9,4.75a8.51,8.51,0,0,0,3-.51Z"/></g></svg>