<svg xmlns="http://www.w3.org/2000/svg" xmlns:xlink="http://www.w3.org/1999/xlink"
    viewBox="-50 -50 219 160">
    <title>cat-animation</title>

    <style>
      .step {
        opacity: 0;
      }

      #step-06 {
        opacity: 1;
      }
    </style>


    <g id="step-01" class="step">
        <path
            d="M2.15,25.26a4.45,4.45,0,0,1,1.23-3.14,4.12,4.12,0,0,1,3.17-1.33,4,4,0,0,1,3.11,1.33,4.38,4.38,0,0,1,1.23,3.07,4.5,4.5,0,0,1-1.23,3.15,4.14,4.14,0,0,1-3.17,1.32,4.06,4.06,0,0,1-3.11-1.32A4.42,4.42,0,0,1,2.15,25.26ZM2.15,50a4.45,4.45,0,0,1,1.23-3.14,4.12,4.12,0,0,1,3.17-1.33,4,4,0,0,1,3.11,1.33A4.38,4.38,0,0,1,10.89,50a4.47,4.47,0,0,1-1.23,3.14,4.12,4.12,0,0,1-3.17,1.33,4,4,0,0,1-3.11-1.33A4.4,4.4,0,0,1,2.15,50Z"
        />
    </g>
    <g id="step-02" class="step">
        <path
            d="M24.62,38.41q0,5.7,2.46,8.46A8.75,8.75,0,0,0,34,49.62a20.84,20.84,0,0,0,3.56-.32,19.51,19.51,0,0,0,3.37-.91l1.23,4a23.6,23.6,0,0,1-4.18,1.4,21.14,21.14,0,0,1-4.69.48,15.59,15.59,0,0,1-5.51-.94,11.47,11.47,0,0,1-4.38-2.85,13.08,13.08,0,0,1-2.88-4.86,21.26,21.26,0,0,1-1-7V36.66q0-7.32,3.76-11.56t10.5-4.25a19.28,19.28,0,0,1,8.36,1.88l-1.23,3.83a25,25,0,0,0-3.28-.82A20.67,20.67,0,0,0,34,25.45a9.72,9.72,0,0,0-4.24.85,7.69,7.69,0,0,0-2.92,2.36,10.4,10.4,0,0,0-1.68,3.6,17.74,17.74,0,0,0-.55,4.6Z"
        />
    </g>
    <g id="step-03" class="step">
        <path
            d="M67.64,39.06h-7.9a9.86,9.86,0,0,0-5.9,1.49,4.74,4.74,0,0,0-2,4,5.13,5.13,0,0,0,1.59,3.69,6.29,6.29,0,0,0,4.7,1.62,10.56,10.56,0,0,0,4.05-.74,8.7,8.7,0,0,0,3-2,8.92,8.92,0,0,0,1.85-3,10.36,10.36,0,0,0,.64-3.66Zm5.19,14.45H69.65a7.19,7.19,0,0,1-.9-2.14,16.07,16.07,0,0,1-.46-2.59,10.56,10.56,0,0,1-4.53,4.08,14.52,14.52,0,0,1-6.35,1.36,12.68,12.68,0,0,1-4.28-.68,9.6,9.6,0,0,1-3.34-1.94,8.93,8.93,0,0,1-2.17-3,9.48,9.48,0,0,1-.78-3.89,8.89,8.89,0,0,1,3.24-7.1q3.24-2.74,9.72-2.75h7.84v-.91q-.06-4.66-2.2-6.74T58.7,25.13a19.3,19.3,0,0,0-5.09.61c-1.49.41-2.88.86-4.17,1.33L48.2,23.51a26.46,26.46,0,0,1,5-1.91,23.23,23.23,0,0,1,6.31-.81,18.07,18.07,0,0,1,5.35.74,11.26,11.26,0,0,1,4.18,2.3,10.65,10.65,0,0,1,2.75,4,15.59,15.59,0,0,1,1,5.9Z"
        />
    </g>
    <g id="step-04" class="step">
        <path
            d="M78,21.57h5.77v-2.4a20.24,20.24,0,0,1,.39-3.79,11.71,11.71,0,0,1,1.23-3.54H89v9.73h8.49v4.59H89V44.31a6.51,6.51,0,0,0,1,3.89,4,4,0,0,0,3.5,1.42,13.82,13.82,0,0,0,2.23-.16A18,18,0,0,0,97.65,49l.71,4a15.59,15.59,0,0,1-2.85.84,15.29,15.29,0,0,1-3.05.32,9.94,9.94,0,0,1-4.11-.74,7.08,7.08,0,0,1-2.66-2,8.08,8.08,0,0,1-1.46-2.95A13.73,13.73,0,0,1,83.78,45V26.16H78Z"
        />
    </g>
    <g id="step-05" class="step">
        <path
            d="M104.56,25.26a4.45,4.45,0,0,1,1.23-3.14A4.12,4.12,0,0,1,109,20.79a4,4,0,0,1,3.11,1.33,4.38,4.38,0,0,1,1.23,3.07,4.5,4.5,0,0,1-1.23,3.15,4.15,4.15,0,0,1-3.18,1.32,4.07,4.07,0,0,1-3.11-1.32A4.42,4.42,0,0,1,104.56,25.26Zm0,24.75a4.45,4.45,0,0,1,1.23-3.14A4.12,4.12,0,0,1,109,45.54a4,4,0,0,1,3.11,1.33A4.38,4.38,0,0,1,113.31,50a4.47,4.47,0,0,1-1.23,3.14,4.12,4.12,0,0,1-3.18,1.33,4,4,0,0,1-3.11-1.33A4.4,4.4,0,0,1,104.56,50Z"
        />
    </g>
    <g id="step-06" class="step">
        <path
            d="M23,30.18a2.66,2.66,0,0,1-2.66,2.66,2.65,2.65,0,0,1-1.91-.78,2.51,2.51,0,0,1-.81-1.88,2.77,2.77,0,0,1,2.72-2.72,2.52,2.52,0,0,1,1.88.81A2.67,2.67,0,0,1,23,30.18Zm18.72,0A2.65,2.65,0,0,1,39,32.84a2.67,2.67,0,0,1-1.92-.78,2.51,2.51,0,0,1-.81-1.88A2.77,2.77,0,0,1,39,27.46a2.52,2.52,0,0,1,1.88.81A2.7,2.7,0,0,1,41.69,30.18ZM26.34,40.1l.48-.26a4.48,4.48,0,0,1,.49-.26v-5H32v4.92l4.15,2.73V44.7a17.24,17.24,0,0,1-2.34-.13A4.82,4.82,0,0,1,32,43.73l-2.26-1.62-2.34,1.62a4.81,4.81,0,0,1-1.84.84,17.1,17.1,0,0,1-2.37.13V42.24Zm-12.77-.39c.3.6.62,1.18.94,1.72A12.45,12.45,0,0,0,15.64,43l4.93-1.94,1.42,4-3,1.1a18.29,18.29,0,0,0,4.93,2.49,17.91,17.91,0,0,0,5.7.88,17.91,17.91,0,0,0,5.7-.88,18.15,18.15,0,0,0,4.93-2.49l-2.92-1.1,1.43-4L43.7,43a16.41,16.41,0,0,0,2.08-3.24H38.84V35.43H47.2a16.55,16.55,0,0,0,.39-3.63,15.44,15.44,0,0,0-.49-4.11,22.47,22.47,0,0,0-1.32-3.6l1.36-10.95-7.52,3.95A24.14,24.14,0,0,0,35.54,15a15.73,15.73,0,0,0-5.9-1,15.49,15.49,0,0,0-5.83,1,27.17,27.17,0,0,0-4.15,2.07l-7.52-3.95,1.43,11q-.59,1.36-1.2,3.18a14.3,14.3,0,0,0-.61,4.53,18.06,18.06,0,0,0,.09,1.85c.07.58.14,1.18.23,1.78h8.36v4.28Zm32,8.49a22.45,22.45,0,0,1-7.07,4.34,24.34,24.34,0,0,1-8.81,1.55,24.23,24.23,0,0,1-8.84-1.55,22.54,22.54,0,0,1-7-4.34L5.47,51.37,4,47.42l6.74-2.59a20,20,0,0,1-2.65-5.12h-6V35.43H7c-.09-.6-.16-1.21-.2-1.81s-.06-1.21-.06-1.82a21.93,21.93,0,0,1,1.68-8.42l-2.14-18L19.53,12A21.76,21.76,0,0,1,29.64,9.51,21.47,21.47,0,0,1,39.75,12L53,5.36l-2.14,18a21.75,21.75,0,0,1,1.69,8.42,15.86,15.86,0,0,1-.1,1.82c-.06.6-.14,1.21-.22,1.81h4.92v4.28h-6a19.74,19.74,0,0,1-2.65,5.12l6.8,2.59-1.42,3.95Z"
        />
    </g>

    <rect id="start" width="100%" height="100%" style="fill:rgba(0,0,0,0)"/>


    <animate xlink:href="#start" attributeType="CSS" attributeName="opacity" from="0" to="1"
        dur="2ms" begin="click" id="start-anim"/>

    <animate xlink:href="#step-01" attributeType="CSS" attributeName="opacity" from="0" to="0"
        dur="3800ms" values="0; 1; 1; 0" keyTimes="0; 0; 1; 1" begin="start-anim.begin + 0.0s"
        id="step-01-anim"/>

    <animate xlink:href="#step-02" attributeType="CSS" attributeName="opacity" from="0" to="0"
        dur="3600ms" values="0; 0; 1; 1; 0" keyTimes="0; 0.1; 0.1; 1; 1"
        begin="start-anim.begin + 0.2s" id="step-02-anim"/>

    <animate xlink:href="#step-03" attributeType="CSS" attributeName="opacity" from="0" to="0"
        dur="3400ms" values="0; 0; 1; 1; 0" keyTimes="0; 0.2; 0.2; 1; 1"
        begin="start-anim.begin + 0.4s" id="step-03-anim"/>

    <animate xlink:href="#step-04" attributeType="CSS" attributeName="opacity" from="0" to="0"
        dur="3200ms" values="0; 0; 1; 1; 0" keyTimes="0; 0.3; 0.3; 1; 1"
        begin="start-anim.begin + 0.6s" id="step-04-anim"/>

    <animate xlink:href="#step-05" attributeType="CSS" attributeName="opacity" from="0" to="0"
        dur="3000ms" values="0; 0; 1; 1; 0" keyTimes="0; 0.4; 0.4; 1; 1"
        begin="start-anim.begin + 0.8s" id="step-05-anim"/>

    <animate xlink:href="#step-06" attributeType="CSS" attributeName="opacity" from="0" to="0"
        dur="4000ms" values="0; 0;   1" keyTimes="0; 1; 1" begin="start-anim.begin + 0.0s"
        id="step-06-anim"/>

</svg>
