<svg id="Layer_1" data-name="Layer 1" xmlns="http://www.w3.org/2000/svg" viewBox="0 0 272.74 59.3"><title>cat</title><path d="M24.07,30.54a2.66,2.66,0,0,1-2.66,2.66,2.65,2.65,0,0,1-1.91-.78,2.51,2.51,0,0,1-.81-1.88,2.77,2.77,0,0,1,2.72-2.72,2.52,2.52,0,0,1,1.88.81A2.67,2.67,0,0,1,24.07,30.54Zm18.72,0a2.65,2.65,0,0,1-2.65,2.66,2.67,2.67,0,0,1-1.92-.78,2.51,2.51,0,0,1-.81-1.88,2.77,2.77,0,0,1,2.73-2.72,2.52,2.52,0,0,1,1.88.81A2.7,2.7,0,0,1,42.79,30.54ZM27.44,40.45a5.42,5.42,0,0,0,.48-.26c.15-.08.31-.17.49-.25V35h4.73v4.92l4.14,2.72v2.47A17.18,17.18,0,0,1,35,44.93a4.71,4.71,0,0,1-1.88-.85L30.8,42.46l-2.33,1.62a4.7,4.7,0,0,1-1.84.85,17.1,17.1,0,0,1-2.37.13V42.59Zm-12.77-.38c.3.6.62,1.17.94,1.71a12.54,12.54,0,0,0,1.13,1.59l4.93-1.94,1.42,4-3,1.11a18.32,18.32,0,0,0,21.26,0l-2.92-1.11,1.43-4,4.92,1.88a16.7,16.7,0,0,0,2.08-3.24H39.94V35.79H48.3a16.69,16.69,0,0,0,.39-3.63,15.34,15.34,0,0,0-.49-4.11,22.47,22.47,0,0,0-1.32-3.6L48.24,13.5l-7.52,3.95a23.42,23.42,0,0,0-4.08-2.07,15.72,15.72,0,0,0-5.9-1,15.48,15.48,0,0,0-5.83,1,26.28,26.28,0,0,0-4.15,2.07L13.24,13.5l1.43,11c-.39.91-.79,2-1.2,3.17a14.36,14.36,0,0,0-.61,4.54A18.2,18.2,0,0,0,13,34c.07.58.14,1.17.23,1.78h8.36v4.28Zm31.95,8.48a22.3,22.3,0,0,1-7.07,4.35,24.34,24.34,0,0,1-8.81,1.55,24.32,24.32,0,0,1-8.85-1.55,22.45,22.45,0,0,1-7-4.35L6.57,51.73,5.14,47.78l6.74-2.6a19.93,19.93,0,0,1-2.65-5.11h-6V35.79H8.12C8,35.18,8,34.58,7.93,34s-.06-1.2-.06-1.81a21.93,21.93,0,0,1,1.68-8.42l-2.14-18,13.22,6.61A21.87,21.87,0,0,1,30.74,9.87a21.58,21.58,0,0,1,10.11,2.46L54.13,5.72,52,23.74a21.75,21.75,0,0,1,1.69,8.42,15.56,15.56,0,0,1-.1,1.81c-.06.61-.14,1.21-.22,1.82h4.92v4.28h-6a19.68,19.68,0,0,1-2.65,5.11l6.8,2.6L55,51.73Z"/><path d="M84.71,25.61a4.49,4.49,0,0,1,1.23-3.14,4.16,4.16,0,0,1,3.18-1.33,4.08,4.08,0,0,1,3.11,1.33,4.4,4.4,0,0,1,1.23,3.08,4.45,4.45,0,0,1-1.23,3.14A4.12,4.12,0,0,1,89.05,30a4,4,0,0,1-3.11-1.33A4.38,4.38,0,0,1,84.71,25.61Zm0,24.76a4.45,4.45,0,0,1,1.23-3.14,4.12,4.12,0,0,1,3.18-1.33,4,4,0,0,1,3.11,1.33,4.38,4.38,0,0,1,1.23,3.07,4.5,4.5,0,0,1-1.23,3.15,4.15,4.15,0,0,1-3.18,1.32,4.07,4.07,0,0,1-3.11-1.32A4.42,4.42,0,0,1,84.71,50.37Z"/><path d="M107.18,38.77q0,5.7,2.47,8.46A8.75,8.75,0,0,0,116.51,50a20.87,20.87,0,0,0,3.57-.32,19.51,19.51,0,0,0,3.37-.91l1.23,4a23,23,0,0,1-4.18,1.39,20.56,20.56,0,0,1-4.7.49,15.63,15.63,0,0,1-5.51-.94,11.63,11.63,0,0,1-4.37-2.85A13.08,13.08,0,0,1,103,45.93a21.26,21.26,0,0,1-1-7V37q0-7.32,3.76-11.57t10.5-4.24a19.1,19.1,0,0,1,8.35,1.88l-1.23,3.82a25.18,25.18,0,0,0-3.27-.81,20.76,20.76,0,0,0-3.53-.29,9.84,9.84,0,0,0-4.24.84A7.62,7.62,0,0,0,109.42,29a10.37,10.37,0,0,0-1.69,3.59,18.3,18.3,0,0,0-.55,4.6Z"/><path d="M150.21,39.42h-7.9a9.76,9.76,0,0,0-5.9,1.49,4.74,4.74,0,0,0-2,4A5.13,5.13,0,0,0,136,48.62a6.29,6.29,0,0,0,4.7,1.62,10.37,10.37,0,0,0,4.05-.75,8.52,8.52,0,0,0,3-2,8.65,8.65,0,0,0,1.84-3,10.29,10.29,0,0,0,.65-3.66Zm5.18,14.45h-3.17a7.59,7.59,0,0,1-.91-2.14,17.48,17.48,0,0,1-.45-2.59,10.65,10.65,0,0,1-4.54,4.08A14.49,14.49,0,0,1,140,54.58a12.92,12.92,0,0,1-4.27-.68A9.6,9.6,0,0,1,132.36,52a9,9,0,0,1-2.17-3,9.4,9.4,0,0,1-.78-3.88,8.89,8.89,0,0,1,3.24-7.1q3.24-2.76,9.72-2.75h7.84V34.3c0-3.11-.78-5.36-2.2-6.74s-3.67-2.07-6.74-2.07a19.25,19.25,0,0,0-5.09.61c-1.49.41-2.88.85-4.18,1.33l-1.23-3.56a26.6,26.6,0,0,1,5-1.92,23.36,23.36,0,0,1,6.32-.81,18.11,18.11,0,0,1,5.35.75,11.12,11.12,0,0,1,4.18,2.3,10.69,10.69,0,0,1,2.75,4,15.54,15.54,0,0,1,1,5.89Z"/><path d="M160.58,21.92h5.77v-2.4a21.14,21.14,0,0,1,.38-3.79A11.38,11.38,0,0,1,168,12.2h3.56v9.72H180v4.6h-8.49V44.67a6.47,6.47,0,0,0,1,3.88,4,4,0,0,0,3.5,1.43,13.82,13.82,0,0,0,2.23-.16,17.32,17.32,0,0,0,1.91-.42l.72,4a14.93,14.93,0,0,1-2.86.85,16,16,0,0,1-3,.32,10.19,10.19,0,0,1-4.12-.74,7,7,0,0,1-2.65-2,8.08,8.08,0,0,1-1.46-2.95,13.8,13.8,0,0,1-.45-3.57V26.52h-5.77Z"/><path d="M187.13,25.61a4.49,4.49,0,0,1,1.23-3.14,4.15,4.15,0,0,1,3.17-1.33,4.07,4.07,0,0,1,3.11,1.33,4.4,4.4,0,0,1,1.23,3.08,4.45,4.45,0,0,1-1.23,3.14A4.12,4.12,0,0,1,191.47,30a4,4,0,0,1-3.11-1.33A4.38,4.38,0,0,1,187.13,25.61Zm0,24.76a4.45,4.45,0,0,1,1.23-3.14,4.12,4.12,0,0,1,3.17-1.33,4,4,0,0,1,3.11,1.33,4.38,4.38,0,0,1,1.23,3.07,4.5,4.5,0,0,1-1.23,3.15,4.14,4.14,0,0,1-3.17,1.32,4.07,4.07,0,0,1-3.11-1.32A4.42,4.42,0,0,1,187.13,50.37Z"/></svg>