<svg id="Layer_1" data-name="Layer 1" xmlns="http://www.w3.org/2000/svg" viewBox="0 0 272.74 59.3"><title>smile</title><path d="M42.38,41.53a20.38,20.38,0,0,1-5.54,3.27,17.39,17.39,0,0,1-6.26,1.07,17.81,17.81,0,0,1-6.35-1.07,18.3,18.3,0,0,1-5.44-3.27V37.9a30.69,30.69,0,0,0,6.28,2.71,21,21,0,0,0,5.51.73,21.32,21.32,0,0,0,5.54-.73,29,29,0,0,0,6.26-2.71ZM40.69,23.9A3.55,3.55,0,0,1,43.41,25a3.82,3.82,0,0,1,1,2.72,3.77,3.77,0,0,1-1,2.62,3.5,3.5,0,0,1-2.72,1.14,3.35,3.35,0,0,1-2.59-1.14,3.77,3.77,0,0,1-1-2.62,3.82,3.82,0,0,1,1-2.72A3.39,3.39,0,0,1,40.69,23.9Zm-20.15,0A3.41,3.41,0,0,1,23.19,25a3.72,3.72,0,0,1,1,2.62,3.8,3.8,0,0,1-1,2.69,3.41,3.41,0,0,1-2.65,1.14,3.49,3.49,0,0,1-2.72-1.14,3.85,3.85,0,0,1-1-2.69,3.77,3.77,0,0,1,1-2.62A3.49,3.49,0,0,1,20.54,23.9Zm31,7.13A22,22,0,0,0,50,22.81,20.49,20.49,0,0,0,30.71,9.91a20.33,20.33,0,0,0-14.84,6.21,20.75,20.75,0,0,0-4.34,6.76A21.7,21.7,0,0,0,10,31.1a21.67,21.67,0,0,0,1.55,8.25A20.46,20.46,0,0,0,30.78,52.22,20.48,20.48,0,0,0,39,50.57,20.32,20.32,0,0,0,50,39.32,22.14,22.14,0,0,0,51.51,31ZM30.78,56.76a25.49,25.49,0,0,1-10.14-2,26,26,0,0,1-8.2-5.48A25.51,25.51,0,0,1,4.92,31a25.18,25.18,0,0,1,2-10,25.5,25.5,0,0,1,5.51-8.16,26,26,0,0,1,8.23-5.48,25.56,25.56,0,0,1,10.11-2,25.33,25.33,0,0,1,10.07,2,26.15,26.15,0,0,1,8.2,5.48A25.5,25.5,0,0,1,54.56,21a25.18,25.18,0,0,1,2,10,25.51,25.51,0,0,1-7.52,18.24,26.15,26.15,0,0,1-8.2,5.48A25.33,25.33,0,0,1,30.78,56.76Z"/><path d="M84.71,25.4a4.5,4.5,0,0,1,1.23-3.15,4.16,4.16,0,0,1,3.18-1.33,4.08,4.08,0,0,1,3.11,1.33,4.4,4.4,0,0,1,1.23,3.08,4.45,4.45,0,0,1-1.23,3.14,4.12,4.12,0,0,1-3.18,1.33,4,4,0,0,1-3.11-1.33A4.38,4.38,0,0,1,84.71,25.4Zm0,24.75A4.45,4.45,0,0,1,85.94,47a4.12,4.12,0,0,1,3.18-1.33A4,4,0,0,1,92.23,47a4.38,4.38,0,0,1,1.23,3.07,4.5,4.5,0,0,1-1.23,3.15,4.15,4.15,0,0,1-3.18,1.32,4.07,4.07,0,0,1-3.11-1.32A4.4,4.4,0,0,1,84.71,50.15Z"/><path d="M123.32,27.27q-2.26-.7-4.5-1.26a19.52,19.52,0,0,0-4.7-.55,10.29,10.29,0,0,0-5.22,1.13A3.66,3.66,0,0,0,107,29.93a4.4,4.4,0,0,0,.32,1.72,3.57,3.57,0,0,0,1.2,1.39,9.81,9.81,0,0,0,2.37,1.2,25.65,25.65,0,0,0,3.82,1,32.51,32.51,0,0,1,4.54,1.23,12.23,12.23,0,0,1,3.43,1.81,7.39,7.39,0,0,1,2.17,2.63,8.18,8.18,0,0,1,.75,3.66,9,9,0,0,1-1,4.24,8.72,8.72,0,0,1-2.68,3.08,12.55,12.55,0,0,1-4.05,1.85,20.13,20.13,0,0,1-5.12.61,24.24,24.24,0,0,1-6.09-.71,28.3,28.3,0,0,1-5.45-2.08l1.3-3.82a45.45,45.45,0,0,0,4.66,1.49,21.27,21.27,0,0,0,5.38.65,10.57,10.57,0,0,0,5.8-1.33,4,4,0,0,0,2-3.53,3.68,3.68,0,0,0-.52-2,4.44,4.44,0,0,0-1.58-1.43,12.33,12.33,0,0,0-2.69-1.07c-1.08-.3-2.38-.62-3.89-1a23.53,23.53,0,0,1-4-1.2,11.4,11.4,0,0,1-3.14-1.84,8.18,8.18,0,0,1-2-2.63,8,8,0,0,1-.74-3.6,8.2,8.2,0,0,1,3.14-6.7Q108.09,21,113.47,21a22.22,22.22,0,0,1,5.83.71,27.18,27.18,0,0,1,5.12,2Z"/><path d="M154.1,35.89q0-5.05-2-7.74a6.77,6.77,0,0,0-5.77-2.69,7.06,7.06,0,0,0-5.86,2.92,10.17,10.17,0,0,0-1.56,3.24,14.69,14.69,0,0,0-.55,4.08V53.65h-5.18V21.7h3.5a19.49,19.49,0,0,1,.71,2,12.46,12.46,0,0,1,.45,2.4,11.45,11.45,0,0,1,4.22-3.95,11.17,11.17,0,0,1,5.63-1.3,10.21,10.21,0,0,1,6.16,1.78,11.87,11.87,0,0,1,3.82,4.7,12.32,12.32,0,0,1,4.25-4.73,11.07,11.07,0,0,1,6.44-1.75,11.59,11.59,0,0,1,5.12,1.07,10.69,10.69,0,0,1,3.7,2.91,12.54,12.54,0,0,1,2.23,4.44,20,20,0,0,1,.75,5.58V53.65H175V35.89c0-3.37-.63-5.95-1.91-7.74a6.57,6.57,0,0,0-5.73-2.69,7.16,7.16,0,0,0-3.37.78,7,7,0,0,0-2.5,2.17,10.81,10.81,0,0,0-1.55,3.24,15.71,15.71,0,0,0-.62,4v18H154.1Z"/><path d="M190.52,10a3.52,3.52,0,0,1,.94-2.46,3.12,3.12,0,0,1,2.43-1,3.24,3.24,0,0,1,2.46,1,3.46,3.46,0,0,1,1,2.46,3.36,3.36,0,0,1-1,2.43,3.29,3.29,0,0,1-2.46,1,3.16,3.16,0,0,1-2.43-1A3.42,3.42,0,0,1,190.52,10Zm6,43.68h-5.19V26.17a20.26,20.26,0,0,1-5.89-1.1V21.7h11.08Z"/><path d="M211.64,46a3.92,3.92,0,0,0,1,3.08,3.82,3.82,0,0,0,2.53.81q.78,0,1.23,0a6,6,0,0,0,.71-.1l.2,4.34c-.39.09-.85.17-1.39.26a11.9,11.9,0,0,1-1.92.13c-2.59,0-4.49-.74-5.7-2.2a9.1,9.1,0,0,1-1.81-6V5.63h5.18Z"/><path d="M235.94,25.2a7.82,7.82,0,0,0-6.35,2.72q-2.26,2.73-2.27,7.71h16.85q0-5.45-2.23-7.93A7.65,7.65,0,0,0,235.94,25.2Zm-8.62,14.65q0,5.48,2.24,7.82T236.85,50a19.33,19.33,0,0,0,5.47-.75c1.71-.49,3.21-1,4.51-1.45l1.23,3.48a25.37,25.37,0,0,1-5.48,2.2,24.2,24.2,0,0,1-6.51.86q-13.94,0-13.93-15.36V36.28a19,19,0,0,1,1-6.35A14.2,14.2,0,0,1,226,25.07,12.5,12.5,0,0,1,230.34,22a14.23,14.23,0,0,1,5.67-1.1q6.48,0,9.81,4.08t3.34,11c0,.87,0,1.6-.06,2.21s-.11,1.18-.2,1.75Z"/><path d="M257.24,25.4a4.5,4.5,0,0,1,1.23-3.15,4.16,4.16,0,0,1,3.18-1.33,4.08,4.08,0,0,1,3.11,1.33A4.4,4.4,0,0,1,266,25.33a4.45,4.45,0,0,1-1.23,3.14,4.12,4.12,0,0,1-3.18,1.33,4,4,0,0,1-3.11-1.33A4.38,4.38,0,0,1,257.24,25.4Zm0,24.75A4.45,4.45,0,0,1,258.47,47a4.12,4.12,0,0,1,3.18-1.33A4,4,0,0,1,264.76,47,4.38,4.38,0,0,1,266,50.08a4.5,4.5,0,0,1-1.23,3.15,4.15,4.15,0,0,1-3.18,1.32,4.07,4.07,0,0,1-3.11-1.32A4.4,4.4,0,0,1,257.24,50.15Z"/></svg>